#N canvas 2149 222 923 755 12;
#X floatatom 143 219 5 0 0 0 - - - 0;
#X text 410 338 < these numbers represent the notes to play it defines the scale;
#X obj 146 29 hsl 100 25 0 25 0 0 empty empty empty -2 -8 0 10 #fcfcfc #000000 #000000 0 1;
#X text 200 61 <- only pass integer portion;
#X msg 99 340 0;
#X msg 144 340 2;
#X msg 186 339 4;
#X msg 226 339 5;
#X msg 272 339 7;
#X msg 313 338 9;
#X msg 354 339 11;
#X obj 143 291 sel 0 1 2 3 4 5 6;
#X obj 193 105 / 7;
#X obj 142 110 % 7;
#X floatatom 192 150 5 0 0 0 - - - 0;
#X obj 193 129 i;
#X text 237 151 <- octave;
#X floatatom 186 397 5 0 0 0 - - - 0;
#X obj 200 429 r \$0-octave;
#X obj 193 173 s \$0-octave;
#X floatatom 200 453 5 0 0 0 - - - 0;
#X obj 200 476 * 12;
#X obj 175 503 +;
#X floatatom 183 605 5 0 0 0 - - - 0;
#X obj 181 642 mtof;
#X obj 181 666 osc~;
#X obj 270 583 bng 19 250 50 0 empty empty empty 0 -10 0 12 #fcfcfc #000000 #000000;
#X msg 270 607 0.5 10;
#X obj 320 606 delay 10;
#X msg 320 630 0 100;
#X obj 272 661 line~;
#X obj 219 706 *~;
#X obj 219 730 output~;
#X obj 175 527 + 36;
#X obj 143 82 change;
#X obj 143 59 i;
#X text 200 83 <- only update when value is changed;
#X text 185 218 <- scale degree;
#X text 255 31 note select;
#X connect 0 0 11 0;
#X connect 2 0 35 0;
#X connect 4 0 17 0;
#X connect 5 0 17 0;
#X connect 6 0 17 0;
#X connect 7 0 17 0;
#X connect 8 0 17 0;
#X connect 9 0 17 0;
#X connect 10 0 17 0;
#X connect 11 0 4 0;
#X connect 11 1 5 0;
#X connect 11 2 6 0;
#X connect 11 3 7 0;
#X connect 11 4 8 0;
#X connect 11 5 9 0;
#X connect 11 6 10 0;
#X connect 12 0 15 0;
#X connect 13 0 0 0;
#X connect 14 0 19 0;
#X connect 15 0 14 0;
#X connect 17 0 22 0;
#X connect 18 0 20 0;
#X connect 20 0 21 0;
#X connect 21 0 22 1;
#X connect 22 0 33 0;
#X connect 23 0 24 0;
#X connect 23 0 26 0;
#X connect 24 0 25 0;
#X connect 25 0 31 0;
#X connect 26 0 27 0;
#X connect 26 0 28 0;
#X connect 27 0 30 0;
#X connect 28 0 29 0;
#X connect 29 0 30 0;
#X connect 30 0 31 1;
#X connect 31 0 32 0;
#X connect 33 0 23 0;
#X connect 34 0 12 0;
#X connect 34 0 13 0;
#X connect 35 0 34 0;
