#N canvas 578 130 889 522 12;
#X obj 71 220 + 48;
#X floatatom 71 244 5 0 0 0 - - - 0;
#X obj 99 270 % 12;
#X obj 72 380 +;
#X obj 99 294 sel 0 2 4 5 7 9 11;
#X msg 98 342 0;
#X msg 222 342 -1;
#X text 249 342 <- if the incoming note is not in the scale \, step down by a half step;
#X floatatom 72 404 5 0 0 0 - - - 0;
#X obj 71 194 random 25;
#X obj 71 140 tgl 19 0 empty empty empty 0 -10 0 12 #fcfcfc #000000 #000000 0 1;
#X obj 71 168 metro 250;
#X obj 72 427 mtof;
#X obj 72 451 osc~;
#X obj 72 478 *~ 0.1;
#X obj 72 509 output~;
#X obj 764 235 + 48;
#X floatatom 764 259 5 0 0 0 - - - 0;
#X obj 792 285 % 12;
#X obj 765 468 +;
#X msg 791 357 0;
#X msg 879 414 -1;
#X floatatom 765 493 5 0 0 0 - - - 0;
#X obj 764 209 random 25;
#X obj 764 155 tgl 19 0 empty empty empty 0 -10 0 12 #fcfcfc #000000 #000000 0 1;
#X obj 765 515 mtof;
#X obj 765 539 osc~;
#X obj 766 582 *~ 0.1;
#X obj 764 621 output~;
#X obj 792 309 sel 0 2 4 7 9;
#X obj 879 381 sel 0 2 4 7 9;
#X obj 879 344 - 1;
#X msg 967 440 -2;
#X obj 764 183 metro 150;
#X text 74 29 based on this video: https://youtu.be/KqoGNWZoZ74?si=iQt8o7Vc32bSVcZm;
#X connect 0 0 1 0;
#X connect 1 0 2 0;
#X connect 1 0 3 0;
#X connect 2 0 4 0;
#X connect 3 0 8 0;
#X connect 4 0 5 0;
#X connect 4 1 5 0;
#X connect 4 2 5 0;
#X connect 4 3 5 0;
#X connect 4 4 5 0;
#X connect 4 5 5 0;
#X connect 4 6 5 0;
#X connect 4 7 6 0;
#X connect 5 0 3 1;
#X connect 6 0 3 1;
#X connect 8 0 12 0;
#X connect 9 0 0 0;
#X connect 10 0 11 0;
#X connect 11 0 9 0;
#X connect 12 0 13 0;
#X connect 13 0 14 0;
#X connect 14 0 15 0;
#X connect 14 0 15 1;
#X connect 16 0 17 0;
#X connect 17 0 18 0;
#X connect 17 0 19 0;
#X connect 18 0 29 0;
#X connect 19 0 22 0;
#X connect 20 0 19 1;
#X connect 21 0 19 1;
#X connect 22 0 25 0;
#X connect 23 0 16 0;
#X connect 24 0 33 0;
#X connect 25 0 26 0;
#X connect 26 0 27 0;
#X connect 27 0 28 0;
#X connect 27 0 28 1;
#X connect 29 0 20 0;
#X connect 29 1 20 0;
#X connect 29 2 20 0;
#X connect 29 3 20 0;
#X connect 29 4 20 0;
#X connect 29 5 31 0;
#X connect 30 0 21 0;
#X connect 30 1 21 0;
#X connect 30 2 21 0;
#X connect 30 3 21 0;
#X connect 30 4 21 0;
#X connect 30 5 32 0;
#X connect 31 0 30 0;
#X connect 32 0 19 0;
#X connect 33 0 23 0;
