#N canvas 516 25 1404 742 12;
#N canvas 0 22 450 278 (subpatch) 0;
#X array stepCollection 20 float 3;
#A 0 0 0 0 1 1 1 2 2 3 4 4 5 7 7 7 9 10 10 11 12;
#X coords 0 12 20 0 200 140 1 0 0;
#X restore 72 561 graph;
#X floatatom 580 613 5 0 0 0 - - - 0;
#X floatatom 580 661 5 0 0 0 - - - 0;
#X obj 580 546 bng 15 250 50 0 empty empty empty 17 7 0 10 #fcfcfc #000000 #000000;
#X obj 580 687 + 60;
#X obj 581 728 mtof;
#X obj 581 751 osc~;
#X obj 648 803 line~;
#X msg 648 751 1 5;
#X msg 689 775 0 50;
#X obj 690 752 delay 25;
#X obj 630 826 *~;
#X obj 630 920 dac~;
#X obj 679 723 bng 15 250 50 0 empty empty empty 17 7 0 10 #fcfcfc #000000 #000000;
#X obj 578 504 tgl 15 0 empty empty empty 17 7 0 10 #fcfcfc #000000 #000000 0 1;
#X obj 578 524 metro 150;
#X obj 580 636 tabread stepCollection;
#X obj 580 586 random 20;
#X text 71 472 The steps relative to the "root" that can be selected By repeating some they are more likely to occur;
#X msg 73 714 \; stepCollection 0 0 0 0 1 1 1 2 2 3 4 4 5 7 7 7 9 10 10 11 12;
#N canvas 0 22 450 278 (subpatch) 0;
#X array scale 7 float 3;
#A 0 2 4 5 7 9 11 12;
#X coords 0 24 7 0 200 140 1 0 0;
#X restore 102 80 graph;
#X floatatom 336 314 5 0 0 0 - - - 0;
#X obj 336 348 + 60;
#X msg 318 114 \; scale 0 2 3 5 7 8 10 12;
#X obj 336 289 tabread scale;
#X msg 318 78 \; scale 0 2 4 5 7 9 11 12;
#X text 510 83 major scale;
#X text 508 126 minor scale;
#X text 96 36 select from a scale defined by intervals;
#X floatatom 336 390 5 0 0 0 - - - 0;
#X text 379 347 < set root note offset aka Transpose;
#X floatatom 337 253 5 0 0 0 - - - 0;
#X connect 1 0 16 0;
#X connect 2 0 4 0;
#X connect 3 0 17 0;
#X connect 4 0 5 0;
#X connect 4 0 13 0;
#X connect 5 0 6 0;
#X connect 6 0 11 0;
#X connect 7 0 11 1;
#X connect 8 0 7 0;
#X connect 9 0 7 0;
#X connect 10 0 9 0;
#X connect 11 0 12 0;
#X connect 11 0 12 1;
#X connect 13 0 8 0;
#X connect 13 0 10 0;
#X connect 14 0 15 0;
#X connect 15 0 3 0;
#X connect 16 0 2 0;
#X connect 17 0 1 0;
#X connect 21 0 22 0;
#X connect 22 0 29 0;
#X connect 24 0 21 0;
#X connect 31 0 24 0;
