#N canvas 176 38 1325 882 12;
#X obj 105 85;
#X msg 106 139;
#X floatatom 106 200 5 0 0 0 - - - 0;
#X listbox 107 261 20 0 0 0 - - - 0;
#X text 109 312 comment;
#X text 24 85 Cmd + 1;
#X text 27 314 Cmd + 5;
#X text 26 259 Cmd + 4;
#X text 26 197 Cmd + 3;
#X text 26 139 Cmd + 2;
#X obj 374 326 +;
#X floatatom 374 369 5 0 0 0 - - - 0;
#X msg 374 288 3;
#X msg 442 289 9;
#X obj 373 498 +;
#X floatatom 373 522 5 0 0 0 - - - 0;
#X msg 373 474 3;
#X msg 441 475 9;
#X text 372 252 connect objects from outlet to inlet;
#X text 369 428 different inlets do different things! Look at the Help files;
#X text 374 599 We can also connect number objects as the inputs;
#X floatatom 375 649 5 0 0 0 - - - 0;
#X floatatom 483 649 5 0 0 0 - - - 0;
#X obj 376 693 -;
#X floatatom 376 730 5 0 0 0 - - - 0;
#X text 566 652 Hot vs. Cold Inlets;
#X text 864 50 Audio Rate objects have a ~ Audio rate wires are darker/thicker;
#X obj 868 103 osc~ 400;
#X obj 869 173 +~ 0.25;
#X text 100 44 Object Shortcuts;
#X obj 77 440 bng 19 250 50 0 empty empty empty 0 -10 0 12 #fcfcfc #000000 #000000;
#X text 75 396 GUI Objects;
#X text 164 85 object;
#X text 163 142 message;
#X text 159 202 number;
#X obj 76 478 tgl 19 0 empty empty empty 0 -10 0 12 #fcfcfc #000000 #000000 0 1;
#X text 113 439 Button / Bang;
#X text 111 478 Toggle;
#X obj 76 519 vsl 19 162 0 127 0 0 empty empty empty 0 -9 0 12 #fcfcfc #000000 #000000 0 1;
#X text 109 512 Vertical Slider;
#X obj 80 695 hsl 162 19 0 127 0 0 empty empty empty -2 -10 0 12 #fcfcfc #000000 #000000 0 1;
#X text 120 669 Horizontal Slider;
#X obj 77 731 vradio 19 1 0 8 empty empty empty 0 -10 0 12 #fcfcfc #000000 #000000 0;
#X obj 77 900 hradio 19 1 0 8 empty empty empty 0 -10 0 12 #fcfcfc #000000 #000000 0;
#X text 115 744 Vertical Radio Buttons;
#X text 115 866 Horizontal Radio;
#X floatatom 76 944 5 0 0 0 - - - 0;
#X floatatom 109 837 5 0 0 0 - - - 0;
#X obj 372 31;
#X text 370 100 The text you type into an object box determines how many and what kinds of inlets and outlets the object will have. Certain classes \, such as [+] \, consistently maintain a fixed configuration of inlets and outlets. However \, for other classes \, the number and arrangement of inlets and outlets can vary based on the creation arguments.;
#X text 370 57 Type the object name (class of object) and click outside the box;
#X text 375 809 Creation Arguments;
#X floatatom 378 835 5 0 0 0 - - - 0;
#X obj 378 858 + 48;
#X floatatom 378 882 5 0 0 0 - - - 0;
#X text 432 835 Here the value of 48 is providing the number to be added to the incoming number.;
#X floatatom 378 926 5 0 0 0 - - - 0;
#X obj 378 949 + 48;
#X floatatom 378 973 5 0 0 0 - - - 0;
#X text 461 926 A new value at the right inlet will overwrite the value;
#X floatatom 421 926 5 0 0 0 - - - 0;
#X connect 14 0 15 0;
#X connect 16 0 14 0;
#X connect 17 0 14 1;
#X connect 21 0 23 0;
#X connect 22 0 23 1;
#X connect 23 0 24 0;
#X connect 27 0 28 0;
#X connect 42 0 47 0;
#X connect 43 0 46 0;
#X connect 52 0 53 0;
#X connect 53 0 54 0;
#X connect 56 0 57 0;
#X connect 57 0 58 0;
#X connect 60 0 57 1;
