#N canvas 495 140 721 642 12;
#X obj 52 186 i;
#X obj 135 186 f;
#X text 50 29 Numbers;
#X text 48 219 integer;
#X text 129 220 floating point;
#X obj 49 134 int;
#X obj 84 432 float;
#X floatatom 109 249 8 0 0 0 - - - 0;
#X obj 64 280 i;
#X obj 147 280 f;
#X floatatom 64 304 5 0 0 0 - - - 0;
#X floatatom 147 304 5 0 0 0 - - - 0;
#X floatatom 148 29 5 0 0 0 - - - 0;
#X text 200 24 number object can hold any numerical value Can be a display (output) or input in play mode - click and drag or click and type value;
#X text 259 284 Depending on whether decimal values (float) are needed or only integer values (int).;
#X text 242 130 Numbers can be stored in an int or float object and retrieved later with a bang message.;
#X msg 116 398 266.667;
#X msg 182 398 100;
#X obj 83 368 bng 19 250 50 0 empty empty empty 0 -10 0 12 #fcfcfc #000000 #000000;
#X floatatom 84 456 5 0 0 0 - - - 0;
#X obj 132 134 float;
#X text 257 381 a number is saved in the object until the button is clicked;
#X text 256 417 If the number comes in the left inlet (hot) it comes straight through;
#X msg 8 399 42;
#X text 259 538 Number boxes don't save state! But messages do;
#X obj 100 542 loadbang;
#X msg 100 566 27;
#X floatatom 100 590 5 0 0 0 - - - 0;
#X obj 76 566 bng 19 250 50 0 empty empty empty 0 -10 0 12 #fcfcfc #000000 #000000;
#X text 257 569 Loadbang will send a bang at patch load;
#X floatatom 41 399 5 0 0 0 - - - 0;
#X connect 6 0 19 0;
#X connect 7 0 8 0;
#X connect 7 0 9 0;
#X connect 8 0 10 0;
#X connect 9 0 11 0;
#X connect 16 0 6 1;
#X connect 17 0 6 1;
#X connect 18 0 6 0;
#X connect 23 0 6 0;
#X connect 25 0 26 0;
#X connect 25 0 28 0;
#X connect 26 0 27 0;
#X connect 30 0 6 0;
