#N canvas 87 102 1425 852 12;
#X obj 116 82 bng 19 250 50 0 empty empty empty 0 -10 0 12 #fcfcfc #000000 #000000;
#X obj 116 106 delay 1000;
#X obj 116 130 bng 19 250 50 0 empty empty empty 0 -10 0 12 #fcfcfc #000000 #000000;
#X text 196 106 <- Delay bang by 1000 ms (1 sec);
#X obj 117 199 bng 19 250 50 0 empty empty empty 0 -10 0 12 #fcfcfc #000000 #000000;
#X msg 117 236 127;
#X msg 179 237 0;
#X obj 179 265 pipe i 1000;
#X text 269 265 <- Delay an integer by 1000 ms (1 sec);
#X text 270 196 send 127 \, wait 1 second \, then send 0;
#X floatatom 179 310 5 0 0 0 - - - 0;
#X obj 681 90 tgl 19 0 empty empty empty 0 -10 0 12 #fcfcfc #000000 #000000 0 1;
#X obj 681 138 bng 19 50 20 0 empty empty empty 0 -10 0 12 #fcfcfc #000000 #000000;
#X obj 681 114 metro 2000;
#X obj 682 264 tgl 19 0 empty empty empty 0 -10 0 12 #fcfcfc #000000 #000000 0 1;
#X obj 682 312 bng 19 100 30 0 empty empty empty 0 -10 0 12 #fcfcfc #000000 #000000;
#X obj 682 288 metro 2000;
#X floatatom 791 248 5 0 0 0 - - - 0;
#X msg 749 231 100;
#X text 774 288 New values at the 2nd inlet overwrite the creation argument;
#X text 771 87 Send a 1 to turn on 0 to turn off Send out a pulse (bang) ever 2000 ms Here the creation argument intializes the metronome to pulse every 2 seconds when engaged;
#X text 676 52 metronome - automatically send a bang at a regular interval;
#X text 671 209 Creation Arguments;
#X text 112 26 Time in Pd is in millisecond by default;
#X obj 880 513 tgl 19 0 empty empty empty 17 7 0 10 #dfdfdf #000000 #000000 0 1;
#X text 684 561 A metronome at intervals of one beat at 120 beats per minute:, f 31;
#X text 827 514 on/off;
#X obj 922 592 bng 19 250 50 0 empty empty empty 17 7 0 10 #dfdfdf #000000 #000000;
#X msg 922 513 tempo \$1 permin;
#X floatatom 922 477 5 0 0 0 - - - 0;
#X text 826 476 change tempo;
#X obj 922 565 metro 1 120 permin, f 19;
#X text 684 428 Using BPM (from metro help file);
#X obj 767 674 tgl 19 0 empty empty empty 0 -10 0 12 #fcfcfc #000000 #000000 0 1;
#X obj 836 775 bng 19 250 50 0 empty empty empty 0 -10 0 12 #fcfcfc #000000 #000000;
#X obj 706 773 bng 19 250 50 0 empty empty empty 0 -10 0 12 #fcfcfc #000000 #000000;
#X obj 706 739 metro 1 60 permin;
#X obj 837 738 metro 4 60 permin;
#X text 999 739 < different beat divisions;
#X connect 0 0 1 0;
#X connect 1 0 2 0;
#X connect 4 0 5 0;
#X connect 4 0 6 0;
#X connect 5 0 10 0;
#X connect 6 0 7 0;
#X connect 7 0 10 0;
#X connect 11 0 13 0;
#X connect 13 0 12 0;
#X connect 14 0 16 0;
#X connect 16 0 15 0;
#X connect 17 0 16 1;
#X connect 18 0 16 1;
#X connect 24 0 31 0;
#X connect 28 0 31 0;
#X connect 29 0 28 0;
#X connect 31 0 27 0;
#X connect 33 0 36 0;
#X connect 33 0 37 0;
#X connect 36 0 35 0;
#X connect 37 0 34 0;
