#N canvas 220 199 1013 556 12;
#X obj 102 365 i;
#X obj 143 365 + 1;
#X obj 102 288 bng 19 250 50 0 empty empty empty 0 -10 0 12 #fcfcfc #000000 #000000;
#X floatatom 102 406 5 0 0 0 - - - 0;
#X msg 129 328 0;
#X obj 99 448 select 8;
#X text 167 326 <- Click 0 message to reset counter;
#X text 139 286 <- Click to count up;
#X text 176 449 <- When 8 is reached \, reset to 0;
#X obj 517 359 i;
#X obj 558 359 + 1;
#X obj 517 282 bng 19 250 50 0 empty empty empty 0 -10 0 12 #fcfcfc #000000 #000000;
#X floatatom 517 400 5 0 0 0 - - - 0;
#X msg 544 322 0;
#X text 582 320 <- Click 0 message to reset counter;
#X text 554 280 <- Click to count up;
#X obj 517 423 mod 8;
#X floatatom 517 447 5 0 0 0 - - - 0;
#X text 568 422 <- Modulo operator - remainder after division rolls any number over the value into the range specified;
#X obj 108 96 i;
#X obj 149 96 + 1;
#X obj 108 19 bng 19 250 50 0 empty empty empty 0 -10 0 12 #fcfcfc #000000 #000000;
#X floatatom 108 137 5 0 0 0 - - - 0;
#X text 145 17 <- Click to count up;
#X obj 518 100 i;
#X obj 559 100 + 1;
#X obj 518 23 bng 19 250 50 0 empty empty empty 0 -10 0 12 #fcfcfc #000000 #000000;
#X floatatom 518 141 5 0 0 0 - - - 0;
#X msg 545 63 0;
#X text 583 61 <- Click 0 message to reset counter;
#X text 555 21 <- Click to count up;
#X connect 0 0 1 0;
#X connect 0 0 3 0;
#X connect 1 0 0 1;
#X connect 2 0 0 0;
#X connect 3 0 5 0;
#X connect 4 0 0 0;
#X connect 5 0 4 0;
#X connect 9 0 10 0;
#X connect 9 0 12 0;
#X connect 10 0 9 1;
#X connect 11 0 9 0;
#X connect 12 0 16 0;
#X connect 13 0 9 0;
#X connect 16 0 17 0;
#X connect 19 0 20 0;
#X connect 19 0 22 0;
#X connect 20 0 19 1;
#X connect 21 0 19 0;
#X connect 24 0 25 0;
#X connect 24 0 27 0;
#X connect 25 0 24 1;
#X connect 26 0 24 0;
#X connect 28 0 24 0;
