#N canvas 279 91 1142 784 12;
#X floatatom 611 348 5 0 0 0 - - - 0;
#X obj 611 323 +;
#X floatatom 582 226 5 0 0 0 - - - 0;
#X floatatom 625 227 5 0 0 0 - - - 0;
#X floatatom 141 547 5 0 0 0 - - - 0;
#X floatatom 198 548 5 0 0 0 - - - 0;
#X obj 140 637 +;
#X floatatom 140 660 5 0 0 0 - - - 0;
#X obj 105 519 bng 19 250 50 0 empty empty empty 0 -10 0 12 #fcfcfc #000000 #000000;
#X text 580 165 Force the calculation everytime either number changes (even the cold inlet) by sending a bang to the hot inlet everytime the could inlet value changes.;
#X floatatom 611 582 5 0 0 0 - - - 0;
#X obj 611 557 +;
#X floatatom 582 460 5 0 0 0 - - - 0;
#X floatatom 626 463 5 0 0 0 - - - 0;
#X obj 625 500 t b f;
#X obj 625 266 trigger bang float;
#X text 578 416 Same thing using the shorthand names for trigger \, bang and float;
#X obj 105 383 bng 19 250 50 0 empty empty empty 0 -10 0 12 #fcfcfc #000000 #000000;
#X obj 105 426 bng 19 250 50 0 empty empty empty 0 -10 0 12 #fcfcfc #000000 #000000;
#X floatatom 186 381 5 0 0 0 - - - 0;
#X obj 186 425 bng 19 250 50 0 empty empty empty 0 -10 0 12 #fcfcfc #000000 #000000;
#X msg 248 381 yo;
#X obj 248 426 bng 19 250 50 0 empty empty empty 0 -10 0 12 #fcfcfc #000000 #000000;
#X floatatom 114 125 5 0 0 0 - - - 0;
#X floatatom 171 126 5 0 0 0 - - - 0;
#X obj 113 215 +;
#X floatatom 113 238 5 0 0 0 - - - 0;
#X text 104 67 The addition is only executed when the left (hot inlet) is updated;
#X text 579 66 Using the [trigger] aka [t] object;
#X text 96 457 number updates and message clicks act like a bang when sent to the hot inlet - will cause execution of the function;
#X connect 1 0 0 0;
#X connect 2 0 1 0;
#X connect 3 0 15 0;
#X connect 4 0 6 0;
#X connect 5 0 6 1;
#X connect 6 0 7 0;
#X connect 8 0 6 0;
#X connect 11 0 10 0;
#X connect 12 0 11 0;
#X connect 13 0 14 0;
#X connect 14 0 11 0;
#X connect 14 1 11 1;
#X connect 15 0 1 0;
#X connect 15 1 1 1;
#X connect 17 0 18 0;
#X connect 19 0 20 0;
#X connect 21 0 22 0;
#X connect 23 0 25 0;
#X connect 24 0 25 1;
#X connect 25 0 26 0;
