#N canvas 168 159 992 787 12;
#X obj 156 143 mod 8;
#N canvas 197 188 450 300 counter 0;
#X obj 160 116 i;
#X obj 199 117 + 1;
#X obj 160 52 bng 19 250 50 0 empty empty empty 0 -10 0 12 #fcfcfc #000000 #000000;
#X msg 191 82 0;
#X text 228 82 click to reset;
#X text 187 50 click to increment;
#X floatatom 160 140 5 0 0 0 - - - 0;
#X obj 155 17 inlet;
#X obj 225 18 inlet;
#X obj 160 186 outlet;
#X connect 0 0 1 0;
#X connect 0 0 6 0;
#X connect 1 0 0 1;
#X connect 2 0 0 0;
#X connect 3 0 0 0;
#X connect 6 0 9 0;
#X connect 7 0 2 0;
#X connect 8 0 3 0;
#X restore 156 112 pd counter;
#X obj 156 82 bng 19 250 50 0 empty empty empty 0 -10 0 12 #fcfcfc #000000 #000000;
#X obj 156 14 tgl 19 0 empty empty empty 0 -10 0 12 #fcfcfc #000000 #000000 0 1;
#X floatatom 156 177 5 0 0 0 - - - 0;
#X obj 156 200 select 0 1 2 3 4 5 6 7, f 26;
#X obj 156 241 bng 19 250 50 0 empty empty empty 0 -10 0 12 #fcfcfc #000000 #000000;
#X obj 179 241 bng 19 250 50 0 empty empty empty 0 -10 0 12 #fcfcfc #000000 #000000;
#X obj 201 241 bng 19 250 50 0 empty empty empty 0 -10 0 12 #fcfcfc #000000 #000000;
#X obj 224 241 bng 19 250 50 0 empty empty empty 0 -10 0 12 #fcfcfc #000000 #000000;
#X obj 247 240 bng 19 250 50 0 empty empty empty 0 -10 0 12 #fcfcfc #000000 #000000;
#X obj 270 240 bng 19 250 50 0 empty empty empty 0 -10 0 12 #fcfcfc #000000 #000000;
#X obj 292 240 bng 19 250 50 0 empty empty empty 0 -10 0 12 #fcfcfc #000000 #000000;
#X obj 315 240 bng 19 250 50 0 empty empty empty 0 -10 0 12 #fcfcfc #000000 #000000;
#X text 183 12 On/Off;
#X floatatom 253 40 5 0 0 0 - - - 0;
#X text 299 38 Rate;
#X text 239 111 Counter sub-patch;
#X text 241 145 Roll over at 8;
#X text 348 199 send each value to bang different output;
#X obj 156 52 metro 2000;
#X text 350 241 Now do soemthing with these;
#X obj 164 437 mod 8;
#N canvas 197 188 450 300 counter 0;
#X obj 160 116 i;
#X obj 199 117 + 1;
#X obj 160 52 bng 19 250 50 0 empty empty empty 0 -10 0 12 #fcfcfc #000000 #000000;
#X msg 191 82 0;
#X text 228 82 click to reset;
#X text 187 50 click to increment;
#X floatatom 160 140 5 0 0 0 - - - 0;
#X obj 155 17 inlet;
#X obj 225 18 inlet;
#X obj 160 186 outlet;
#X connect 0 0 1 0;
#X connect 0 0 6 0;
#X connect 1 0 0 1;
#X connect 2 0 0 0;
#X connect 3 0 0 0;
#X connect 6 0 9 0;
#X connect 7 0 2 0;
#X connect 8 0 3 0;
#X restore 164 406 pd counter;
#X obj 164 376 bng 19 250 50 0 empty empty empty 0 -10 0 12 #fcfcfc #000000 #000000;
#X obj 164 308 tgl 19 0 empty empty empty 0 -10 0 12 #fcfcfc #000000 #000000 0 1;
#X floatatom 164 471 5 0 0 0 - - - 0;
#X obj 164 494 select 0 1 2 3 4 5 6 7, f 77;
#X obj 164 535 bng 19 250 50 0 empty empty empty 0 -10 0 12 #fcfcfc #000000 #000000;
#X obj 231 535 bng 19 250 50 0 empty empty empty 0 -10 0 12 #fcfcfc #000000 #000000;
#X obj 298 535 bng 19 250 50 0 empty empty empty 0 -10 0 12 #fcfcfc #000000 #000000;
#X obj 365 535 bng 19 250 50 0 empty empty empty 0 -10 0 12 #fcfcfc #000000 #000000;
#X obj 432 534 bng 19 250 50 0 empty empty empty 0 -10 0 12 #fcfcfc #000000 #000000;
#X obj 499 534 bng 19 250 50 0 empty empty empty 0 -10 0 12 #fcfcfc #000000 #000000;
#X obj 566 534 bng 19 250 50 0 empty empty empty 0 -10 0 12 #fcfcfc #000000 #000000;
#X obj 632 534 bng 19 250 50 0 empty empty empty 0 -10 0 12 #fcfcfc #000000 #000000;
#X text 191 306 On/Off;
#X floatatom 261 334 5 0 0 0 - - - 0;
#X text 307 332 Rate;
#X text 247 405 Counter sub-patch;
#X text 249 439 Roll over at 8;
#X obj 164 604 spigot;
#X obj 200 572 tgl 19 0 empty empty empty 0 -10 0 12 #fcfcfc #000000 #000000 0 1;
#X obj 164 628 bng 19 250 50 0 empty empty empty 0 -10 0 12 #fcfcfc #000000 #000000;
#X obj 231 603 spigot;
#X obj 267 571 tgl 19 0 empty empty empty 0 -10 0 12 #fcfcfc #000000 #000000 0 1;
#X obj 231 627 bng 19 250 50 0 empty empty empty 0 -10 0 12 #fcfcfc #000000 #000000;
#X obj 298 601 spigot;
#X obj 334 569 tgl 19 0 empty empty empty 0 -10 0 12 #fcfcfc #000000 #000000 0 1;
#X obj 298 625 bng 19 250 50 0 empty empty empty 0 -10 0 12 #fcfcfc #000000 #000000;
#X obj 365 600 spigot;
#X obj 401 568 tgl 19 0 empty empty empty 0 -10 0 12 #fcfcfc #000000 #000000 0 1;
#X obj 365 624 bng 19 250 50 0 empty empty empty 0 -10 0 12 #fcfcfc #000000 #000000;
#X obj 430 600 spigot;
#X obj 466 568 tgl 19 0 empty empty empty 0 -10 0 12 #fcfcfc #000000 #000000 0 1;
#X obj 430 624 bng 19 250 50 0 empty empty empty 0 -10 0 12 #fcfcfc #000000 #000000;
#X obj 497 599 spigot;
#X obj 533 567 tgl 19 0 empty empty empty 0 -10 0 12 #fcfcfc #000000 #000000 0 1;
#X obj 497 623 bng 19 250 50 0 empty empty empty 0 -10 0 12 #fcfcfc #000000 #000000;
#X obj 564 597 spigot;
#X obj 600 565 tgl 19 0 empty empty empty 0 -10 0 12 #fcfcfc #000000 #000000 0 1;
#X obj 564 621 bng 19 250 50 0 empty empty empty 0 -10 0 12 #fcfcfc #000000 #000000;
#X obj 631 596 spigot;
#X obj 667 564 tgl 19 0 empty empty empty 0 -10 0 12 #fcfcfc #000000 #000000 0 1;
#X obj 631 620 bng 19 250 50 0 empty empty empty 0 -10 0 12 #fcfcfc #000000 #000000;
#X obj 164 346 metro 200;
#X text 693 564 <- turn on and off individual steps;
#X connect 0 0 4 0;
#X connect 1 0 0 0;
#X connect 2 0 1 0;
#X connect 3 0 20 0;
#X connect 4 0 5 0;
#X connect 5 0 6 0;
#X connect 5 1 7 0;
#X connect 5 2 8 0;
#X connect 5 3 9 0;
#X connect 5 4 10 0;
#X connect 5 5 11 0;
#X connect 5 6 12 0;
#X connect 5 7 13 0;
#X connect 15 0 20 1;
#X connect 20 0 2 0;
#X connect 22 0 26 0;
#X connect 23 0 22 0;
#X connect 24 0 23 0;
#X connect 25 0 65 0;
#X connect 26 0 27 0;
#X connect 27 0 28 0;
#X connect 27 1 29 0;
#X connect 27 2 30 0;
#X connect 27 3 31 0;
#X connect 27 4 32 0;
#X connect 27 5 33 0;
#X connect 27 6 34 0;
#X connect 27 7 35 0;
#X connect 28 0 41 0;
#X connect 29 0 44 0;
#X connect 30 0 47 0;
#X connect 31 0 50 0;
#X connect 32 0 53 0;
#X connect 33 0 56 0;
#X connect 34 0 59 0;
#X connect 35 0 62 0;
#X connect 37 0 65 1;
#X connect 41 0 43 0;
#X connect 42 0 41 1;
#X connect 44 0 46 0;
#X connect 45 0 44 1;
#X connect 47 0 49 0;
#X connect 48 0 47 1;
#X connect 50 0 52 0;
#X connect 51 0 50 1;
#X connect 53 0 55 0;
#X connect 54 0 53 1;
#X connect 56 0 58 0;
#X connect 57 0 56 1;
#X connect 59 0 61 0;
#X connect 60 0 59 1;
#X connect 62 0 64 0;
#X connect 63 0 62 1;
#X connect 65 0 24 0;
