#N canvas 581 484 761 405 12;
#X floatatom 286 93 5 0 0 0 - - - 0;
#X obj 283 165 bng 19 250 50 0 empty empty empty 0 -10 0 12 #fcfcfc #000000 #000000;
#X obj 306 164 bng 19 250 50 0 empty empty empty 0 -10 0 12 #fcfcfc #000000 #000000;
#X obj 331 166 bng 19 250 50 0 empty empty empty 0 -10 0 12 #fcfcfc #000000 #000000;
#X obj 354 165 bng 19 250 50 0 empty empty empty 0 -10 0 12 #fcfcfc #000000 #000000;
#X obj 485 111 tgl 19 0 empty empty empty 0 -10 0 12 #fcfcfc #000000 #000000 0 1;
#X floatatom 485 135 5 0 0 0 - - - 0;
#X obj 485 158 select 1 0;
#X obj 486 204 bng 19 250 50 0 empty empty empty 0 -10 0 12 #fcfcfc #000000 #000000;
#X obj 546 204 bng 19 250 50 0 empty empty empty 0 -10 0 12 #fcfcfc #000000 #000000;
#X msg 486 228 0.1;
#X msg 546 228 0;
#X floatatom 511 288 5 0 0 0 - - - 0;
#X obj 286 116 select 1 2 3 4;
#X msg 263 211 60;
#X msg 300 209 62;
#X floatatom 265 277 5 0 0 0 - - - 0;
#X msg 332 209 60;
#X msg 80 139 60;
#X msg 117 137 62;
#X floatatom 82 205 5 0 0 0 - - - 0;
#X msg 149 137 60;
#X obj 82 228 mtof;
#X obj 82 252 osc~;
#X connect 0 0 13 0;
#X connect 1 0 14 0;
#X connect 2 0 15 0;
#X connect 3 0 17 0;
#X connect 5 0 6 0;
#X connect 6 0 7 0;
#X connect 7 0 8 0;
#X connect 7 1 9 0;
#X connect 8 0 10 0;
#X connect 9 0 11 0;
#X connect 10 0 12 0;
#X connect 11 0 12 0;
#X connect 13 0 1 0;
#X connect 13 1 2 0;
#X connect 13 2 3 0;
#X connect 13 3 4 0;
#X connect 14 0 16 0;
#X connect 15 0 16 0;
#X connect 17 0 16 0;
#X connect 18 0 20 0;
#X connect 19 0 20 0;
#X connect 20 0 22 0;
#X connect 21 0 20 0;
#X connect 22 0 23 0;
