#N canvas 168 159 1344 787 12;
#X obj 159 228 mod 8;
#N canvas 197 188 450 300 counter 0;
#X obj 160 116 i;
#X obj 199 117 + 1;
#X obj 160 52 bng 19 250 50 0 empty empty empty 0 -10 0 12 #fcfcfc #000000 #000000;
#X msg 191 82 0;
#X text 228 82 click to reset;
#X text 187 50 click to increment;
#X floatatom 160 140 5 0 0 0 - - - 0;
#X obj 155 17 inlet;
#X obj 225 18 inlet;
#X obj 160 186 outlet;
#X connect 0 0 1 0;
#X connect 0 0 6 0;
#X connect 1 0 0 1;
#X connect 2 0 0 0;
#X connect 3 0 0 0;
#X connect 6 0 9 0;
#X connect 7 0 2 0;
#X connect 8 0 3 0;
#X restore 159 197 pd counter;
#X obj 159 167 bng 19 250 50 0 empty empty empty 0 -10 0 12 #fcfcfc #000000 #000000;
#X obj 159 99 tgl 19 0 empty empty empty 0 -10 0 12 #fcfcfc #000000 #000000 0 1;
#X floatatom 159 262 5 0 0 0 - - - 0;
#X obj 159 285 select 0 1 2 3 4 5 6 7, f 26;
#X obj 159 326 bng 19 250 50 0 empty empty empty 0 -10 0 12 #fcfcfc #000000 #000000;
#X obj 182 326 bng 19 250 50 0 empty empty empty 0 -10 0 12 #fcfcfc #000000 #000000;
#X obj 204 326 bng 19 250 50 0 empty empty empty 0 -10 0 12 #fcfcfc #000000 #000000;
#X obj 227 326 bng 19 250 50 0 empty empty empty 0 -10 0 12 #fcfcfc #000000 #000000;
#X obj 250 325 bng 19 250 50 0 empty empty empty 0 -10 0 12 #fcfcfc #000000 #000000;
#X obj 273 325 bng 19 250 50 0 empty empty empty 0 -10 0 12 #fcfcfc #000000 #000000;
#X obj 295 325 bng 19 250 50 0 empty empty empty 0 -10 0 12 #fcfcfc #000000 #000000;
#X obj 318 325 bng 19 250 50 0 empty empty empty 0 -10 0 12 #fcfcfc #000000 #000000;
#X text 186 97 On/Off;
#X floatatom 256 125 5 0 0 0 - - - 0;
#X text 302 123 Rate;
#X text 242 196 Counter sub-patch;
#X text 244 230 Roll over at 8;
#X text 351 284 send each value to bang different output;
#X obj 159 137 metro 2000;
#X text 353 326 Now do soemthing with these;
#X obj 157 582 mod 8;
#N canvas 197 188 450 300 counter 0;
#X obj 160 116 i;
#X obj 199 117 + 1;
#X obj 160 52 bng 19 250 50 0 empty empty empty 0 -10 0 12 #fcfcfc #000000 #000000;
#X msg 191 82 0;
#X text 228 82 click to reset;
#X text 187 50 click to increment;
#X floatatom 160 140 5 0 0 0 - - - 0;
#X obj 155 17 inlet;
#X obj 225 18 inlet;
#X obj 160 186 outlet;
#X connect 0 0 1 0;
#X connect 0 0 6 0;
#X connect 1 0 0 1;
#X connect 2 0 0 0;
#X connect 3 0 0 0;
#X connect 6 0 9 0;
#X connect 7 0 2 0;
#X connect 8 0 3 0;
#X restore 157 551 pd counter;
#X obj 157 521 bng 19 250 50 0 empty empty empty 0 -10 0 12 #fcfcfc #000000 #000000;
#X obj 157 453 tgl 19 0 empty empty empty 0 -10 0 12 #fcfcfc #000000 #000000 0 1;
#X floatatom 157 616 5 0 0 0 - - - 0;
#X obj 157 639 select 0 1 2 3 4 5 6 7, f 77;
#X obj 157 680 bng 19 250 50 0 empty empty empty 0 -10 0 12 #fcfcfc #000000 #000000;
#X obj 224 680 bng 19 250 50 0 empty empty empty 0 -10 0 12 #fcfcfc #000000 #000000;
#X obj 291 680 bng 19 250 50 0 empty empty empty 0 -10 0 12 #fcfcfc #000000 #000000;
#X obj 358 680 bng 19 250 50 0 empty empty empty 0 -10 0 12 #fcfcfc #000000 #000000;
#X obj 425 679 bng 19 250 50 0 empty empty empty 0 -10 0 12 #fcfcfc #000000 #000000;
#X obj 492 679 bng 19 250 50 0 empty empty empty 0 -10 0 12 #fcfcfc #000000 #000000;
#X obj 559 679 bng 19 250 50 0 empty empty empty 0 -10 0 12 #fcfcfc #000000 #000000;
#X obj 625 679 bng 19 250 50 0 empty empty empty 0 -10 0 12 #fcfcfc #000000 #000000;
#X text 184 451 On/Off;
#X floatatom 254 479 5 0 0 0 - - - 0;
#X text 300 477 Rate;
#X text 240 550 Counter sub-patch;
#X text 242 584 Roll over at 8;
#X obj 157 749 spigot;
#X obj 193 717 tgl 19 0 empty empty empty 0 -10 0 12 #fcfcfc #000000 #000000 0 1;
#X obj 157 773 bng 19 250 50 0 empty empty empty 0 -10 0 12 #fcfcfc #000000 #000000;
#X obj 224 748 spigot;
#X obj 260 716 tgl 19 0 empty empty empty 0 -10 0 12 #fcfcfc #000000 #000000 0 1;
#X obj 224 772 bng 19 250 50 0 empty empty empty 0 -10 0 12 #fcfcfc #000000 #000000;
#X obj 291 746 spigot;
#X obj 327 714 tgl 19 0 empty empty empty 0 -10 0 12 #fcfcfc #000000 #000000 0 1;
#X obj 291 770 bng 19 250 50 0 empty empty empty 0 -10 0 12 #fcfcfc #000000 #000000;
#X obj 358 745 spigot;
#X obj 394 713 tgl 19 0 empty empty empty 0 -10 0 12 #fcfcfc #000000 #000000 0 1;
#X obj 358 769 bng 19 250 50 0 empty empty empty 0 -10 0 12 #fcfcfc #000000 #000000;
#X obj 423 745 spigot;
#X obj 459 713 tgl 19 0 empty empty empty 0 -10 0 12 #fcfcfc #000000 #000000 0 1;
#X obj 423 769 bng 19 250 50 0 empty empty empty 0 -10 0 12 #fcfcfc #000000 #000000;
#X obj 490 744 spigot;
#X obj 526 712 tgl 19 0 empty empty empty 0 -10 0 12 #fcfcfc #000000 #000000 0 1;
#X obj 490 768 bng 19 250 50 0 empty empty empty 0 -10 0 12 #fcfcfc #000000 #000000;
#X obj 557 742 spigot;
#X obj 593 710 tgl 19 0 empty empty empty 0 -10 0 12 #fcfcfc #000000 #000000 0 1;
#X obj 557 766 bng 19 250 50 0 empty empty empty 0 -10 0 12 #fcfcfc #000000 #000000;
#X obj 624 741 spigot;
#X obj 660 709 tgl 19 0 empty empty empty 0 -10 0 12 #fcfcfc #000000 #000000 0 1;
#X obj 624 765 bng 19 250 50 0 empty empty empty 0 -10 0 12 #fcfcfc #000000 #000000;
#X obj 157 491 metro 200;
#X text 686 709 <- turn on and off individual steps;
#X obj 154 1172 i;
#X floatatom 172 1137 5 0 0 0 - - - 0;
#X obj 154 1094 bng 19 250 50 0 empty empty empty 0 -10 0 12 #fcfcfc #000000 #000000;
#X floatatom 154 1196 5 0 0 0 - - - 0;
#X obj 241 1174 i;
#X floatatom 259 1139 5 0 0 0 - - - 0;
#X obj 242 1096 bng 19 250 50 0 empty empty empty 0 -10 0 12 #fcfcfc #000000 #000000;
#X floatatom 241 1198 5 0 0 0 - - - 0;
#X obj 334 1163 i;
#X floatatom 353 1136 5 0 0 0 - - - 0;
#X obj 333 1099 bng 19 250 50 0 empty empty empty 0 -10 0 12 #fcfcfc #000000 #000000;
#X floatatom 334 1187 5 0 0 0 - - - 0;
#X floatatom 276 1253 5 0 0 0 - - - 0;
#N canvas 197 188 450 300 counter 0;
#X obj 160 116 i;
#X obj 199 117 + 1;
#X obj 160 52 bng 19 250 50 0 empty empty empty 0 -10 0 12 #fcfcfc #000000 #000000;
#X msg 191 82 0;
#X text 228 82 click to reset;
#X text 187 50 click to increment;
#X floatatom 160 140 5 0 0 0 - - - 0;
#X obj 155 17 inlet;
#X obj 225 18 inlet;
#X obj 160 186 outlet;
#X connect 0 0 1 0;
#X connect 0 0 6 0;
#X connect 1 0 0 1;
#X connect 2 0 0 0;
#X connect 3 0 0 0;
#X connect 6 0 9 0;
#X connect 7 0 2 0;
#X connect 8 0 3 0;
#X restore 154 978 pd counter;
#X obj 154 948 bng 19 250 50 0 empty empty empty 0 -10 0 12 #fcfcfc #000000 #000000;
#X obj 154 880 tgl 19 0 empty empty empty 0 -10 0 12 #fcfcfc #000000 #000000 0 1;
#X floatatom 154 1043 5 0 0 0 - - - 0;
#X text 181 878 On/Off;
#X text 237 977 Counter sub-patch;
#X obj 154 1009 mod 3;
#X text 239 1011 Roll over at 3;
#X obj 154 1066 select 0 1 2, f 39;
#X obj 154 918 metro 1000;
#X text 149 840 You can use int [i] or float [f] to hold a value that is sent out by the seqencer.;
#X text 153 403 [spigot] can be used as a gate - to allow a bang to pass through or not. This is useful for turning on and off sequender steps;
#X text 156 37 Here's a basic 8 step sequencer. You can change the roll over value and add values to the [select] object for more steps.;
#X text 401 1132 <- store a value;
#X text 378 1167 <- pass it along when recives a bang;
#X connect 0 0 4 0;
#X connect 1 0 0 0;
#X connect 2 0 1 0;
#X connect 3 0 20 0;
#X connect 4 0 5 0;
#X connect 5 0 6 0;
#X connect 5 1 7 0;
#X connect 5 2 8 0;
#X connect 5 3 9 0;
#X connect 5 4 10 0;
#X connect 5 5 11 0;
#X connect 5 6 12 0;
#X connect 5 7 13 0;
#X connect 15 0 20 1;
#X connect 20 0 2 0;
#X connect 22 0 26 0;
#X connect 23 0 22 0;
#X connect 24 0 23 0;
#X connect 25 0 65 0;
#X connect 26 0 27 0;
#X connect 27 0 28 0;
#X connect 27 1 29 0;
#X connect 27 2 30 0;
#X connect 27 3 31 0;
#X connect 27 4 32 0;
#X connect 27 5 33 0;
#X connect 27 6 34 0;
#X connect 27 7 35 0;
#X connect 28 0 41 0;
#X connect 29 0 44 0;
#X connect 30 0 47 0;
#X connect 31 0 50 0;
#X connect 32 0 53 0;
#X connect 33 0 56 0;
#X connect 34 0 59 0;
#X connect 35 0 62 0;
#X connect 37 0 65 1;
#X connect 41 0 43 0;
#X connect 42 0 41 1;
#X connect 44 0 46 0;
#X connect 45 0 44 1;
#X connect 47 0 49 0;
#X connect 48 0 47 1;
#X connect 50 0 52 0;
#X connect 51 0 50 1;
#X connect 53 0 55 0;
#X connect 54 0 53 1;
#X connect 56 0 58 0;
#X connect 57 0 56 1;
#X connect 59 0 61 0;
#X connect 60 0 59 1;
#X connect 62 0 64 0;
#X connect 63 0 62 1;
#X connect 65 0 24 0;
#X connect 67 0 70 0;
#X connect 68 0 67 1;
#X connect 69 0 67 0;
#X connect 70 0 79 0;
#X connect 71 0 74 0;
#X connect 72 0 71 1;
#X connect 73 0 71 0;
#X connect 74 0 79 0;
#X connect 75 0 78 0;
#X connect 76 0 75 1;
#X connect 77 0 75 0;
#X connect 78 0 79 0;
#X connect 80 0 86 0;
#X connect 81 0 80 0;
#X connect 82 0 89 0;
#X connect 83 0 88 0;
#X connect 86 0 83 0;
#X connect 88 0 69 0;
#X connect 88 1 73 0;
#X connect 88 2 77 0;
#X connect 89 0 81 0;
