#N canvas 179 38 1206 916 12;
#X floatatom 107 72 5 0 0 0 - - - 0;
#X obj 107 95 send myFavoriteNumber;
#X obj 106 171 receive myFavoriteNumber;
#X floatatom 106 195 5 0 0 0 - - - 0;
#X text 101 145 look ma \, no wires!;
#X obj 185 288 tgl 15 0 empty empty empty 17 7 0 10 #fcfcfc #000000 #000000 0 1;
#X obj 185 332 s myPulse;
#X obj 100 368 r myPulse;
#X obj 100 391 bng 15 250 50 0 empty empty empty 17 7 0 10 #fcfcfc #000000 #000000;
#X obj 183 369 r myPulse;
#X obj 183 392 bng 15 250 50 0 empty empty empty 17 7 0 10 #fcfcfc #000000 #000000;
#X obj 257 369 r myPulse;
#X obj 257 392 bng 15 250 50 0 empty empty empty 17 7 0 10 #fcfcfc #000000 #000000;
#X obj 186 308 metro 500;
#X obj 482 103 bng 15 250 50 0 empty empty empty 17 7 0 10 #fcfcfc #000000 #000000;
#X obj 482 123 s bigBang;
#N canvas 47 38 970 621 theBigBang 0;
#X obj 321 67 r bigBang;
#X obj 315 198 r bigBang;
#X obj 303 13 noise~;
#X obj 303 124 *~;
#X obj 220 383 dac~;
#X obj 301 291 bob~;
#X floatatom 428 264 5 0 0 0 - - - 0;
#X obj 428 215 loadbang;
#X msg 428 239 3;
#N canvas 0 25 1008 713 AD-env 0;
#X msg 303 195 1 5;
#X obj 303 262 line~;
#X msg 342 239 0 100;
#X obj 343 216 pipe 15;
#X obj 323 129 inlet;
#X obj 303 286 outlet~;
#X connect 0 0 1 0;
#X connect 1 0 5 0;
#X connect 2 0 1 0;
#X connect 3 0 2 0;
#X connect 4 0 0 0;
#X connect 4 0 3 0;
#X restore 321 96 pd AD-env;
#X obj 165 175 r bigBang;
#N canvas 0 25 1008 713 AD-env 0;
#X msg 303 195 1 5;
#X obj 303 262 line~;
#X obj 323 129 inlet;
#X obj 303 286 outlet~;
#X obj 343 217 pipe 50;
#X msg 343 239 0 150;
#X connect 0 0 1 0;
#X connect 1 0 3 0;
#X connect 2 0 0 0;
#X connect 2 0 4 0;
#X connect 4 0 5 0;
#X connect 5 0 1 0;
#X restore 165 198 pd AD-env;
#X obj 146 221 *~;
#N canvas 47 38 1005 667 freqSweep 0;
#X obj 199 210 line~;
#X obj 236 92 inlet;
#X text 251 134 <- start value;
#X obj 199 234 outlet~;
#X msg 238 182 200 50;
#X obj 237 161 pipe 5;
#X msg 199 135 1000;
#X text 312 181 <- goto 200 after 15ms delay in 50ms;
#X connect 0 0 3 0;
#X connect 1 0 6 0;
#X connect 1 0 5 0;
#X connect 4 0 0 0;
#X connect 5 0 4 0;
#X connect 6 0 0 0;
#X restore 315 220 pd freqSweep;
#X obj 128 152 osc~ 80;
#X text 473 265 filter Q;
#X connect 0 0 9 0;
#X connect 1 0 13 0;
#X connect 2 0 3 0;
#X connect 3 0 5 0;
#X connect 5 0 4 0;
#X connect 5 0 4 1;
#X connect 6 0 5 2;
#X connect 7 0 8 0;
#X connect 8 0 6 0;
#X connect 9 0 3 1;
#X connect 10 0 11 0;
#X connect 11 0 12 1;
#X connect 12 0 4 0;
#X connect 12 0 4 1;
#X connect 13 0 5 1;
#X connect 14 0 12 0;
#X restore 483 168 pd theBigBang;
#X obj 403 429 tgl 25 0 empty empty empty 17 7 0 10 #c4fcfc #000000 #000000 0 1;
#X floatatom 463 480 5 0 0 0 - - - 0;
#X text 431 428 run/stop;
#X text 503 478 time between ticks (ms);
#X obj 403 574 s currentStep;
#X obj 265 703 r currentStep;
#X obj 264 726 hradio 15 1 0 16 empty empty empty 0 -8 0 10 #fcfcfc #000000 #000000 0;
#X obj 403 504 metro 150;
#N canvas 0 25 1180 766 my16Counter 0;
#X obj 194 116 inlet;
#X obj 230 260 i;
#X obj 230 284 + 1;
#X floatatom 275 283 5 0 0 0 - - - 0;
#X floatatom 277 339 5 0 0 0 - - - 0;
#X text 271 257 counter \, adds 1 each bang;
#X text 315 308 modulo (%) calculates the remainder after division;
#X msg 255 234 0;
#X obj 276 312 % 16;
#X obj 272 181 inlet;
#X text 331 184 bang to reset;
#X text 244 114 bang to count;
#X obj 277 362 outlet;
#X connect 0 0 1 0;
#X connect 1 0 2 0;
#X connect 1 0 3 0;
#X connect 2 0 1 1;
#X connect 3 0 8 0;
#X connect 4 0 12 0;
#X connect 7 0 1 1;
#X connect 8 0 4 0;
#X connect 9 0 7 0;
#X restore 403 528 pd my16Counter;
#X floatatom 403 552 5 0 0 0 - - - 0;
#X obj 731 697 r currentStep;
#X obj 730 720 hradio 15 1 0 16 empty empty empty 0 -8 0 10 #fcfcfc #000000 #000000 0;
#X obj 77 583 r currentStep;
#X obj 76 606 hradio 15 1 0 16 empty empty empty 0 -8 0 10 #fcfcfc #000000 #000000 0;
#X obj 550 582 r currentStep;
#X obj 549 605 hradio 15 1 0 16 empty empty empty 0 -8 0 10 #fcfcfc #000000 #000000 0;
#X text 83 8 send and receive or [s] and [r] can be used to connect objects with "invisible" wires;
#X floatatom 264 746 5 0 0 0 - - - 0;
#X floatatom 76 626 5 0 0 0 - - - 0;
#X floatatom 730 740 5 0 0 0 - - - 0;
#X floatatom 549 625 5 0 0 0 - - - 0;
#X obj 810 69 vradio 19 1 0 4 empty empty empty 0 -10 0 12 #fcfcfc #000000 #000000 0;
#X floatatom 810 150 5 0 0 0 - - - 0;
#X obj 810 173 send mode;
#X obj 812 287 r mode;
#X floatatom 812 311 5 0 0 0 - - - 0;
#X obj 812 334 sel 0 1 2 3, f 20;
#X obj 812 358 bng 19 250 50 0 empty empty empty 0 -10 0 12 #fcfcfc #000000 #000000;
#X obj 846 358 bng 19 250 50 0 empty empty empty 0 -10 0 12 #fcfcfc #000000 #000000;
#X obj 880 360 bng 19 250 50 0 empty empty empty 0 -10 0 12 #fcfcfc #000000 #000000;
#X obj 914 360 bng 19 250 50 0 empty empty empty 0 -10 0 12 #fcfcfc #000000 #000000;
#X obj 1052 88 r mode;
#X floatatom 1052 112 5 0 0 0 - - - 0;
#X obj 1052 135 sel 0 1 2 3, f 20;
#X obj 1052 159 bng 19 250 50 0 empty empty empty 0 -10 0 12 #fcfcfc #000000 #000000;
#X obj 1086 159 bng 19 250 50 0 empty empty empty 0 -10 0 12 #fcfcfc #000000 #000000;
#X obj 1120 161 bng 19 250 50 0 empty empty empty 0 -10 0 12 #fcfcfc #000000 #000000;
#X obj 1154 161 bng 19 250 50 0 empty empty empty 0 -10 0 12 #fcfcfc #000000 #000000;
#X connect 0 0 1 0;
#X connect 2 0 3 0;
#X connect 5 0 13 0;
#X connect 7 0 8 0;
#X connect 9 0 10 0;
#X connect 11 0 12 0;
#X connect 13 0 6 0;
#X connect 14 0 15 0;
#X connect 17 0 24 0;
#X connect 18 0 24 1;
#X connect 22 0 23 0;
#X connect 23 0 34 0;
#X connect 24 0 25 0;
#X connect 25 0 26 0;
#X connect 26 0 21 0;
#X connect 27 0 28 0;
#X connect 28 0 36 0;
#X connect 29 0 30 0;
#X connect 30 0 35 0;
#X connect 31 0 32 0;
#X connect 32 0 37 0;
#X connect 38 0 39 0;
#X connect 39 0 40 0;
#X connect 41 0 42 0;
#X connect 42 0 43 0;
#X connect 43 0 44 0;
#X connect 43 1 45 0;
#X connect 43 2 46 0;
#X connect 43 3 47 0;
#X connect 48 0 49 0;
#X connect 49 0 50 0;
#X connect 50 0 51 0;
#X connect 50 1 52 0;
#X connect 50 2 53 0;
#X connect 50 3 54 0;
