#N canvas 163 159 983 739 12;
#X text 203 99 Create a sub-patch with the object [pd] Each instance of the sub-patch is;
#X text 202 23 Organizing your patch into modules will both help organize and clean up your patch and help you re-use ideas and concepts;
#N canvas 192 188 450 300 (subpatch) 0;
#X restore 209 148 pd;
#N canvas 221 217 450 300 mySubPatch 1;
#X restore 208 223 pd mySubPatch;
#X text 207 200 Give it a name with a creation argument;
#N canvas 250 246 583 338 alwaysAdder 0;
#X obj 155 92 inlet;
#X obj 253 91 inlet;
#X obj 253 115 t b f;
#X obj 209 175 +;
#X obj 209 219 outlet;
#X text 154 54 left inlet;
#X text 252 51 right inlet;
#X connect 0 0 3 0;
#X connect 1 0 2 0;
#X connect 2 0 3 0;
#X connect 2 1 3 1;
#X connect 3 0 4 0;
#X restore 207 406 pd alwaysAdder;
#X floatatom 207 380 5 0 0 0 - - - 0;
#X floatatom 302 380 5 0 0 0 - - - 0;
#X floatatom 207 430 5 0 0 0 - - - 0;
#X text 207 297 Define the inputs and outputs using [inlet] and [outlet] The order that they appear in the patch \, Left to Right will be the order that they are routed to the top level inlet and outlet;
#X obj 237 638 *~;
#X obj 259 613 hsl 162 19 0 0.1 0 0 empty empty empty -2 -10 0 12 #fcfcfc #000000 #000000 0 1;
#X obj 231 680 dac~;
#X msg 209 543 60;
#X msg 249 542 63;
#N canvas 279 275 450 300 myMIDISawtoothSubpatch 0;
#X obj 37 37 inlet;
#X obj 37 114 phasor~;
#X obj 37 69 mtof;
#X obj 37 138 *~ 2;
#X obj 37 164 -~ 1;
#X obj 38 215 outlet~;
#X text 118 35 <- control rate input;
#X text 123 213 <- audio rate output;
#X connect 0 0 2 0;
#X connect 1 0 3 0;
#X connect 2 0 1 0;
#X connect 3 0 4 0;
#X connect 4 0 5 0;
#X restore 238 582 pd myMIDISawtoothSubpatch;
#N canvas 337 333 450 300 whatever 0;
#X restore 605 404 pd whatever you like;
#X text 315 223 <- go inside to edit by clicking on object with patch locked;
#X text 202 503 Use [inlet~] or [outlet~] if the signal should be audio rate;
#X connect 5 0 8 0;
#X connect 6 0 5 0;
#X connect 7 0 5 1;
#X connect 10 0 12 0;
#X connect 10 0 12 1;
#X connect 11 0 10 1;
#X connect 13 0 15 0;
#X connect 14 0 15 0;
#X connect 15 0 10 0;
