#N canvas 2095 163 1092 783 12;
#X obj 119 92 r myPulse;
#X obj 119 116 bng 19 250 50 0 empty empty empty 0 -10 0 12 #fcfcfc #000000 #000000;
#X text 114 58 This can be recived from another open patch;
#X obj 534 154 r \$0-pulse;
#X obj 534 178 bng 19 250 50 0 empty empty empty 0 -10 0 12 #fcfcfc #000000 #000000;
#X obj 532 50 bng 19 250 50 0 empty empty empty 0 -10 0 12 #fcfcfc #000000 #000000;
#X obj 532 74 s \$0-pulse;
#X text 629 73 <- starting a name with \$0 will give it a unique name to this patch instance. This may be used to design sub-patches \, unique names for delay line buffers \, array names and more.;
#X text 530 246 \$0 is replaced by a unique (randomly generated) number when the patch is opened;
#X text 123 384 \$1 is replaced by the first value in a list;
#X floatatom 128 429 5 0 0 0 - - - 0;
#X msg 128 457 \$1 is my favorite number;
#X obj 128 489 print;
#X floatatom 342 430 5 0 0 0 - - - 0;
#X obj 342 490 print;
#X msg 342 458 0 \$1;
#X obj 447 451 pack f f;
#X floatatom 500 414 5 0 0 0 - - - 0;
#X floatatom 447 415 5 0 0 0 - - - 0;
#X msg 447 516 I got \$1;
#X obj 447 540 print what you got?;
#X obj 495 479 print packOut;
#X obj 129 653 pack f f;
#X floatatom 129 613 5 0 0 0 - - - 0;
#X floatatom 182 613 5 0 0 0 - - - 0;
#X msg 129 677 \$1 is the hot inlet and \$2 is not;
#X obj 129 701 print;
#X floatatom 457 651 5 0 0 0 - - - 0;
#X floatatom 509 651 5 0 0 0 - - - 0;
#X floatatom 560 651 5 0 0 0 - - - 0;
#X msg 457 698 \$1 \$2 \, \$3;
#X obj 457 674 pack f f f;
#X obj 457 722 print;
#X connect 0 0 1 0;
#X connect 3 0 4 0;
#X connect 5 0 6 0;
#X connect 10 0 11 0;
#X connect 11 0 12 0;
#X connect 13 0 15 0;
#X connect 15 0 14 0;
#X connect 16 0 19 0;
#X connect 16 0 21 0;
#X connect 17 0 16 1;
#X connect 18 0 16 0;
#X connect 19 0 20 0;
#X connect 22 0 25 0;
#X connect 23 0 22 0;
#X connect 24 0 22 1;
#X connect 25 0 26 0;
#X connect 27 0 31 0;
#X connect 28 0 31 1;
#X connect 29 0 31 2;
#X connect 30 0 32 0;
#X connect 31 0 30 0;
