#N canvas 1835 88 1283 942 12;
#X floatatom 149 217 5 0 0 0 - - - 0;
#X obj 149 183 snapshot~;
#X obj 63 112 osc~ 0.125;
#X floatatom 65 215 5 0 0 0 - - - 0;
#X obj 665 201 samphold~;
#X obj 148 151 bng 19 250 50 0 empty empty empty 0 -10 0 12 #fcfcfc #000000 #000000;
#X obj 740 128 tgl 19 0 empty empty empty 0 -10 0 12 #fcfcfc #000000 #000000 0 1;
#X floatatom 740 152 5 0 0 0 - - - 0;
#X obj 740 175 sig~;
#X floatatom 731 321 5 0 0 0 - - - 0;
#X obj 731 287 snapshot~;
#X text 630 371 Use samphold when you need a downsampled signal;
#X obj 875 192 samphold~;
#X floatatom 941 312 5 0 0 0 - - - 0;
#X obj 941 278 snapshot~;
#X obj 939 253 bng 19 250 50 0 empty empty empty 0 -10 0 12 #fcfcfc #000000 #000000;
#X obj 950 166 phasor~ 2;
#X obj 635 150 osc~ 0.125;
#X obj 866 143 osc~ 0.125;
#X text 52 25 Converting signal (audio rate) to control rate;
#X obj 735 235 loadbang;
#X obj 735 259 metro 20;
#X floatatom 132 441 5 0 0 0 - - - 0;
#X obj 132 407 snapshot~;
#X obj 136 355 loadbang;
#X obj 136 379 metro 20;
#X obj 69 325 osc~ 0.125;
#X text 207 378 <- every 20ms take a snapshot of the signal;
#X text 115 525 Convert control rate values to signals (sent at the audio sample rate) using sig~;
#X obj 132 698 dac~;
#X floatatom 130 634 5 0 0 0 - - - 0;
#X obj 130 657 sig~;
#X msg 122 583 0.2;
#X msg 166 587 0;
#X text 679 531 line and vline can smooth out clicks;
#X obj 245 584 hsl 162 19 0 0.25 0 0 empty empty empty -2 -10 0 12 #fcfcfc #000000 #000000 0 1;
#X msg 729 580 0.2;
#X msg 773 584 0;
#X obj 852 581 hsl 162 19 0 0.25 0 0 empty empty empty -2 -10 0 12 #fcfcfc #000000 #000000 0 1;
#X obj 734 658 line~;
#X obj 734 682 dac~;
#X msg 733 626 \$1 100;
#X obj 107 856 scope~;
#X obj 107 830 osc~ 0.125;
#X obj 347 859 scope~;
#X obj 346 832 osc~ 1000;
#X connect 1 0 0 0;
#X connect 2 0 1 0;
#X connect 4 0 10 0;
#X connect 5 0 1 0;
#X connect 6 0 7 0;
#X connect 7 0 8 0;
#X connect 8 0 4 1;
#X connect 10 0 9 0;
#X connect 12 0 14 0;
#X connect 14 0 13 0;
#X connect 15 0 14 0;
#X connect 16 0 12 1;
#X connect 17 0 4 0;
#X connect 18 0 12 0;
#X connect 20 0 21 0;
#X connect 21 0 10 0;
#X connect 23 0 22 0;
#X connect 24 0 25 0;
#X connect 25 0 23 0;
#X connect 26 0 23 0;
#X connect 30 0 31 0;
#X connect 31 0 29 0;
#X connect 31 0 29 1;
#X connect 32 0 30 0;
#X connect 33 0 30 0;
#X connect 35 0 30 0;
#X connect 36 0 41 0;
#X connect 37 0 41 0;
#X connect 38 0 41 0;
#X connect 39 0 40 0;
#X connect 39 0 40 1;
#X connect 41 0 39 0;
#X connect 43 0 42 0;
#X connect 45 0 44 0;
