#N canvas 1535 130 1592 870 12;
#X obj 170 345 bng 15 250 50 0 empty empty empty 17 7 0 10 #fcfcfc #000000 #000000;
#X floatatom 86 438 5 0 0 0 - - - 0;
#X obj 96 473 osc~;
#X obj 131 570 *~;
#X obj 123 599 dac~;
#X obj 170 322 metro 150;
#X obj 169 303 tgl 15 0 empty empty empty 17 7 0 10 #fcfcfc #000000 #000000 0 1;
#X obj 86 395 random 1000;
#X floatatom 231 302 5 0 0 0 - - - 0;
#X text 105 247 randomly select a frequency;
#X obj 638 291 tgl 19 0 empty empty empty 0 -10 0 12 #fcfcfc #000000 #000000 0 1;
#X obj 638 315 metro 200;
#X obj 638 339 bng 19 250 50 0 empty empty empty 0 -10 0 12 #fcfcfc #000000 #000000;
#X obj 638 367 random 100;
#X obj 638 391 / 100;
#X floatatom 638 415 5 0 0 0 - - - 0;
#X msg 638 453 \$1 10 \, 0 200 10;
#X obj 638 477 vline~;
#X obj 528 375 osc~ 220;
#X obj 586 521 *~;
#X obj 586 595 output~;
#X text 514 252 randomly set attack volume;
#X floatatom 942 399 5 0 0 0 - - - 0;
#X obj 942 332 bng 15 250 50 0 empty empty empty 17 7 0 10 #fcfcfc #000000 #000000;
#X obj 943 514 mtof;
#X obj 943 537 osc~;
#X obj 992 706 dac~;
#X obj 1041 509 bng 15 250 50 0 empty empty empty 17 7 0 10 #fcfcfc #000000 #000000;
#X obj 940 290 tgl 15 0 empty empty empty 17 7 0 10 #fcfcfc #000000 #000000 0 1;
#X obj 940 310 metro 150;
#X obj 942 372 random 127;
#X obj 1009 589 vline~;
#X msg 1021 546 0.1 10 \, 0 100 10;
#X obj 992 635 *~;
#X floatatom 1248 441 5 0 0 0 - - - 0;
#X obj 1248 341 bng 15 250 50 0 empty empty empty 17 7 0 10 #fcfcfc #000000 #000000;
#X obj 1249 523 mtof;
#X obj 1249 546 osc~;
#X obj 1298 715 dac~;
#X obj 1347 518 bng 15 250 50 0 empty empty empty 17 7 0 10 #fcfcfc #000000 #000000;
#X obj 1246 299 tgl 15 0 empty empty empty 17 7 0 10 #fcfcfc #000000 #000000 0 1;
#X obj 1246 319 metro 150;
#X obj 1315 598 vline~;
#X msg 1327 555 0.1 10 \, 0 100 10;
#X obj 1298 644 *~;
#X obj 1248 373 random 12;
#X obj 1248 397 + 50;
#X obj 196 488 vline~;
#X msg 196 464 0.2 10 \, 0 200 10;
#X obj 166 111 random 3000;
#X text 104 57 random number between 0-2999;
#X obj 166 87 bng 15 250 50 0 empty empty empty 17 7 0 10 #fcfcfc #000000 #000000;
#X floatatom 166 134 5 0 0 0 - - - 0;
#X text 932 249 random note value using [mtof];
#X text 1239 248 random note value within one octave;
#X connect 0 0 7 0;
#X connect 0 0 48 0;
#X connect 1 0 2 0;
#X connect 2 0 3 0;
#X connect 3 0 4 0;
#X connect 3 0 4 1;
#X connect 5 0 0 0;
#X connect 6 0 5 0;
#X connect 7 0 1 0;
#X connect 8 0 5 1;
#X connect 10 0 11 0;
#X connect 11 0 12 0;
#X connect 12 0 13 0;
#X connect 13 0 14 0;
#X connect 14 0 15 0;
#X connect 15 0 16 0;
#X connect 16 0 17 0;
#X connect 17 0 19 1;
#X connect 18 0 19 0;
#X connect 19 0 20 0;
#X connect 22 0 24 0;
#X connect 22 0 27 0;
#X connect 23 0 30 0;
#X connect 24 0 25 0;
#X connect 25 0 33 0;
#X connect 27 0 32 0;
#X connect 28 0 29 0;
#X connect 29 0 23 0;
#X connect 30 0 22 0;
#X connect 31 0 33 1;
#X connect 32 0 31 0;
#X connect 33 0 26 0;
#X connect 33 0 26 1;
#X connect 34 0 36 0;
#X connect 34 0 39 0;
#X connect 35 0 45 0;
#X connect 36 0 37 0;
#X connect 37 0 44 0;
#X connect 39 0 43 0;
#X connect 40 0 41 0;
#X connect 41 0 35 0;
#X connect 42 0 44 1;
#X connect 43 0 42 0;
#X connect 44 0 38 0;
#X connect 44 0 38 1;
#X connect 45 0 46 0;
#X connect 46 0 34 0;
#X connect 47 0 3 1;
#X connect 48 0 47 0;
#X connect 49 0 52 0;
#X connect 51 0 49 0;
