#N canvas 315 221 1226 722 12;
#N canvas 0 22 450 278 (subpatch) 0;
#X array dist 100 float 3;
#A 0 47 43 46 42 47 51 39 46 52 57 61 46 53 49 53 47 60 46 60 54 50 62 51 59 62 54 57 58 65 68 82 73 80 71 74 87 78 71 86 73 79 62 83 82 66 98 115 81 91 72 67 63 69 64 78 76 63 90 72 57 71 68 84 85 72 76 63 72 68 63 77 62 54 59 48 52 66 65 43 54 50 45 62 65 45 49 42 61 54 54 45 50 51 45 48 45 49 41 52 57;
#X coords 0 100 100 0 200 140 1 0 0;
#X restore 100 20 graph;
#X msg 107 274 200;
#X obj 107 298 until;
#X obj 107 322 random 100;
#X obj 107 346 t f f;
#X obj 107 370 tabread dist;
#X obj 107 394 + 1;
#X obj 107 418 tabwrite dist;
#X text 102 235 Linear Distribution;
#X msg 371 268 200;
#X obj 371 292 until;
#X obj 371 316 t b b;
#X obj 371 340 random 100;
#X obj 404 365 random 100;
#X obj 371 400 +;
#X obj 371 424 / 2;
#X obj 367 458 t f f;
#X obj 367 482 tabread dist;
#X obj 367 506 + 1;
#X obj 367 530 tabwrite dist;
#X text 369 210 Psuedo Gaussian;
#X text 341 103 Clear Graph;
#N canvas 279 275 450 300 clearDist 0;
#X msg 126 105 100;
#X obj 126 129 t f b;
#X obj 126 153 until;
#X obj 126 177 t b b;
#X msg 126 201 0;
#X obj 126 225 tabwrite dist;
#X obj 177 197 f;
#X msg 195 166 0;
#X obj 210 197 + 1;
#X obj 128 57 inlet;
#X connect 0 0 1 0;
#X connect 1 0 2 0;
#X connect 1 1 7 0;
#X connect 2 0 3 0;
#X connect 3 0 4 0;
#X connect 3 1 6 0;
#X connect 4 0 5 0;
#X connect 6 0 5 1;
#X connect 6 0 8 0;
#X connect 7 0 6 1;
#X connect 8 0 6 1;
#X connect 9 0 0 0;
#X restore 314 131 pd clearDist;
#X obj 317 105 bng 19 250 50 0 empty empty empty 0 -10 0 12 #fcfcfc #000000 #000000;
#X text 417 425 <- average of 2 random numbers;
#X msg 709 279 200;
#X obj 709 303 until;
#X obj 709 362 random 100;
#X obj 742 383 random 100;
#X obj 742 429 +;
#X obj 698 525 t f f;
#X obj 698 549 tabread dist;
#X obj 698 573 + 1;
#X obj 698 597 tabwrite dist;
#X obj 709 327 t b b b;
#X obj 760 405 random 100;
#X obj 702 452 +;
#X obj 702 491 / 3;
#X text 748 492 <- average of 3 random numbers;
#X connect 1 0 2 0;
#X connect 2 0 3 0;
#X connect 3 0 4 0;
#X connect 4 0 5 0;
#X connect 4 1 7 1;
#X connect 5 0 6 0;
#X connect 6 0 7 0;
#X connect 9 0 10 0;
#X connect 10 0 11 0;
#X connect 11 0 12 0;
#X connect 11 1 13 0;
#X connect 12 0 14 0;
#X connect 13 0 14 1;
#X connect 14 0 15 0;
#X connect 15 0 16 0;
#X connect 16 0 17 0;
#X connect 16 1 19 1;
#X connect 17 0 18 0;
#X connect 18 0 19 0;
#X connect 23 0 22 0;
#X connect 25 0 26 0;
#X connect 26 0 34 0;
#X connect 27 0 36 0;
#X connect 28 0 29 0;
#X connect 29 0 36 1;
#X connect 30 0 31 0;
#X connect 30 1 33 1;
#X connect 31 0 32 0;
#X connect 32 0 33 0;
#X connect 34 0 27 0;
#X connect 34 1 28 0;
#X connect 34 2 35 0;
#X connect 35 0 29 1;
#X connect 36 0 37 0;
#X connect 37 0 30 0;
