#N canvas 239 38 1273 859 12;
#X obj 190 190 random 8;
#X obj 191 239 select 0 1 2 3 4 5 6 7, f 35;
#X floatatom 205 214 5 0 0 0 - - - 0;
#X obj 190 163 bng 15 250 50 0 empty empty empty 17 7 0 10 #fcfcfc #000000 #000000;
#X obj 191 266 bng 15 250 50 0 empty empty empty 17 7 0 10 #fcfcfc #000000 #000000;
#X obj 221 267 bng 15 250 50 0 empty empty empty 17 7 0 10 #fcfcfc #000000 #000000;
#X obj 251 267 bng 15 250 50 0 empty empty empty 17 7 0 10 #fcfcfc #000000 #000000;
#X obj 281 266 bng 15 250 50 0 empty empty empty 17 7 0 10 #fcfcfc #000000 #000000;
#X obj 312 267 bng 15 250 50 0 empty empty empty 17 7 0 10 #fcfcfc #000000 #000000;
#X obj 342 267 bng 15 250 50 0 empty empty empty 17 7 0 10 #fcfcfc #000000 #000000;
#X obj 372 267 bng 15 250 50 0 empty empty empty 17 7 0 10 #fcfcfc #000000 #000000;
#X obj 402 267 bng 15 250 50 0 empty empty empty 17 7 0 10 #fcfcfc #000000 #000000;
#X msg 191 286 45;
#X msg 221 317 48;
#X msg 251 286 50;
#X msg 281 317 52;
#X msg 312 286 55;
#X msg 342 317 57;
#X msg 372 285 60;
#X msg 402 317 62;
#X text 180 131 trigger specific value on random input;
#X floatatom 266 388 5 0 0 0 - - - 0;
#N canvas 0 22 450 278 (subpatch) 0;
#X array scale 7 float 3;
#A 0 2 4 5 7 9 11 12;
#X coords 0 24 7 0 200 140 1 0 0;
#X restore 89 552 graph;
#X floatatom 374 721 5 0 0 0 - - - 0;
#X floatatom 323 786 5 0 0 0 - - - 0;
#X obj 374 661 bng 15 250 50 0 empty empty empty 17 7 0 10 #fcfcfc #000000 #000000;
#X obj 323 820 + 60;
#X msg 305 586 \; scale 0 2 3 5 7 8 10 12;
#X obj 323 761 tabread scale;
#X obj 374 694 random 8;
#X msg 305 550 \; scale 0 2 4 5 7 9 11 12;
#X text 497 555 major scale;
#X text 495 598 minor scale;
#X text 83 508 select from a scale defined by intervals;
#X floatatom 323 862 5 0 0 0 - - - 0;
#X text 366 819 < set root note offset aka Transpose;
#N canvas 0 22 450 278 (subpatch) 0;
#X array stepCollection 20 float 3;
#A 0 0 0 0 1 1 1 2 2 3 4 4 5 7 7 7 9 10 10 11 0;
#X coords 0 12 20 0 200 140 1 0 0;
#X restore 1283 538 graph;
#X msg 1284 691 \; stepCollection 0 0 0 0 1 1 1 2 2 3 4 4 5 7 7 7 9 10 10 11;
#X floatatom 1305 892 5 0 0 0 - - - 0;
#X floatatom 1305 940 5 0 0 0 - - - 0;
#X obj 1305 825 bng 15 250 50 0 empty empty empty 17 7 0 10 #fcfcfc #000000 #000000;
#X obj 1305 963 + 60;
#X obj 1306 1007 mtof;
#X obj 1306 1030 osc~;
#X obj 1373 1082 line~;
#X msg 1373 1030 1 5;
#X msg 1414 1054 0 50;
#X obj 1415 1031 delay 25;
#X obj 1355 1105 *~;
#X obj 1355 1199 dac~;
#X obj 1404 1002 bng 15 250 50 0 empty empty empty 17 7 0 10 #fcfcfc #000000 #000000;
#X obj 1303 783 tgl 15 0 empty empty empty 17 7 0 10 #fcfcfc #000000 #000000 0 1;
#X obj 1303 803 metro 150;
#X obj 1305 915 tabread stepCollection;
#X obj 1305 865 random 20;
#X text 1495 535 The steps relative to the "root" that can be selected By repeating some they are more likely to occur;
#N canvas 0 22 450 278 (subpatch) 0;
#X array myNotes 20 float 3;
#A 0 2 4 5 7 9 10 12 14 16 17 19 21 22 24 26 28 31 34 36 38;
#X coords 0 40 20 0 200 140 2 0 0;
#X restore 659 539 graph;
#X floatatom 675 808 5 0 0 0 - - - 0;
#X floatatom 675 856 5 0 0 0 - - - 0;
#X obj 674 892 + 60;
#X obj 675 936 mtof;
#X obj 675 959 osc~;
#X obj 742 1011 line~;
#X msg 742 959 1 5;
#X msg 783 983 0 50;
#X obj 784 960 delay 25;
#X obj 724 1034 *~;
#X obj 724 1128 dac~;
#X obj 773 931 bng 15 250 50 0 empty empty empty 17 7 0 10 #fcfcfc #000000 #000000;
#X obj 675 831 tabread myNotes;
#X text 872 536 A collection of values can be stored in an array;
#X text 660 743 This will set the values in the array myNotes;
#X msg 662 692 \; myNotes 0 2 4 5 7 9 10 12 14 16 17 19 21 22 24 26 28 31 34 36 38, f 80;
#X floatatom 309 719 5 0 0 0 - - - 0;
#X obj 588 180 random 8;
#X obj 589 229 select 0 1 2 3 4 5 6 7, f 35;
#X floatatom 603 204 5 0 0 0 - - - 0;
#X obj 588 153 bng 15 250 50 0 empty empty empty 17 7 0 10 #fcfcfc #000000 #000000;
#X obj 589 256 bng 15 250 50 0 empty empty empty 17 7 0 10 #fcfcfc #000000 #000000;
#X obj 619 257 bng 15 250 50 0 empty empty empty 17 7 0 10 #fcfcfc #000000 #000000;
#X obj 649 257 bng 15 250 50 0 empty empty empty 17 7 0 10 #fcfcfc #000000 #000000;
#X obj 679 256 bng 15 250 50 0 empty empty empty 17 7 0 10 #fcfcfc #000000 #000000;
#X obj 710 257 bng 15 250 50 0 empty empty empty 17 7 0 10 #fcfcfc #000000 #000000;
#X obj 740 257 bng 15 250 50 0 empty empty empty 17 7 0 10 #fcfcfc #000000 #000000;
#X obj 770 257 bng 15 250 50 0 empty empty empty 17 7 0 10 #fcfcfc #000000 #000000;
#X obj 800 257 bng 15 250 50 0 empty empty empty 17 7 0 10 #fcfcfc #000000 #000000;
#X msg 610 297 45;
#X floatatom 664 378 5 0 0 0 - - - 0;
#X msg 677 295 47;
#X msg 743 296 52;
#X msg 710 295 48;
#X msg 800 295 60;
#X text 582 116 stack the deck with more possibilities for some values;
#X connect 0 0 1 0;
#X connect 0 0 2 0;
#X connect 1 0 4 0;
#X connect 1 1 5 0;
#X connect 1 2 6 0;
#X connect 1 3 7 0;
#X connect 1 4 8 0;
#X connect 1 5 9 0;
#X connect 1 6 10 0;
#X connect 1 7 11 0;
#X connect 3 0 0 0;
#X connect 4 0 12 0;
#X connect 5 0 13 0;
#X connect 6 0 14 0;
#X connect 7 0 15 0;
#X connect 8 0 16 0;
#X connect 9 0 17 0;
#X connect 10 0 18 0;
#X connect 11 0 19 0;
#X connect 12 0 21 0;
#X connect 13 0 21 0;
#X connect 14 0 21 0;
#X connect 15 0 21 0;
#X connect 16 0 21 0;
#X connect 17 0 21 0;
#X connect 18 0 21 0;
#X connect 19 0 21 0;
#X connect 23 0 28 0;
#X connect 24 0 26 0;
#X connect 25 0 29 0;
#X connect 26 0 34 0;
#X connect 28 0 24 0;
#X connect 29 0 23 0;
#X connect 38 0 53 0;
#X connect 39 0 41 0;
#X connect 40 0 54 0;
#X connect 41 0 42 0;
#X connect 41 0 50 0;
#X connect 42 0 43 0;
#X connect 43 0 48 0;
#X connect 44 0 48 1;
#X connect 45 0 44 0;
#X connect 46 0 44 0;
#X connect 47 0 46 0;
#X connect 48 0 49 0;
#X connect 48 0 49 1;
#X connect 50 0 45 0;
#X connect 50 0 47 0;
#X connect 51 0 52 0;
#X connect 52 0 40 0;
#X connect 53 0 39 0;
#X connect 54 0 38 0;
#X connect 57 0 69 0;
#X connect 58 0 59 0;
#X connect 59 0 60 0;
#X connect 59 0 68 0;
#X connect 60 0 61 0;
#X connect 61 0 66 0;
#X connect 62 0 66 1;
#X connect 63 0 62 0;
#X connect 64 0 62 0;
#X connect 65 0 64 0;
#X connect 66 0 67 0;
#X connect 66 0 67 1;
#X connect 68 0 63 0;
#X connect 68 0 65 0;
#X connect 69 0 58 0;
#X connect 73 0 28 0;
#X connect 74 0 75 0;
#X connect 74 0 76 0;
#X connect 75 0 78 0;
#X connect 75 1 79 0;
#X connect 75 2 80 0;
#X connect 75 3 81 0;
#X connect 75 4 82 0;
#X connect 75 5 83 0;
#X connect 75 6 84 0;
#X connect 75 7 85 0;
#X connect 77 0 74 0;
#X connect 78 0 86 0;
#X connect 79 0 86 0;
#X connect 80 0 86 0;
#X connect 81 0 88 0;
#X connect 82 0 90 0;
#X connect 83 0 89 0;
#X connect 84 0 91 0;
#X connect 85 0 91 0;
#X connect 86 0 87 0;
#X connect 88 0 87 0;
#X connect 89 0 87 0;
#X connect 90 0 87 0;
#X connect 91 0 87 0;
