#N canvas 103 150 1409 804 12;
#N canvas 0 22 450 278 (subpatch) 0;
#X array scale 7 float 3;
#A 0 2 4 5 7 9 11 12;
#X coords 0 24 7 0 200 140 1 0 0;
#X restore 48 587 graph;
#X msg 265 666 \; scale 0 2 3 5 7 8 10 12;
#X msg 265 628 \; scale 0 2 4 5 7 9 11 12;
#X text 446 673 Major;
#X text 447 639 Minor;
#X obj 81 166 random 3;
#X obj 81 190 - 1;
#X floatatom 81 213 5 0 0 0 - - - 0;
#X obj 81 146 bng 15 250 50 0 empty empty empty 17 7 0 10 #fcfcfc #000000 #000000;
#X obj 543 648 mtof;
#X floatatom 543 624 5 0 0 0 - - - 0;
#X obj 632 761 *~;
#X obj 620 794 dac~;
#X obj 658 696 bng 15 250 50 0 empty empty empty 17 7 0 10 #fcfcfc #000000 #000000;
#X obj 546 469 tgl 15 0 empty empty empty 17 7 0 10 #fcfcfc #000000 #000000 0 1;
#X obj 546 487 metro 200;
#N canvas 231 80 819 585 stepWise-sub-patch 0;
#X obj 240 79 random 3;
#X obj 240 103 - 1;
#X floatatom 240 126 5 0 0 0 - - - 0;
#X obj 312 51 bng 15 250 50 0 empty empty empty 17 7 0 10 #fcfcfc #000000 #000000;
#X floatatom 193 332 5 0 0 0 - - - 0;
#X obj 331 345 * 12;
#X obj 239 400 +;
#X obj 331 248 / 8;
#X obj 193 256 mod 8;
#X floatatom 331 271 5 0 0 0 - - - 0;
#X floatatom 193 279 5 0 0 0 - - - 0;
#X floatatom 244 209 5 0 0 0 - - - 0;
#X obj 331 294 i;
#X floatatom 331 322 5 0 4 0 - - - 0;
#X obj 285 165 i;
#X obj 243 183 +;
#X obj 193 308 tabread scale;
#X obj 193 354 + 48;
#X text 342 138 add / subtract from the last note played;
#X obj 305 9 inlet;
#X obj 239 423 outlet;
#X text 375 322 octave select;
#X text 469 414 TODO: constrain to a reasonable range;
#X connect 0 0 1 0;
#X connect 1 0 2 0;
#X connect 2 0 15 0;
#X connect 3 0 14 0;
#X connect 3 0 0 0;
#X connect 4 0 17 0;
#X connect 5 0 6 1;
#X connect 6 0 20 0;
#X connect 7 0 9 0;
#X connect 8 0 10 0;
#X connect 9 0 12 0;
#X connect 10 0 16 0;
#X connect 11 0 7 0;
#X connect 11 0 8 0;
#X connect 11 0 14 1;
#X connect 12 0 13 0;
#X connect 13 0 5 0;
#X connect 14 0 15 1;
#X connect 15 0 11 0;
#X connect 16 0 4 0;
#X connect 17 0 6 0;
#X connect 19 0 3 0;
#X restore 543 600 pd stepWise-sub-patch;
#N canvas 1930 284 450 300 AR-envelope-sub-patch 0;
#X obj 104 126 line~;
#X msg 104 74 1 5;
#X obj 146 75 delay 25;
#X obj 113 26 inlet;
#X obj 104 149 outlet~;
#X msg 145 98 0 150;
#X connect 0 0 4 0;
#X connect 1 0 0 0;
#X connect 2 0 5 0;
#X connect 3 0 1 0;
#X connect 3 0 2 0;
#X connect 5 0 0 0;
#X restore 658 717 pd AR-envelope-sub-patch;
#X obj 545 510 s pulse;
#X obj 543 548 r pulse;
#X obj 672 658 r pulse;
#X obj 542 678 osc~;
#X obj 1033 514 bng 15 250 50 0 empty empty empty 17 7 0 10 #fcfcfc #000000 #000000;
#X text 1103 515 reset;
#X obj 1143 516 bng 15 250 50 0 empty empty empty 17 7 0 10 #fcfcfc #000000 #000000;
#N canvas 464 73 976 300 sequenceCount 0;
#X obj 142 140 +;
#X obj 123 177 f;
#X msg 140 117 1;
#X obj 108 85 t b b;
#X msg 163 87 0;
#X floatatom 123 246 5 0 0 0 - - - 0;
#X obj 123 226 + 1;
#X obj 89 36 inlet;
#X obj 177 34 inlet;
#X obj 122 276 outlet;
#X text 13 11 send bang to step;
#X text 180 4 send bang to reset;
#X text 184 276 outputs a count between 1-16;
#X obj 123 203 mod 8;
#X connect 0 0 1 1;
#X connect 1 0 0 1;
#X connect 1 0 13 0;
#X connect 2 0 0 0;
#X connect 3 0 1 0;
#X connect 3 1 2 0;
#X connect 4 0 0 0;
#X connect 4 0 1 0;
#X connect 5 0 9 0;
#X connect 6 0 5 0;
#X connect 7 0 3 0;
#X connect 8 0 4 0;
#X connect 13 0 6 0;
#X restore 1033 556 pd sequenceCount;
#X floatatom 1033 579 5 0 0 0 - - - 0;
#X obj 1033 453 r pulse;
#X obj 1033 488 spigot;
#X obj 1094 455 tgl 15 0 empty empty empty 17 7 0 10 #fcfcfc #000000 #000000 0 1;
#X obj 1033 649 i;
#X obj 1051 628 tgl 15 0 empty empty empty 17 7 0 10 #fcfcfc #000000 #000000 0 1;
#X obj 1078 649 i;
#X obj 1096 628 tgl 15 0 empty empty empty 17 7 0 10 #fcfcfc #000000 #000000 0 1;
#X obj 1123 648 i;
#X obj 1141 628 tgl 15 0 empty empty empty 17 7 0 10 #fcfcfc #000000 #000000 0 1;
#X obj 1168 649 i;
#X obj 1186 628 tgl 15 0 empty empty empty 17 7 0 10 #fcfcfc #000000 #000000 0 1;
#X obj 1214 649 i;
#X obj 1232 628 tgl 15 0 empty empty empty 17 7 0 10 #fcfcfc #000000 #000000 0 1;
#X obj 1259 649 i;
#X obj 1277 628 tgl 15 0 empty empty empty 17 7 0 10 #fcfcfc #000000 #000000 0 1;
#X obj 1304 649 i;
#X obj 1322 628 tgl 15 0 empty empty empty 17 7 0 10 #fcfcfc #000000 #000000 0 1;
#X obj 1349 649 i;
#X obj 1367 628 tgl 15 0 empty empty empty 17 7 0 10 #fcfcfc #000000 #000000 0 1;
#X obj 1145 701 bng 15 250 50 0 empty empty empty 17 7 0 10 #fcfcfc #000000 #000000;
#N canvas 0 23 450 300 AR-envelope-sub-patch 0;
#X obj 104 126 line~;
#X msg 104 74 1 5;
#X msg 145 98 0 50;
#X obj 146 75 delay 25;
#X obj 113 26 inlet;
#X obj 104 149 outlet~;
#X connect 0 0 5 0;
#X connect 1 0 0 0;
#X connect 2 0 0 0;
#X connect 3 0 2 0;
#X connect 4 0 1 0;
#X connect 4 0 3 0;
#X restore 1145 720 pd AR-envelope-sub-patch;
#X obj 966 709 loadbang;
#X obj 973 803 -~ 0.5;
#X obj 1098 827 *~;
#X obj 1098 858 dac~;
#X obj 1033 672 sel 1;
#X obj 1077 671 sel 1;
#X obj 1123 671 sel 1;
#X obj 1168 672 sel 1;
#X obj 1214 672 sel 1;
#X obj 1259 672 sel 1;
#X obj 1304 672 sel 1;
#X obj 1349 672 sel 1;
#X obj 1033 601 sel 1 2 3 4 5 6 7 8, f 52;
#X obj 973 780 phasor~;
#X obj 552 573 bng 19 250 50 0 empty empty empty 0 -10 0 12 #fcfcfc #000000 #000000;
#X floatatom 242 214 5 0 0 0 - - - 0;
#X obj 242 147 bng 15 250 50 0 empty empty empty 17 7 0 10 #fcfcfc #000000 #000000;
#X obj 242 167 random 5;
#X obj 242 191 - 3;
#X obj 409 200 random 3;
#X obj 409 227 - 1;
#X floatatom 409 250 5 0 0 0 - - - 0;
#X obj 420 147 bng 15 250 50 0 empty empty empty 17 7 0 10 #fcfcfc #000000 #000000;
#X obj 424 330 +;
#X obj 456 289 i;
#X floatatom 424 354 5 0 0 0 - - - 0;
#X obj 420 167 t b b;
#X msg 554 237 0;
#X text 551 217 reset;
#X text 475 311 store the sum in the integer [i] add it to the next random value;
#X text 1029 411 Ostinato;
#X floatatom 508 238 5 0 0 0 - - - 0;
#X text 506 216 set;
#X msg 968 732 48;
#X obj 965 755 mtof;
#X msg 1005 733 36;
#X connect 5 0 6 0;
#X connect 6 0 7 0;
#X connect 8 0 5 0;
#X connect 9 0 21 0;
#X connect 10 0 9 0;
#X connect 11 0 12 0;
#X connect 11 0 12 1;
#X connect 13 0 17 0;
#X connect 14 0 15 0;
#X connect 15 0 18 0;
#X connect 16 0 10 0;
#X connect 17 0 11 1;
#X connect 19 0 16 0;
#X connect 19 0 62 0;
#X connect 20 0 13 0;
#X connect 21 0 11 0;
#X connect 22 0 25 0;
#X connect 24 0 25 1;
#X connect 25 0 26 0;
#X connect 26 0 60 0;
#X connect 27 0 28 0;
#X connect 28 0 22 0;
#X connect 29 0 28 1;
#X connect 30 0 52 0;
#X connect 31 0 30 1;
#X connect 32 0 53 0;
#X connect 33 0 32 1;
#X connect 34 0 54 0;
#X connect 35 0 34 1;
#X connect 36 0 55 0;
#X connect 37 0 36 1;
#X connect 38 0 56 0;
#X connect 39 0 38 1;
#X connect 40 0 57 0;
#X connect 41 0 40 1;
#X connect 42 0 58 0;
#X connect 43 0 42 1;
#X connect 44 0 59 0;
#X connect 45 0 44 1;
#X connect 46 0 47 0;
#X connect 47 0 50 1;
#X connect 48 0 81 0;
#X connect 49 0 50 0;
#X connect 50 0 51 0;
#X connect 50 0 51 1;
#X connect 52 0 46 0;
#X connect 53 0 46 0;
#X connect 54 0 46 0;
#X connect 55 0 46 0;
#X connect 56 0 46 0;
#X connect 57 0 46 0;
#X connect 58 0 46 0;
#X connect 59 0 46 0;
#X connect 60 0 30 0;
#X connect 60 1 32 0;
#X connect 60 2 34 0;
#X connect 60 3 36 0;
#X connect 60 4 38 0;
#X connect 60 5 40 0;
#X connect 60 6 42 0;
#X connect 60 7 44 0;
#X connect 61 0 49 0;
#X connect 64 0 65 0;
#X connect 65 0 66 0;
#X connect 66 0 63 0;
#X connect 67 0 68 0;
#X connect 68 0 69 0;
#X connect 69 0 71 0;
#X connect 70 0 74 0;
#X connect 71 0 72 1;
#X connect 71 0 73 0;
#X connect 72 0 71 1;
#X connect 74 0 67 0;
#X connect 74 1 72 0;
#X connect 75 0 72 0;
#X connect 79 0 72 0;
#X connect 81 0 82 0;
#X connect 82 0 61 0;
#X connect 83 0 82 0;
#X coords 0 804 1 803 85 60 0;
