#N canvas 490 75 1022 826 12;
#N canvas 0 22 450 278 (subpatch) 0;
#X array stepCollection 20 float 3;
#A 0 0 0 0 1 1 1 2 2 3 4 4 5 7 7 7 9 10 10 11 0;
#X coords 0 12 20 0 200 140 1 0 0;
#X restore 657 60 graph;
#X msg 658 213 \; stepCollection 0 0 0 0 1 1 1 2 2 3 4 4 5 7 7 7 9 10 10 11;
#X floatatom 679 414 5 0 0 0 - - - 0;
#X floatatom 679 462 5 0 0 0 - - - 0;
#X obj 679 347 bng 15 250 50 0 empty empty empty 17 7 0 10 #fcfcfc #000000 #000000;
#X obj 679 485 + 60;
#X obj 680 529 mtof;
#X obj 680 552 osc~;
#X obj 747 604 line~;
#X msg 747 552 1 5;
#X msg 788 576 0 50;
#X obj 789 553 delay 25;
#X obj 729 627 *~;
#X obj 729 721 dac~;
#X obj 778 524 bng 15 250 50 0 empty empty empty 17 7 0 10 #fcfcfc #000000 #000000;
#X obj 677 305 tgl 15 0 empty empty empty 17 7 0 10 #fcfcfc #000000 #000000 0 1;
#X obj 677 325 metro 150;
#X obj 679 437 tabread stepCollection;
#X obj 679 387 random 20;
#X text 869 57 The steps relative to the "root" that can be selected By repeating some they are more likely to occur;
#N canvas 0 22 450 278 (subpatch) 0;
#X array myNotes 20 float 3;
#A 0 2 4 5 7 9 10 12 14 16 17 19 21 22 24 26 28 31 34 36 38;
#X coords 0 40 20 0 200 140 2 0 0;
#X restore 33 61 graph;
#X floatatom 49 330 5 0 0 0 - - - 0;
#X floatatom 49 378 5 0 0 0 - - - 0;
#X obj 48 414 + 60;
#X obj 49 458 mtof;
#X obj 49 481 osc~;
#X obj 116 533 line~;
#X msg 116 481 1 5;
#X msg 157 505 0 50;
#X obj 158 482 delay 25;
#X obj 98 556 *~;
#X obj 98 650 dac~;
#X obj 147 453 bng 15 250 50 0 empty empty empty 17 7 0 10 #fcfcfc #000000 #000000;
#X obj 49 353 tabread myNotes;
#X text 246 58 A collection of values can be stored in an array;
#X msg 36 214 \; myNotes 0 2 4 5 7 9 10 12 14 16 17 19 21 22 24 26 28 31 34 36 38, f 80;
#X text 62 257 ^- This will set the values in the array myNotes;
#X connect 2 0 17 0;
#X connect 3 0 5 0;
#X connect 4 0 18 0;
#X connect 5 0 6 0;
#X connect 5 0 14 0;
#X connect 6 0 7 0;
#X connect 7 0 12 0;
#X connect 8 0 12 1;
#X connect 9 0 8 0;
#X connect 10 0 8 0;
#X connect 11 0 10 0;
#X connect 12 0 13 0;
#X connect 12 0 13 1;
#X connect 14 0 9 0;
#X connect 14 0 11 0;
#X connect 15 0 16 0;
#X connect 16 0 4 0;
#X connect 17 0 3 0;
#X connect 18 0 2 0;
#X connect 21 0 33 0;
#X connect 22 0 23 0;
#X connect 23 0 24 0;
#X connect 23 0 32 0;
#X connect 24 0 25 0;
#X connect 25 0 30 0;
#X connect 26 0 30 1;
#X connect 27 0 26 0;
#X connect 28 0 26 0;
#X connect 29 0 28 0;
#X connect 30 0 31 0;
#X connect 30 0 31 1;
#X connect 32 0 27 0;
#X connect 32 0 29 0;
#X connect 33 0 22 0;
