#N canvas 1573 136 1041 752 12;
#X obj 258 102 tgl 19 0 empty empty empty 0 -10 0 12 #fcfcfc #000000 #000000 0 1;
#X obj 566 112 loadbang;
#X msg 566 136 \; pianoPhrase 0 64 66 71 73 74 66 64 73 71 66 74 73;
#X obj 561 200 table pianoPhrase;
#X obj 197 294 bng 19 250 50 0 empty empty empty 0 -10 0 12 #fcfcfc #000000 #000000;
#X obj 182 428 vline~;
#X obj 141 382 mtof;
#X obj 141 406 osc~;
#X obj 164 476 *~;
#X obj 316 626 output~;
#X obj 258 139 sel 0;
#X obj 183 229 metro 200;
#X obj 405 220 metro 201;
#N canvas 313 304 450 300 playPhrase 0;
#X floatatom 127 153 5 0 0 0 - - - 0;
#N canvas 139 130 1284 662 counter 0;
#X obj 164 228 i;
#X obj 205 228 + 1;
#X obj 164 151 bng 19 250 50 0 empty empty empty 0 -10 0 12 #fcfcfc #000000 #000000;
#X floatatom 164 269 5 0 0 0 - - - 0;
#X msg 359 152 0;
#X text 397 150 <- Click 0 message to reset counter;
#X text 201 149 <- Click to count up;
#X obj 164 292 mod 8;
#X floatatom 164 316 5 0 0 0 - - - 0;
#X text 215 291 <- Modulo operator - remainder after division rolls any number over the value into the range specified;
#X obj 157 45 inlet;
#X obj 340 86 inlet;
#X obj 164 339 outlet;
#X obj 604 79 inlet;
#X text 649 76 rollover value;
#X connect 0 0 1 0;
#X connect 0 0 3 0;
#X connect 1 0 0 1;
#X connect 2 0 0 0;
#X connect 3 0 7 0;
#X connect 4 0 0 0;
#X connect 7 0 8 0;
#X connect 8 0 12 0;
#X connect 10 0 2 0;
#X connect 11 0 4 0;
#X connect 13 0 7 1;
#X restore 129 127 pd counter;
#X msg 221 128 11;
#X obj 127 176 tabread pianoPhrase;
#X floatatom 127 200 5 0 0 0 - - - 0;
#X obj 221 104 loadbang;
#X obj 118 73 inlet;
#X obj 192 62 inlet;
#X obj 127 223 outlet;
#X connect 0 0 3 0;
#X connect 1 0 0 0;
#X connect 2 0 1 2;
#X connect 3 0 4 0;
#X connect 4 0 8 0;
#X connect 5 0 2 0;
#X connect 6 0 1 0;
#X connect 7 0 1 1;
#X restore 183 322 pd playPhrase;
#X obj 408 430 vline~;
#X obj 367 384 mtof;
#X obj 367 408 osc~;
#X obj 390 478 *~;
#N canvas 313 304 450 300 playPhrase 0;
#X floatatom 127 153 5 0 0 0 - - - 0;
#N canvas 139 130 1284 662 counter 0;
#X obj 164 228 i;
#X obj 205 228 + 1;
#X obj 164 151 bng 19 250 50 0 empty empty empty 0 -10 0 12 #fcfcfc #000000 #000000;
#X floatatom 164 269 5 0 0 0 - - - 0;
#X msg 359 152 0;
#X text 397 150 <- Click 0 message to reset counter;
#X text 201 149 <- Click to count up;
#X obj 164 292 mod 8;
#X floatatom 164 316 5 0 0 0 - - - 0;
#X text 215 291 <- Modulo operator - remainder after division rolls any number over the value into the range specified;
#X obj 157 45 inlet;
#X obj 340 86 inlet;
#X obj 164 339 outlet;
#X obj 604 79 inlet;
#X text 649 76 rollover value;
#X connect 0 0 1 0;
#X connect 0 0 3 0;
#X connect 1 0 0 1;
#X connect 2 0 0 0;
#X connect 3 0 7 0;
#X connect 4 0 0 0;
#X connect 7 0 8 0;
#X connect 8 0 12 0;
#X connect 10 0 2 0;
#X connect 11 0 4 0;
#X connect 13 0 7 1;
#X restore 129 127 pd counter;
#X msg 221 128 11;
#X obj 127 176 tabread pianoPhrase;
#X floatatom 127 200 5 0 0 0 - - - 0;
#X obj 221 104 loadbang;
#X obj 118 73 inlet;
#X obj 192 62 inlet;
#X obj 127 223 outlet;
#X connect 0 0 3 0;
#X connect 1 0 0 0;
#X connect 2 0 1 2;
#X connect 3 0 4 0;
#X connect 4 0 8 0;
#X connect 5 0 2 0;
#X connect 6 0 1 0;
#X connect 7 0 1 1;
#X restore 409 324 pd playPhrase;
#X obj 270 176 bng 19 250 50 0 empty empty empty 0 -10 0 12 #fcfcfc #000000 #000000;
#X floatatom 466 142 5 0 0 0 - - - 0;
#X obj 466 183 + 1;
#X floatatom 481 219 5 0 0 0 - - - 0;
#X text 186 4 http://www.algorithmiccomposer.com/2010/03/piano-phase.html;
#X msg 408 406 1 5 \, 0 150 5;
#X msg 182 403 1 5 \, 0 150 5;
#X connect 0 0 10 0;
#X connect 0 0 11 0;
#X connect 0 0 12 0;
#X connect 1 0 2 0;
#X connect 4 0 13 0;
#X connect 5 0 8 1;
#X connect 6 0 7 0;
#X connect 7 0 8 0;
#X connect 8 0 9 0;
#X connect 10 0 19 0;
#X connect 11 0 13 0;
#X connect 12 0 18 0;
#X connect 13 0 6 0;
#X connect 13 0 25 0;
#X connect 14 0 17 1;
#X connect 15 0 16 0;
#X connect 16 0 17 0;
#X connect 17 0 9 1;
#X connect 18 0 15 0;
#X connect 18 0 24 0;
#X connect 19 0 13 1;
#X connect 19 0 18 1;
#X connect 20 0 11 1;
#X connect 20 0 21 0;
#X connect 21 0 12 1;
#X connect 21 0 22 0;
#X connect 24 0 14 0;
#X connect 25 0 5 0;
