#N canvas 2318 129 789 603 12;
#N canvas 1617 201 1522 733 part2 0;
#X floatatom 108 49 5 0 0 0 - - - 0;
#X floatatom 109 108 5 0 0 0 - - - 0;
#X floatatom 167 110 5 0 0 0 - - - 0;
#X obj 109 84 moses 50;
#X text 99 135 values less than the number in the creation argument come out the left outlet. greater than or equal comes out the right outlet.;
#X text 107 252 2.1 Use random with [moses] to trigger different events;
#X obj 841 74 hsl 162 19 0 100 0 0 empty empty empty -2 -10 0 12 #fcfcfc #000000 #000000 0 1;
#X floatatom 838 98 5 0 0 0 - - - 0;
#X obj 727 64 bng 19 250 50 0 empty empty empty 0 -10 0 12 #fcfcfc #000000 #000000;
#X obj 727 88 random 100;
#X floatatom 727 112 5 0 0 0 - - - 0;
#X obj 804 159 tgl 19 0 empty empty empty 0 -10 0 12 #fcfcfc #000000 #000000 0 1;
#X obj 803 135 <;
#X text 841 135 Try the slider with different values;
#X obj 804 183 sel 0 1;
#X obj 804 207 bng 19 250 50 0 empty empty empty 0 -10 0 12 #fcfcfc #000000 #000000;
#X obj 832 206 bng 19 250 50 0 empty empty empty 0 -10 0 12 #fcfcfc #000000 #000000;
#X obj 836 442 noise~;
#X obj 887 471 *~;
#X obj 923 438 vline~;
#X obj 887 495 dac~;
#X msg 923 413 0.2 5 \, 0 20 5;
#X text 678 252 2.2 Use [>] \, [<] \, [<=] \, etc. to have a slider to control chance. Connect a metro to trigger a random number and trigger the noise burst when the value is either greater or less than the slider value.;
#X connect 0 0 3 0;
#X connect 3 0 1 0;
#X connect 3 1 2 0;
#X connect 6 0 7 0;
#X connect 7 0 12 1;
#X connect 8 0 9 0;
#X connect 9 0 10 0;
#X connect 10 0 12 0;
#X connect 11 0 14 0;
#X connect 12 0 11 0;
#X connect 14 0 15 0;
#X connect 14 1 16 0;
#X connect 17 0 18 0;
#X connect 18 0 20 0;
#X connect 18 0 20 1;
#X connect 19 0 18 1;
#X connect 21 0 19 0;
#X restore 149 111 pd part2;
#N canvas 1891 212 1470 590 part1 0;
#X obj 971 193 random 8;
#X obj 972 242 select 0 1 2 3 4 5 6 7, f 35;
#X floatatom 986 217 5 0 0 0 - - - 0;
#X obj 971 166 bng 15 250 50 0 empty empty empty 17 7 0 10 #fcfcfc #000000 #000000;
#X obj 972 269 bng 15 250 50 0 empty empty empty 17 7 0 10 #fcfcfc #000000 #000000;
#X obj 1002 270 bng 15 250 50 0 empty empty empty 17 7 0 10 #fcfcfc #000000 #000000;
#X obj 1032 270 bng 15 250 50 0 empty empty empty 17 7 0 10 #fcfcfc #000000 #000000;
#X obj 1062 269 bng 15 250 50 0 empty empty empty 17 7 0 10 #fcfcfc #000000 #000000;
#X obj 1093 270 bng 15 250 50 0 empty empty empty 17 7 0 10 #fcfcfc #000000 #000000;
#X obj 1123 270 bng 15 250 50 0 empty empty empty 17 7 0 10 #fcfcfc #000000 #000000;
#X obj 1153 270 bng 15 250 50 0 empty empty empty 17 7 0 10 #fcfcfc #000000 #000000;
#X obj 1183 270 bng 15 250 50 0 empty empty empty 17 7 0 10 #fcfcfc #000000 #000000;
#X floatatom 1047 391 5 0 0 0 - - - 0;
#X obj 720 140 bng 19 250 50 0 empty empty empty 0 -10 0 12 #fcfcfc #000000 #000000;
#X obj 720 164 random 100;
#X obj 720 188 / 100;
#X floatatom 720 212 5 0 0 0 - - - 0;
#X obj 167 117 bng 19 250 50 0 empty empty empty 0 -10 0 12 #fcfcfc #000000 #000000;
#X obj 70 177 random 5000;
#X msg 168 225 0.25 10 \, 0 150 10;
#X obj 70 233 osc~ 300;
#X obj 128 302 *~;
#X obj 128 326 output~;
#X floatatom 79 201 5 0 0 0 - - - 0;
#X obj 168 254 vline~;
#X msg 419 193 0.25 10 \, 0 150 10;
#X obj 342 225 osc~ 300;
#X obj 379 270 *~;
#X obj 379 294 output~;
#X obj 419 222 vline~;
#X msg 720 254 \$1 10 \, 0 50 10;
#X text 329 78 random number between 0-11 using [+] to set base pitch;
#X text 669 83 randomized volume;
#X text 966 91 Choose from a collection of notes;
#X msg 973 289;
#X msg 1006 315;
#X msg 1032 289;
#X msg 1066 315;
#X msg 1093 289;
#X msg 1153 288;
#X msg 1127 315;
#X msg 1187 315;
#X connect 0 0 1 0;
#X connect 0 0 2 0;
#X connect 1 0 4 0;
#X connect 1 1 5 0;
#X connect 1 2 6 0;
#X connect 1 3 7 0;
#X connect 1 4 8 0;
#X connect 1 5 9 0;
#X connect 1 6 10 0;
#X connect 1 7 11 0;
#X connect 3 0 0 0;
#X connect 4 0 34 0;
#X connect 5 0 35 0;
#X connect 6 0 36 0;
#X connect 7 0 37 0;
#X connect 8 0 38 0;
#X connect 9 0 40 0;
#X connect 10 0 39 0;
#X connect 11 0 41 0;
#X connect 13 0 14 0;
#X connect 14 0 15 0;
#X connect 15 0 16 0;
#X connect 16 0 30 0;
#X connect 17 0 18 0;
#X connect 17 0 19 0;
#X connect 18 0 20 0;
#X connect 18 0 23 0;
#X connect 19 0 24 0;
#X connect 20 0 21 0;
#X connect 21 0 22 0;
#X connect 24 0 21 1;
#X connect 25 0 29 0;
#X connect 26 0 27 0;
#X connect 27 0 28 0;
#X connect 29 0 27 1;
#X connect 34 0 12 0;
#X connect 35 0 12 0;
#X connect 36 0 12 0;
#X connect 37 0 12 0;
#X connect 38 0 12 0;
#X connect 39 0 12 0;
#X connect 40 0 12 0;
#X connect 41 0 12 0;
#X restore 149 57 pd part1;
#N canvas 2068 241 450 300 part3 1;
#X text 52 20 Random Walk;
#X obj 49 100 random 3;
#X obj 49 127 - 1;
#X floatatom 49 150 5 0 0 0 - - - 0;
#X obj 60 47 bng 15 250 50 0 empty empty empty 17 7 0 10 #fcfcfc #000000 #000000;
#X obj 64 230 +;
#X obj 96 189 i;
#X floatatom 64 254 5 0 0 0 - - - 0;
#X obj 60 67 t b b;
#X msg 150 95 0;
#X text 147 75 reset;
#X text 115 211 store the sum in the integer [i] add it to the next random value;
#X connect 1 0 2 0;
#X connect 2 0 3 0;
#X connect 3 0 5 0;
#X connect 4 0 8 0;
#X connect 5 0 6 1;
#X connect 5 0 7 0;
#X connect 6 0 5 1;
#X connect 8 0 1 0;
#X connect 8 1 6 0;
#X connect 9 0 6 0;
#X restore 149 162 pd part3;
#N canvas 163 159 450 300 part4 0;
#X obj 37 37;
#X restore 150 210 pd part4;
#N canvas 192 188 450 300 part5 0;
#X restore 150 257 pd part5;
#X text 229 56 Simple Random;
#X text 231 110 Controlling Probabilities;
#X text 231 161 Random Walk;
#X text 236 212 Phasing;
#X text 233 260 Combining determinsim with chance;
