#N canvas 722 129 789 603 12;
#N canvas 47 201 1465 733 part2 1;
#X floatatom 108 49 5 0 0 0 - - - 0;
#X floatatom 109 108 5 0 0 0 - - - 0;
#X floatatom 167 110 5 0 0 0 - - - 0;
#X obj 109 84 moses 50;
#X text 99 135 values less than the number in the creation argument come out the left outlet. greater than or equal comes out the right outlet.;
#X text 107 252 2.1 Use random with [moses] to trigger different events;
#X obj 841 74 hsl 162 19 0 100 0 0 empty empty empty -2 -10 0 12 #fcfcfc #000000 #000000 0 1;
#X floatatom 838 98 5 0 0 0 - - - 0;
#X obj 727 64 bng 19 250 50 0 empty empty empty 0 -10 0 12 #fcfcfc #000000 #000000;
#X obj 727 88 random 100;
#X floatatom 727 112 5 0 0 0 - - - 0;
#X obj 804 159 tgl 19 0 empty empty empty 0 -10 0 12 #fcfcfc #000000 #000000 0 1;
#X obj 803 135 <;
#X text 841 135 Try the slider with different values;
#X obj 804 183 sel 0 1;
#X obj 804 207 bng 19 250 50 0 empty empty empty 0 -10 0 12 #fcfcfc #000000 #000000;
#X obj 832 206 bng 19 250 50 0 empty empty empty 0 -10 0 12 #fcfcfc #000000 #000000;
#X obj 836 442 noise~;
#X obj 887 471 *~;
#X obj 923 438 vline~;
#X obj 887 495 dac~;
#X msg 923 413 0.2 5 \, 0 20 5;
#X text 678 252 2.2 Use [>] \, [<] \, [<=] \, etc. to have a slider to control chance. Connect a metro to trigger a random number and trigger the noise burst when the value is either greater or less than the slider value.;
#X floatatom 161 384 5 0 0 0 - - - 0;
#X floatatom 162 443 5 0 0 0 - - - 0;
#X floatatom 310 446 5 0 0 0 - - - 0;
#X obj 162 419 moses 50;
#X obj 160 355 random 100;
#X obj 159 333 bng 19 250 50 0 empty empty empty 0 -10 0 12 #fcfcfc #000000 #000000;
#X obj 310 469 bng 19 250 50 0 empty empty empty 0 -10 0 12 #fcfcfc #000000 #000000;
#X obj 162 466 bng 19 250 50 0 empty empty empty 0 -10 0 12 #fcfcfc #000000 #000000;
#X obj 109 521 noise~;
#X obj 142 586 *~;
#X obj 159 546 vline~;
#X obj 212 675 dac~;
#X msg 159 521 0.2 5 \, 0 20 5;
#X obj 210 629 +~;
#X obj 300 583 *~;
#X obj 338 543 vline~;
#X obj 267 519 osc~ 200;
#X msg 338 518 0.2 5 \, 0 200 5;
#X obj 159 279 tgl 19 0 empty empty empty 0 -10 0 12 #fcfcfc #000000 #000000 0 1;
#X obj 159 303 metro 300;
#X connect 0 0 3 0;
#X connect 3 0 1 0;
#X connect 3 1 2 0;
#X connect 6 0 7 0;
#X connect 7 0 12 1;
#X connect 8 0 9 0;
#X connect 9 0 10 0;
#X connect 10 0 12 0;
#X connect 11 0 14 0;
#X connect 12 0 11 0;
#X connect 14 0 15 0;
#X connect 14 1 16 0;
#X connect 16 0 21 0;
#X connect 17 0 18 0;
#X connect 18 0 20 0;
#X connect 18 0 20 1;
#X connect 19 0 18 1;
#X connect 21 0 19 0;
#X connect 23 0 26 0;
#X connect 24 0 30 0;
#X connect 25 0 29 0;
#X connect 26 0 24 0;
#X connect 26 1 25 0;
#X connect 27 0 23 0;
#X connect 28 0 27 0;
#X connect 29 0 40 0;
#X connect 30 0 35 0;
#X connect 31 0 32 0;
#X connect 32 0 36 0;
#X connect 33 0 32 1;
#X connect 35 0 33 0;
#X connect 36 0 34 0;
#X connect 36 0 34 1;
#X connect 37 0 36 1;
#X connect 38 0 37 1;
#X connect 39 0 37 0;
#X connect 40 0 38 0;
#X connect 41 0 42 0;
#X connect 42 0 28 0;
#X restore 149 111 pd part2;
#N canvas 47 212 1465 590 part1 0;
#X obj 971 193 random 8;
#X obj 972 242 select 0 1 2 3 4 5 6 7, f 35;
#X floatatom 986 217 5 0 0 0 - - - 0;
#X obj 971 166 bng 15 250 50 0 empty empty empty 17 7 0 10 #fcfcfc #000000 #000000;
#X obj 972 269 bng 15 250 50 0 empty empty empty 17 7 0 10 #fcfcfc #000000 #000000;
#X obj 1002 270 bng 15 250 50 0 empty empty empty 17 7 0 10 #fcfcfc #000000 #000000;
#X obj 1032 270 bng 15 250 50 0 empty empty empty 17 7 0 10 #fcfcfc #000000 #000000;
#X obj 1062 269 bng 15 250 50 0 empty empty empty 17 7 0 10 #fcfcfc #000000 #000000;
#X obj 1093 270 bng 15 250 50 0 empty empty empty 17 7 0 10 #fcfcfc #000000 #000000;
#X obj 1123 270 bng 15 250 50 0 empty empty empty 17 7 0 10 #fcfcfc #000000 #000000;
#X obj 1153 270 bng 15 250 50 0 empty empty empty 17 7 0 10 #fcfcfc #000000 #000000;
#X obj 1183 270 bng 15 250 50 0 empty empty empty 17 7 0 10 #fcfcfc #000000 #000000;
#X floatatom 1047 391 5 0 0 0 - - - 0;
#X obj 720 140 bng 19 250 50 0 empty empty empty 0 -10 0 12 #fcfcfc #000000 #000000;
#X obj 720 164 random 100;
#X obj 720 188 / 100;
#X floatatom 720 212 5 0 0 0 - - - 0;
#X obj 167 117 bng 19 250 50 0 empty empty empty 0 -10 0 12 #fcfcfc #000000 #000000;
#X obj 70 177 random 5000;
#X msg 168 225 0.25 10 \, 0 150 10;
#X obj 70 233 osc~ 300;
#X obj 128 302 *~;
#X obj 128 326 output~;
#X floatatom 79 201 5 0 0 0 - - - 0;
#X obj 168 254 vline~;
#X msg 416 214 0.25 10 \, 0 150 10;
#X obj 339 246 osc~ 300;
#X obj 376 291 *~;
#X obj 376 315 output~;
#X obj 416 243 vline~;
#X text 179 56 random number between 0-11 using [+] to set base pitch;
#X text 669 83 randomized volume;
#X text 966 91 Choose from a collection of notes;
#X msg 973 289 60;
#X msg 1006 315 62;
#X msg 1032 289 64;
#X msg 1066 315 65;
#X msg 1093 289 66;
#X msg 1127 315 67;
#X msg 1153 288 69;
#X msg 1187 315 70;
#X obj 1047 414 mtof;
#X obj 1047 474 osc~;
#X obj 1123 443 bng 19 250 50 0 empty empty empty 0 -10 0 12 #fcfcfc #000000 #000000;
#X msg 1123 467 1 100 \, 0 500 100;
#X obj 1123 491 vline~;
#X obj 1077 539 *~;
#X obj 1077 563 output~;
#X obj 339 100 bng 19 250 50 0 empty empty empty 0 -10 0 12 #fcfcfc #000000 #000000;
#X obj 339 126 random 12;
#X obj 339 176 + 55;
#X obj 339 220 mtof;
#X floatatom 379 158 5 0 0 0 - - - 0;
#X floatatom 375 202 5 0 0 0 - - - 0;
#X obj 596 261 noise~;
#X obj 617 363 *~;
#X obj 655 275 vline~;
#X obj 618 486 output~;
#X obj 795 277 vline~;
#X obj 724 301 osc~ 80;
#X obj 731 359 *~;
#X msg 795 253 \$1 1 \, 0 500 10;
#X msg 655 251 \$1 10 \, 0 20 10;
#X obj 663 421 +~;
#X connect 0 0 1 0;
#X connect 0 0 2 0;
#X connect 1 0 4 0;
#X connect 1 1 5 0;
#X connect 1 2 6 0;
#X connect 1 3 7 0;
#X connect 1 4 8 0;
#X connect 1 5 9 0;
#X connect 1 6 10 0;
#X connect 1 7 11 0;
#X connect 3 0 0 0;
#X connect 4 0 33 0;
#X connect 5 0 34 0;
#X connect 6 0 35 0;
#X connect 7 0 36 0;
#X connect 8 0 37 0;
#X connect 9 0 38 0;
#X connect 10 0 39 0;
#X connect 11 0 40 0;
#X connect 12 0 41 0;
#X connect 13 0 14 0;
#X connect 14 0 15 0;
#X connect 15 0 16 0;
#X connect 16 0 62 0;
#X connect 16 0 61 0;
#X connect 17 0 18 0;
#X connect 17 0 19 0;
#X connect 18 0 20 0;
#X connect 18 0 23 0;
#X connect 19 0 24 0;
#X connect 20 0 21 0;
#X connect 21 0 22 0;
#X connect 24 0 21 1;
#X connect 25 0 29 0;
#X connect 26 0 27 0;
#X connect 27 0 28 0;
#X connect 29 0 27 1;
#X connect 33 0 12 0;
#X connect 34 0 12 0;
#X connect 35 0 12 0;
#X connect 36 0 12 0;
#X connect 37 0 12 0;
#X connect 38 0 12 0;
#X connect 39 0 12 0;
#X connect 40 0 12 0;
#X connect 41 0 42 0;
#X connect 42 0 46 0;
#X connect 43 0 44 0;
#X connect 44 0 45 0;
#X connect 45 0 46 1;
#X connect 46 0 47 0;
#X connect 48 0 49 0;
#X connect 49 0 50 0;
#X connect 49 0 52 0;
#X connect 50 0 51 0;
#X connect 50 0 53 0;
#X connect 51 0 26 0;
#X connect 53 0 25 0;
#X connect 54 0 55 0;
#X connect 55 0 63 0;
#X connect 56 0 55 1;
#X connect 58 0 60 1;
#X connect 59 0 60 0;
#X connect 60 0 63 1;
#X connect 61 0 58 0;
#X connect 62 0 56 0;
#X connect 63 0 57 0;
#X connect 63 0 57 1;
#X restore 149 57 pd part1;
#N canvas 316 162 1126 667 part3 0;
#X text 52 20 Random Walk;
#X obj 49 100 random 3;
#X obj 49 127 - 1;
#X floatatom 49 150 5 0 0 0 - - - 0;
#X obj 60 47 bng 15 250 50 0 empty empty empty 17 7 0 10 #fcfcfc #000000 #000000;
#X obj 64 230 +;
#X obj 96 189 i;
#X floatatom 64 254 5 0 0 0 - - - 0;
#X obj 60 67 t b b;
#X msg 150 95 0;
#X text 147 75 reset;
#X text 115 211 store the sum in the integer [i] add it to the next random value;
#N canvas 0 22 450 278 (subpatch) 0;
#X array scale 7 float 3;
#A 0 2 3 5 7 8 10 12;
#X coords 0 24 7 0 200 140 1 0 0;
#X restore 48 499 graph;
#X msg 265 578 \; scale 0 2 3 5 7 8 10 12;
#X msg 265 540 \; scale 0 2 4 5 7 9 11 12;
#X text 446 585 Major;
#X text 447 551 Minor;
#X obj 543 560 mtof;
#X floatatom 543 536 5 0 0 0 - - - 0;
#X obj 632 673 *~;
#X obj 620 706 dac~;
#X obj 658 608 bng 15 250 50 0 empty empty empty 17 7 0 10 #fcfcfc #000000 #000000;
#X obj 541 427 tgl 15 0 empty empty empty 17 7 0 10 #fcfcfc #000000 #000000 0 1;
#N canvas 59 86 819 585 stepWise-sub-patch 0;
#X obj 240 79 random 3;
#X obj 240 103 - 1;
#X floatatom 240 126 5 0 0 0 - - - 0;
#X obj 312 51 bng 15 250 50 0 empty empty empty 17 7 0 10 #fcfcfc #000000 #000000;
#X floatatom 162 335 5 0 0 0 - - - 0;
#X obj 398 349 * 12;
#X obj 239 400 +;
#X obj 398 252 / 8;
#X obj 162 259 mod 8;
#X floatatom 398 275 5 0 0 0 - - - 0;
#X floatatom 162 282 5 0 0 0 - - - 0;
#X floatatom 244 209 5 0 0 0 - - - 0;
#X obj 398 298 i;
#X floatatom 398 326 5 0 4 0 - - - 0;
#X obj 285 165 i;
#X obj 243 183 +;
#X obj 162 311 tabread scale;
#X obj 166 364 + 48;
#X text 342 138 add / subtract from the last note played;
#X obj 305 9 inlet;
#X obj 239 423 outlet;
#X text 442 326 octave select;
#X text 469 414 TODO: constrain to a reasonable range;
#X text 200 365 scale root offset;
#X obj 244 232 t i i;
#X connect 0 0 1 0;
#X connect 1 0 2 0;
#X connect 2 0 15 0;
#X connect 3 0 14 0;
#X connect 3 0 0 0;
#X connect 4 0 17 0;
#X connect 5 0 6 1;
#X connect 6 0 20 0;
#X connect 7 0 9 0;
#X connect 8 0 10 0;
#X connect 9 0 12 0;
#X connect 10 0 16 0;
#X connect 11 0 14 1;
#X connect 11 0 24 0;
#X connect 12 0 13 0;
#X connect 13 0 5 0;
#X connect 14 0 15 1;
#X connect 15 0 11 0;
#X connect 16 0 4 0;
#X connect 17 0 6 0;
#X connect 19 0 3 0;
#X connect 24 0 8 0;
#X connect 24 1 7 0;
#X restore 543 512 pd stepWise-sub-patch;
#N canvas 1930 284 450 300 AR-envelope-sub-patch 0;
#X obj 104 126 line~;
#X msg 104 74 1 5;
#X obj 146 75 delay 25;
#X obj 113 26 inlet;
#X obj 104 149 outlet~;
#X msg 145 98 0 150;
#X connect 0 0 4 0;
#X connect 1 0 0 0;
#X connect 2 0 5 0;
#X connect 3 0 1 0;
#X connect 3 0 2 0;
#X connect 5 0 0 0;
#X restore 658 629 pd AR-envelope-sub-patch;
#X obj 542 590 osc~;
#X text 270 420 3.3 Random walk around a scale;
#X floatatom 675 211 5 0 0 0 - - - 0;
#X obj 686 108 bng 15 250 50 0 empty empty empty 17 7 0 10 #fcfcfc #000000 #000000;
#X obj 690 251 +, f 5;
#X obj 722 210 i;
#X floatatom 690 275 5 0 0 0 - - - 0;
#X obj 686 128 t b b;
#X msg 748 172 0;
#X text 745 152 reset;
#X obj 675 153 random 5;
#X obj 675 188 - 2;
#X obj 684 57 tgl 19 0 empty empty empty 0 -10 0 12 #fcfcfc #000000 #000000 0 1;
#X obj 690 298 + 50;
#X text 735 298 <- start somewhere in the middle of the MIDI range;
#N canvas 47 38 713 715 fm-synth 0;
#X obj 121 360 osc~ 300;
#X floatatom 127 106 5 0 0 0 - - - 0;
#X obj 211 232 osc~;
#X floatatom 211 211 5 0 0 0 - - - 0;
#X obj 121 330 +~;
#X obj 209 299 *~;
#X text 1 107 Carrier frequency;
#X text 253 210 Modulation Frequency;
#X obj 211 182 *;
#X obj 264 281 *;
#X obj 212 155 t b f;
#X obj 279 243 t b f;
#X obj 127 65 inlet;
#X obj 239 67 inlet;
#X obj 347 86 inlet;
#X text 238 38 FM ratio;
#X text 350 50 Modulation Index;
#X text 120 39 Input freq;
#X obj 121 420 outlet~;
#X text 257 176 multiple the carrier and ratio to get the modulation frequency;
#X text 325 284 multiply the index by the modulation frequency set the amplitude of the modulation frequency;
#X connect 0 0 18 0;
#X connect 1 0 8 0;
#X connect 1 0 4 0;
#X connect 2 0 5 0;
#X connect 3 0 2 0;
#X connect 3 0 9 0;
#X connect 4 0 0 0;
#X connect 5 0 4 1;
#X connect 8 0 3 0;
#X connect 9 0 5 1;
#X connect 10 0 8 0;
#X connect 10 1 8 1;
#X connect 11 0 9 0;
#X connect 11 1 9 1;
#X connect 12 0 1 0;
#X connect 13 0 10 0;
#X connect 14 0 11 0;
#X restore 691 406 pd fm-synth;
#X obj 689 326 mtof;
#X msg 720 372 2;
#X obj 719 351 loadbang;
#X msg 764 373 5;
#X obj 839 337 bng 19 250 50 0 empty empty empty 0 -10 0 12 #fcfcfc #000000 #000000;
#X obj 795 440 *~;
#X obj 795 464 output~;
#X obj 839 385 vline~;
#X msg 839 361 1 50 \, 0 1500 50;
#X obj 684 81 metro 2000;
#X text 736 273 <- how far have we walked?;
#X text 780 210 <- each step will be either -2 \, -1 \, 0 \, 1 \, or 2;
#X text 676 26 Random walk by 1 or 2 half steps;
#X floatatom 741 56 5 0 0 0 - - - 0;
#X obj 543 482 bng 19 250 50 0 empty empty empty 0 -10 0 12 #fcfcfc #000000 #000000;
#X obj 542 451 metro 100;
#X connect 1 0 2 0;
#X connect 2 0 3 0;
#X connect 3 0 5 0;
#X connect 4 0 8 0;
#X connect 5 0 6 1;
#X connect 5 0 7 0;
#X connect 6 0 5 1;
#X connect 8 0 1 0;
#X connect 8 1 6 0;
#X connect 9 0 6 0;
#X connect 17 0 25 0;
#X connect 18 0 17 0;
#X connect 19 0 20 0;
#X connect 19 0 20 1;
#X connect 21 0 24 0;
#X connect 22 0 56 0;
#X connect 23 0 18 0;
#X connect 23 0 21 0;
#X connect 24 0 19 1;
#X connect 25 0 19 0;
#X connect 27 0 29 0;
#X connect 28 0 32 0;
#X connect 29 0 30 1;
#X connect 29 0 31 0;
#X connect 30 0 29 1;
#X connect 31 0 38 0;
#X connect 32 0 35 0;
#X connect 32 1 30 0;
#X connect 33 0 30 0;
#X connect 35 0 36 0;
#X connect 36 0 27 0;
#X connect 37 0 50 0;
#X connect 38 0 41 0;
#X connect 38 0 45 0;
#X connect 40 0 46 0;
#X connect 41 0 40 0;
#X connect 42 0 40 1;
#X connect 43 0 42 0;
#X connect 43 0 44 0;
#X connect 44 0 40 2;
#X connect 45 0 49 0;
#X connect 46 0 47 0;
#X connect 48 0 46 1;
#X connect 49 0 48 0;
#X connect 50 0 28 0;
#X connect 54 0 50 1;
#X connect 55 0 23 0;
#X connect 56 0 55 0;
#X restore 149 162 pd part3;
#N canvas 163 159 1321 728 part4 0;
#X obj 117 91 osc~ 300;
#X obj 117 269 *~;
#X obj 161 199 *~ 0.5;
#X obj 161 223 +~ 0.5;
#X obj 363 264 *~;
#X obj 407 194 *~ 0.5;
#X obj 407 218 +~ 0.5;
#X obj 224 354 +~;
#X obj 223 417 output~;
#X obj 407 170 osc~ 0.13;
#X text 160 147 slow moving volume LFO 1;
#X text 401 152 slow moving volume LFO 2;
#X obj 161 175 osc~ 0.1;
#X obj 363 107 osc~ 400;
#X text 133 28 4.1 : out of sync LFOs;
#X text 694 36 4.2 - shifting sequences;
#X obj 695 99 tgl 19 0 empty empty empty 0 -10 0 12 #fcfcfc #000000 #000000 0 1;
#X obj 695 123 metro 200;
#X obj 695 147 f;
#X obj 695 171 + 1;
#X obj 695 195 mod 8;
#X obj 962 196 mod 9;
#X obj 695 268 select 0 1 2 3 4 5 6 7;
#X obj 962 269 select 0 1 2 3 4 5 6 7 8;
#X obj 964 352 noise~;
#X obj 1020 375 vline~;
#X obj 1001 416 *~;
#X obj 854 569 output~;
#X obj 723 349 osc~ 100;
#X obj 791 374 vline~;
#X obj 772 415 *~;
#X msg 791 350 1 5 \, 0 100 5;
#X msg 1020 351 0.5 5 \, 0 20 5;
#X floatatom 709 224 5 0 0 0 - - - 0;
#X floatatom 972 222 5 0 0 0 - - - 0;
#X floatatom 772 94 5 50 1000 1 tempo - - 0;
#X obj 996 523 bob~, f 7;
#X obj 1045 453 loadbang;
#X msg 1045 477 2.5;
#X obj 1149 394 *~ 0.5;
#X obj 1149 418 +~ 0.5;
#X obj 1149 466 +~ 500;
#X obj 1149 442 *~ 5000;
#X obj 1149 370 osc~ 0.15;
#X text 695 60 See also - 07-Generative/pianoPhase.pd;
#X connect 0 0 1 0;
#X connect 1 0 7 0;
#X connect 2 0 3 0;
#X connect 3 0 1 1;
#X connect 4 0 7 1;
#X connect 5 0 6 0;
#X connect 6 0 4 1;
#X connect 7 0 8 0;
#X connect 9 0 5 0;
#X connect 12 0 2 0;
#X connect 13 0 4 0;
#X connect 16 0 17 0;
#X connect 17 0 18 0;
#X connect 18 0 19 0;
#X connect 19 0 20 0;
#X connect 19 0 18 1;
#X connect 19 0 21 0;
#X connect 20 0 22 0;
#X connect 20 0 33 0;
#X connect 21 0 23 0;
#X connect 21 0 34 0;
#X connect 22 0 31 0;
#X connect 22 2 31 0;
#X connect 22 5 31 0;
#X connect 23 0 32 0;
#X connect 23 3 32 0;
#X connect 23 6 32 0;
#X connect 23 7 32 0;
#X connect 24 0 26 0;
#X connect 25 0 26 1;
#X connect 26 0 36 0;
#X connect 28 0 30 0;
#X connect 29 0 30 1;
#X connect 30 0 27 0;
#X connect 31 0 29 0;
#X connect 32 0 25 0;
#X connect 35 0 17 1;
#X connect 36 0 27 1;
#X connect 37 0 38 0;
#X connect 38 0 36 2;
#X connect 39 0 40 0;
#X connect 40 0 42 0;
#X connect 41 0 36 1;
#X connect 42 0 41 0;
#X connect 43 0 39 0;
#X restore 150 210 pd part4;
#N canvas 192 46 972 845 part5 0;
#X obj 159 228 mod 8;
#N canvas 197 188 450 300 counter 0;
#X obj 160 116 i;
#X obj 199 117 + 1;
#X obj 160 52 bng 19 250 50 0 empty empty empty 0 -10 0 12 #fcfcfc #000000 #000000;
#X msg 191 82 0;
#X text 228 82 click to reset;
#X text 187 50 click to increment;
#X floatatom 160 140 5 0 0 0 - - - 0;
#X obj 155 17 inlet;
#X obj 225 18 inlet;
#X obj 160 186 outlet;
#X connect 0 0 1 0;
#X connect 0 0 6 0;
#X connect 1 0 0 1;
#X connect 2 0 0 0;
#X connect 3 0 0 0;
#X connect 6 0 9 0;
#X connect 7 0 2 0;
#X connect 8 0 3 0;
#X restore 159 197 pd counter;
#X obj 159 167 bng 19 250 50 0 empty empty empty 0 -10 0 12 #fcfcfc #000000 #000000;
#X obj 159 99 tgl 19 0 empty empty empty 0 -10 0 12 #fcfcfc #000000 #000000 0 1;
#X floatatom 159 262 5 0 0 0 - - - 0;
#X obj 159 285 select 0 1 2 3 4 5 6 7, f 37;
#X obj 159 326 bng 19 250 50 0 empty empty empty 0 -10 0 12 #fcfcfc #000000 #000000;
#X obj 191 326 bng 19 250 50 0 empty empty empty 0 -10 0 12 #fcfcfc #000000 #000000;
#X obj 223 326 bng 19 250 50 0 empty empty empty 0 -10 0 12 #fcfcfc #000000 #000000;
#X obj 255 326 bng 19 250 50 0 empty empty empty 0 -10 0 12 #fcfcfc #000000 #000000;
#X obj 287 325 bng 19 250 50 0 empty empty empty 0 -10 0 12 #fcfcfc #000000 #000000;
#X obj 319 325 bng 19 250 50 0 empty empty empty 0 -10 0 12 #fcfcfc #000000 #000000;
#X obj 351 325 bng 19 250 50 0 empty empty empty 0 -10 0 12 #fcfcfc #000000 #000000;
#X obj 424 354 bng 19 250 50 0 empty empty empty 0 -10 0 12 #fcfcfc #000000 #000000;
#X text 186 97 On/Off;
#X floatatom 256 125 5 0 0 0 - - - 0;
#X text 302 123 Rate;
#X text 242 196 Counter sub-patch;
#X text 244 230 Roll over at 8;
#X obj 159 137 metro 300;
#X msg 158 380 48;
#X msg 190 380 50;
#X msg 222 379 48;
#X msg 287 380 48;
#X msg 254 379 47;
#X obj 264 468 mtof;
#X floatatom 263 446 5 0 0 0 - - - 0;
#X obj 264 492 osc~;
#X obj 343 469 bng 19 250 50 0 empty empty empty 0 -10 0 12 #fcfcfc #000000 #000000;
#X obj 290 636 *~;
#X obj 290 660 output~;
#X obj 340 612 vline~;
#X msg 319 380 55;
#X msg 351 379 53;
#X floatatom 424 425 5 0 0 0 - - - 0;
#X obj 424 377 random 24;
#X obj 424 329 spigot;
#X obj 484 307 tgl 19 0 empty empty empty 0 -10 0 12 #fcfcfc #000000 #000000 0 1;
#X text 521 330 < 8th step can be turned on/off with [spigot];
#X obj 424 401 + 60;
#X text 527 398 It will be a random note within 2 octaves of 60 (C3);
#X msg 340 588 \$1 5 \, 0 150 20;
#X obj 342 506 random 50;
#X obj 342 554 + 0.5;
#X floatatom 403 564 5 0 0 0 - - - 0;
#X obj 342 530 / 100;
#X obj 942 258 mod 8;
#N canvas 197 188 450 300 counter 0;
#X obj 160 116 i;
#X obj 199 117 + 1;
#X obj 160 52 bng 19 250 50 0 empty empty empty 0 -10 0 12 #fcfcfc #000000 #000000;
#X msg 191 82 0;
#X text 228 82 click to reset;
#X text 187 50 click to increment;
#X floatatom 160 140 5 0 0 0 - - - 0;
#X obj 155 17 inlet;
#X obj 225 18 inlet;
#X obj 160 186 outlet;
#X connect 0 0 1 0;
#X connect 0 0 6 0;
#X connect 1 0 0 1;
#X connect 2 0 0 0;
#X connect 3 0 0 0;
#X connect 6 0 9 0;
#X connect 7 0 2 0;
#X connect 8 0 3 0;
#X restore 942 227 pd counter;
#X obj 942 197 bng 19 250 50 0 empty empty empty 0 -10 0 12 #fcfcfc #000000 #000000;
#X obj 942 129 tgl 19 0 empty empty empty 0 -10 0 12 #fcfcfc #000000 #000000 0 1;
#X floatatom 942 292 5 0 0 0 - - - 0;
#X obj 942 315 select 0 1 2 3 4 5 6 7, f 37;
#X obj 942 356 bng 19 250 50 0 empty empty empty 0 -10 0 12 #fcfcfc #000000 #000000;
#X obj 974 356 bng 19 250 50 0 empty empty empty 0 -10 0 12 #fcfcfc #000000 #000000;
#X obj 1006 356 bng 19 250 50 0 empty empty empty 0 -10 0 12 #fcfcfc #000000 #000000;
#X obj 1038 356 bng 19 250 50 0 empty empty empty 0 -10 0 12 #fcfcfc #000000 #000000;
#X obj 1070 355 bng 19 250 50 0 empty empty empty 0 -10 0 12 #fcfcfc #000000 #000000;
#X obj 1102 355 bng 19 250 50 0 empty empty empty 0 -10 0 12 #fcfcfc #000000 #000000;
#X obj 1134 355 bng 19 250 50 0 empty empty empty 0 -10 0 12 #fcfcfc #000000 #000000;
#X obj 1207 384 bng 19 250 50 0 empty empty empty 0 -10 0 12 #fcfcfc #000000 #000000;
#X text 969 127 On/Off;
#X floatatom 1039 155 5 0 0 0 - - - 0;
#X text 1085 153 Rate;
#X text 1025 226 Counter sub-patch;
#X text 1027 260 Roll over at 8;
#X obj 942 167 metro 300;
#X obj 1047 516 mtof;
#X floatatom 1046 457 5 0 0 0 - - - 0;
#X obj 1047 540 osc~;
#X obj 1122 519 bng 19 250 50 0 empty empty empty 0 -10 0 12 #fcfcfc #000000 #000000;
#X obj 1073 666 *~;
#X obj 1073 690 output~;
#X obj 1123 642 vline~;
#X floatatom 1207 435 5 0 0 0 - - - 0;
#X obj 1207 407 random 24;
#X obj 1207 359 spigot;
#X obj 1267 337 tgl 19 0 empty empty empty 0 -10 0 12 #fcfcfc #000000 #000000 0 1;
#X text 1304 360 < 8th step can be turned on/off with [spigot];
#X text 1310 428 It will be a random note within 2 octaves of 60 (C3);
#X msg 1123 618 \$1 5 \, 0 150 20;
#X obj 1123 540 random 50;
#X obj 1123 588 + 0.5;
#X floatatom 1186 594 5 0 0 0 - - - 0;
#X obj 1123 564 / 100;
#X msg 941 410 0;
#X msg 973 410 2;
#X msg 1005 409 3;
#X msg 1037 409 -1;
#X msg 1070 410 0;
#X msg 1102 410 7;
#X msg 1134 409 5;
#X obj 1046 493 + 48;
#X obj 1207 458 + 12;
#X connect 0 0 4 0;
#X connect 1 0 0 0;
#X connect 2 0 1 0;
#X connect 3 0 19 0;
#X connect 4 0 5 0;
#X connect 5 0 6 0;
#X connect 5 1 7 0;
#X connect 5 2 8 0;
#X connect 5 3 9 0;
#X connect 5 4 10 0;
#X connect 5 5 11 0;
#X connect 5 6 12 0;
#X connect 5 7 36 0;
#X connect 6 0 20 0;
#X connect 7 0 21 0;
#X connect 8 0 22 0;
#X connect 9 0 24 0;
#X connect 10 0 23 0;
#X connect 11 0 32 0;
#X connect 12 0 33 0;
#X connect 13 0 35 0;
#X connect 15 0 19 1;
#X connect 19 0 2 0;
#X connect 20 0 26 0;
#X connect 21 0 26 0;
#X connect 22 0 26 0;
#X connect 23 0 26 0;
#X connect 24 0 26 0;
#X connect 25 0 27 0;
#X connect 26 0 25 0;
#X connect 26 0 28 0;
#X connect 27 0 29 0;
#X connect 28 0 42 0;
#X connect 29 0 30 0;
#X connect 29 0 30 1;
#X connect 31 0 29 1;
#X connect 32 0 26 0;
#X connect 33 0 26 0;
#X connect 35 0 39 0;
#X connect 36 0 13 0;
#X connect 37 0 36 1;
#X connect 39 0 26 0;
#X connect 39 0 34 0;
#X connect 41 0 31 0;
#X connect 42 0 45 0;
#X connect 43 0 41 0;
#X connect 43 0 44 0;
#X connect 45 0 43 0;
#X connect 46 0 50 0;
#X connect 47 0 46 0;
#X connect 48 0 47 0;
#X connect 49 0 65 0;
#X connect 50 0 51 0;
#X connect 51 0 52 0;
#X connect 51 1 53 0;
#X connect 51 2 54 0;
#X connect 51 3 55 0;
#X connect 51 4 56 0;
#X connect 51 5 57 0;
#X connect 51 6 58 0;
#X connect 51 7 75 0;
#X connect 52 0 84 0;
#X connect 53 0 85 0;
#X connect 54 0 86 0;
#X connect 55 0 87 0;
#X connect 56 0 88 0;
#X connect 57 0 89 0;
#X connect 58 0 90 0;
#X connect 59 0 74 0;
#X connect 61 0 65 1;
#X connect 65 0 48 0;
#X connect 66 0 68 0;
#X connect 67 0 91 0;
#X connect 68 0 70 0;
#X connect 69 0 80 0;
#X connect 70 0 71 0;
#X connect 70 0 71 1;
#X connect 72 0 70 1;
#X connect 73 0 92 0;
#X connect 74 0 73 0;
#X connect 75 0 59 0;
#X connect 76 0 75 1;
#X connect 79 0 72 0;
#X connect 80 0 83 0;
#X connect 81 0 79 0;
#X connect 81 0 82 0;
#X connect 83 0 81 0;
#X connect 84 0 67 0;
#X connect 85 0 67 0;
#X connect 86 0 67 0;
#X connect 87 0 67 0;
#X connect 88 0 67 0;
#X connect 89 0 67 0;
#X connect 90 0 67 0;
#X connect 91 0 66 0;
#X connect 91 0 69 0;
#X connect 92 0 91 0;
#X restore 150 257 pd part5;
#X text 229 56 Simple Random;
#X text 231 110 Controlling Probabilities;
#X text 231 161 Random Walk;
#X text 236 212 Phasing;
#X text 233 260 Combining determinsim with chance;
