#N canvas 637 73 840 881 12;
#X obj 132 692 dac~;
#X floatatom 140 444 5 0 0 0 - - - 0;
#X obj 139 630 *~;
#X obj 199 517 tgl 25 0 empty empty empty 17 7 0 10 #fcfcfc #000000 #000000 0 1;
#X obj 140 471 osc~;
#X text 232 516 on/off;
#X text 181 443 frequency;
#X msg 199 581 0.1;
#X obj 199 549 sel 1 0, f 9;
#X msg 230 605 0;
#X text 276 550 <- select will output a bang to the outlets that match the input;
#X text 140 75 Simple sine wave oscillator toggle on/off by multiplying the sine wave by 0.1 or 0;
#X obj 135 406 dac~;
#X floatatom 143 158 5 0 0 0 - - - 0;
#X obj 142 344 *~;
#X obj 202 231 tgl 25 0 empty empty empty 17 7 0 10 #fcfcfc #000000 #000000 0 1;
#X obj 143 185 osc~;
#X text 201 208 on/off;
#X text 184 157 frequency;
#X text 237 234 <- Be very careful with your volume here! Take your headphones off before engaging Check your system volume \, etc.;
#X text 272 207 !!!;
#X connect 1 0 4 0;
#X connect 2 0 0 0;
#X connect 2 0 0 1;
#X connect 3 0 8 0;
#X connect 4 0 2 0;
#X connect 7 0 2 1;
#X connect 8 0 7 0;
#X connect 8 1 9 0;
#X connect 9 0 2 1;
#X connect 13 0 16 0;
#X connect 14 0 12 0;
#X connect 14 0 12 1;
#X connect 15 0 14 1;
#X connect 16 0 14 0;
