#N canvas 261 38 1251 783 12;
#X obj 573 780 dac~;
#X floatatom 360 146 5 0 0 0 - - - 0;
#X obj 575 640 *~;
#X obj 876 439 tgl 25 0 empty empty empty 17 7 0 10 #f8fc00 #000000 #000000 0 1;
#X obj 875 600 line~;
#X floatatom 983 485 5 0 0 0 - - - 0;
#X obj 877 497 sel 1 0;
#X msg 875 556 1 \$1;
#X msg 936 572 0 \$1;
#X floatatom 983 523 5 0 0 0 - - - 0;
#X text 1027 485 attack time;
#X obj 876 526 f;
#X obj 941 545 f;
#X text 906 436 on/off;
#X text 292 147 frequency;
#X obj 364 42 hsl 128 15 36 84 0 0 empty empty empty -2 -8 0 10 #fcfcfc #000000 #000000 0 1;
#X obj 359 119 mtof;
#X floatatom 360 93 5 0 0 0 - - - 0;
#X obj 360 68 i;
#X text 403 93 MIDI note number (60 = middle C);
#X obj 361 181 phasor~;
#X obj 361 271 *~;
#X obj 415 251 tgl 15 0 empty empty empty 17 7 0 10 #fcfcfc #000000 #000000 0 1;
#X obj 361 204 *~ 2;
#X obj 361 227 -~ 1;
#X obj 576 754 *~;
#X obj 706 641 vsl 15 128 0 0.2 0 0 empty empty empty 0 -9 0 10 #fcfcfc #000000 #000000 0 1;
#X floatatom 518 308 10 0 0 0 - - - 0;
#X obj 521 266 hsl 128 15 0 127 0 0 empty empty empty -2 -8 0 10 #fcfcfc #000000 #000000 0 1;
#X obj 518 285 mtof;
#X obj 241 380 lop~;
#X obj 488 406 bob~;
#X obj 252 502 *~;
#X obj 273 465 tgl 15 0 empty empty empty 17 7 0 10 #fcfcfc #000000 #000000 0 1;
#X obj 370 499 *~;
#X obj 391 462 tgl 15 0 empty empty empty 17 7 0 10 #fcfcfc #000000 #000000 0 1;
#X obj 488 502 *~;
#X obj 509 465 tgl 15 0 empty empty empty 17 7 0 10 #fcfcfc #000000 #000000 0 1;
#X obj 364 375 lop~;
#X obj 365 402 lop~;
#X obj 366 427 lop~;
#X obj 578 405 vcf~;
#X obj 585 498 *~;
#X obj 606 461 tgl 15 0 empty empty empty 17 7 0 10 #fcfcfc #000000 #000000 0 1;
#X floatatom 691 336 5 0 0 0 - - - 0;
#X obj 694 314 hsl 128 15 0 8 0 0 empty empty empty -2 -8 0 10 #fcfcfc #000000 #000000 0 1;
#X obj 675 486 *~;
#X obj 696 449 tgl 15 0 empty empty empty 17 7 0 10 #fcfcfc #000000 #000000 0 1;
#X obj 679 397 hip~;
#X obj 765 483 *~;
#X obj 786 446 tgl 15 0 empty empty empty 17 7 0 10 #fcfcfc #000000 #000000 0 1;
#X obj 769 394 bp~;
#X text 521 152 From left to right: low pass filter cascated of 3 lop's Bob Moog ladder filter "Voltage Controlled Filter" (good for audio control rate) High pass filter Band pass Filter;
#X text 519 242 Filter Cutoff;
#X text 690 292 Filter Q;
#X text 1035 526 release time;
#X obj 415 225 loadbang;
#X text 724 752 volume;
#X floatatom 706 777 5 0 0 0 - - - 0;
#X obj 706 577 loadbang;
#X msg 706 601 0.1;
#X text 362 19 note select;
#X connect 1 0 20 0;
#X connect 2 0 25 0;
#X connect 3 0 6 0;
#X connect 4 0 2 1;
#X connect 5 0 11 1;
#X connect 6 0 11 0;
#X connect 6 1 12 0;
#X connect 7 0 4 0;
#X connect 8 0 4 0;
#X connect 9 0 12 1;
#X connect 11 0 7 0;
#X connect 12 0 8 0;
#X connect 15 0 18 0;
#X connect 16 0 1 0;
#X connect 17 0 16 0;
#X connect 18 0 17 0;
#X connect 20 0 23 0;
#X connect 21 0 30 0;
#X connect 21 0 38 0;
#X connect 21 0 31 0;
#X connect 21 0 41 0;
#X connect 21 0 48 0;
#X connect 21 0 51 0;
#X connect 22 0 21 1;
#X connect 23 0 24 0;
#X connect 24 0 21 0;
#X connect 25 0 0 0;
#X connect 25 0 0 1;
#X connect 26 0 25 1;
#X connect 26 0 58 0;
#X connect 27 0 30 1;
#X connect 27 0 38 1;
#X connect 27 0 31 1;
#X connect 27 0 39 1;
#X connect 27 0 40 1;
#X connect 27 0 41 1;
#X connect 27 0 48 1;
#X connect 27 0 51 1;
#X connect 28 0 29 0;
#X connect 29 0 27 0;
#X connect 30 0 32 0;
#X connect 31 0 36 0;
#X connect 32 0 2 0;
#X connect 33 0 32 1;
#X connect 34 0 2 0;
#X connect 35 0 34 1;
#X connect 36 0 2 0;
#X connect 37 0 36 1;
#X connect 38 0 39 0;
#X connect 39 0 40 0;
#X connect 40 0 34 0;
#X connect 41 0 42 0;
#X connect 42 0 2 0;
#X connect 43 0 42 1;
#X connect 44 0 31 2;
#X connect 44 0 41 2;
#X connect 44 0 51 2;
#X connect 45 0 44 0;
#X connect 46 0 2 0;
#X connect 47 0 46 1;
#X connect 48 0 46 0;
#X connect 49 0 2 0;
#X connect 50 0 49 1;
#X connect 51 0 49 0;
#X connect 56 0 22 0;
#X connect 59 0 60 0;
#X connect 60 0 26 0;
#X coords 0 0 1 1 85 60 0;
