#N canvas 2075 192 450 300 12;
#X obj 37 37 midiin;
#X obj 149 57 notein;
#X obj 266 59 ctlin;
#X floatatom 149 81 5 0 0 0 - - - 0;
#X floatatom 169 103 5 0 0 0 - - - 0;
#X floatatom 188 129 5 0 0 0 - - - 0;
#X floatatom 266 84 5 0 0 0 - - - 0;
#X floatatom 282 110 5 0 0 0 - - - 0;
#X floatatom 299 133 5 0 0 0 - - - 0;
#X floatatom 37 61 5 0 0 0 - - - 0;
#X floatatom 77 90 5 0 0 0 - - - 0;
#X obj 29 166 print;
#X obj 30 140 spigot;
#X obj 70 113 tgl 19 0 empty empty empty 0 -10 0 12 #fcfcfc #000000 #000000 0 1;
#X connect 0 0 9 0;
#X connect 0 1 10 0;
#X connect 1 0 3 0;
#X connect 1 1 4 0;
#X connect 1 2 5 0;
#X connect 2 0 6 0;
#X connect 2 1 7 0;
#X connect 2 2 8 0;
#X connect 9 0 12 0;
#X connect 12 0 11 0;
#X connect 13 0 12 1;
