#N canvas 1552 77 1135 671 12;
#X obj 461 67 notein;
#X floatatom 340 104 5 0 0 0 - - - 0;
#X floatatom 480 109 5 0 0 0 - - - 0;
#N canvas 1862 195 790 543 square 0;
#X obj 128 98 phasor~;
#X obj 131 55 inlet~;
#X obj 128 298 outlet~;
#X obj 128 160 expr~ $v1 > 0.5;
#X obj 128 226 *~ 2;
#X obj 128 258 -~ 1;
#X text 262 165 It is above 0.5 half the time and below hte other half. This will alterrnate between 1 and 0 (true and false);
#X text 262 239 Change the square wave from going from 0 to 1 to going from -1 to 1;
#X text 254 108 Phasor counts from 0 to 1 at the specified frequency;
#X connect 0 0 3 0;
#X connect 1 0 0 0;
#X connect 3 0 4 0;
#X connect 4 0 5 0;
#X connect 5 0 2 0;
#X restore 340 190 pd square;
#X text 522 109 MIDI note velocity;
#X text 213 106 MIDI note number;
#X obj 399 376 output~;
#N canvas 2486 383 710 521 amplifier 0;
#X obj 76 81 inlet~;
#X obj 139 82 inlet;
#X obj 103 431 outlet~;
#X obj 224 335 line~;
#X obj 225 210 / 127;
#X floatatom 225 238 5 0 0 0 - - - 0;
#X obj 139 132 select 0;
#X floatatom 219 181 5 0 0 0 - - - 0;
#X obj 139 156 bng 19 250 50 0 empty empty empty 0 -10 0 12 #fcfcfc #000000 #000000;
#X msg 139 299 0 200;
#X obj 111 398 *~;
#X msg 226 270 \$1 5;
#X text 218 130 <- when velocity is 0 - turn off otherwise use it to set volume of envelope;
#X text 277 209 max vel is 127 \, this makes it a number between 0-1.;
#X text 272 272 go to vel/127 in 5ms;
#X text 244 306 go to 0 in 200 ms on release;
#X connect 0 0 10 0;
#X connect 1 0 6 0;
#X connect 3 0 10 1;
#X connect 4 0 5 0;
#X connect 5 0 11 0;
#X connect 6 0 8 0;
#X connect 6 1 7 0;
#X connect 7 0 4 0;
#X connect 8 0 9 0;
#X connect 9 0 3 0;
#X connect 10 0 2 0;
#X connect 11 0 3 0;
#X restore 399 328 pd amplifier;
#N canvas 2672 324 536 391 todo 0;
#X obj 167 20 inlet~;
#X obj 304 53 sel 0;
#X obj 304 18 inlet;
#X obj 167 361 outlet~;
#X obj 334 76 bng 19 250 50 0 empty empty empty 0 -10 0 12 #fcfcfc #000000 #000000;
#X obj 304 77 bng 19 250 50 0 empty empty empty 0 -10 0 12 #fcfcfc #000000 #000000;
#X text 214 148 create some other effect / parameter change here;
#X connect 0 0 3 0;
#X connect 1 0 5 0;
#X connect 1 1 4 0;
#X connect 2 0 1 0;
#X restore 415 232 pd todo;
#X obj 340 127 mtof;
#X connect 0 0 1 0;
#X connect 0 1 2 0;
#X connect 1 0 9 0;
#X connect 2 0 7 1;
#X connect 2 0 8 1;
#X connect 3 0 7 0;
#X connect 7 0 6 0;
#X connect 7 0 6 1;
#X connect 9 0 3 0;
