#N canvas 430 38 1082 916 12;
#X obj 184 887 noteout;
#X obj 181 841 makenote;
#X obj 130 647 t b b b;
#X obj 129 604 bng 19 250 50 0 empty empty empty 0 -10 0 12 #fcfcfc #000000 #000000;
#X floatatom 368 762 5 0 0 0 - - - 0;
#X floatatom 246 740 5 0 0 0 - - - 0;
#X obj 246 715 random 128;
#X obj 127 438 tgl 19 0 empty empty empty 0 -10 0 12 #fcfcfc #000000 #000000 0 1;
#X obj 126 464 metro 150;
#X obj 126 515 random 100;
#X obj 130 546 < 50;
#X obj 130 570 sel 1;
#X text 145 784 note;
#X msg 103 817 clear;
#X obj 368 736 + 50;
#X obj 368 710 random 50;
#X floatatom 218 527 5 0 0 0 - - - 0;
#X obj 130 713 random 12;
#X obj 130 737 + 40;
#X floatatom 130 767 5 0 0 0 - - - 0;
#X text 243 763 velocity;
#X text 261 527 % chance a note will play;
#X text 410 763 duration (ms);
#X floatatom 171 217 0 1 64 0 - - - 0;
#X floatatom 135 217 4 0 127 0 - - - 0;
#X floatatom 97 217 4 0 127 0 - - - 0;
#X text 143 267 *;
#X text 122 110 note \, velocity \, channel;
#X text 95 198 note;
#X text 135 198 vel;
#X text 171 197 ch;
#X obj 86 266 noteout;
#X msg 90 166 60 0 0;
#X text 148 165 note off;
#X floatatom 644 274 5 0 0 0 - - - 0;
#X floatatom 586 242 5 0 0 0 - - - 0;
#X msg 528 137 60;
#X text 610 131 numbers at left are "pitches" which may be integers or not., f 30;
#X text 685 274 duration in milliseconds;
#X text 663 302 creation arguments initialize velocity and duration, f 29;
#X floatatom 528 342 5 0 0 0 - - - 0;
#X floatatom 644 342 5 0 0 0 - - - 0;
#X text 627 241 "velocity" (also may be integer or not);
#X msg 583 196 stop;
#X msg 575 169 clear;
#X text 620 170 clear memory;
#X text 622 196 flush hanging note on messages;
#X msg 564 137 70.5;
#X obj 528 307 makenote 100 2500;
#X floatatom 528 182 5 0 0 0 - - - 0;
#X msg 485 102 69 127 500;
#X text 571 100 pitch \, velocity and duration;
#X obj 528 401 noteout;
#X obj 135 488 bng 19 250 50 0 empty empty empty 0 -10 0 12 #fcfcfc #000000 #000000;
#X msg 56 111 60 50 0;
#X msg 76 137 60 127 0;
#X text 147 135 different velocity;
#X text 476 53 [makenote] - automatically sends note off message after specified time;
#X text 53 55 [noteout] - send MIDI note to specified MIDI device;
#X text 121 409 A Random Note Generator;
#X text 597 403 <- when no channel is specified it will be the default which is 0 in this case.;
#X connect 1 0 0 0;
#X connect 1 1 0 1;
#X connect 2 0 17 0;
#X connect 2 1 6 0;
#X connect 2 2 15 0;
#X connect 3 0 2 0;
#X connect 4 0 1 2;
#X connect 5 0 1 1;
#X connect 6 0 5 0;
#X connect 7 0 8 0;
#X connect 8 0 9 0;
#X connect 8 0 53 0;
#X connect 9 0 10 0;
#X connect 10 0 11 0;
#X connect 11 0 3 0;
#X connect 13 0 1 0;
#X connect 14 0 4 0;
#X connect 15 0 14 0;
#X connect 16 0 10 1;
#X connect 17 0 18 0;
#X connect 18 0 19 0;
#X connect 19 0 1 0;
#X connect 23 0 31 2;
#X connect 24 0 31 1;
#X connect 25 0 31 0;
#X connect 32 0 31 0;
#X connect 34 0 48 2;
#X connect 35 0 48 1;
#X connect 36 0 49 0;
#X connect 40 0 52 0;
#X connect 41 0 52 1;
#X connect 43 0 48 0;
#X connect 44 0 48 0;
#X connect 47 0 49 0;
#X connect 48 0 40 0;
#X connect 48 1 41 0;
#X connect 49 0 48 0;
#X connect 50 0 48 0;
#X connect 54 0 31 0;
#X connect 55 0 31 0;
