#N canvas 105 101 1186 502 12;
#X obj 824 158 ctlin;
#X floatatom 821 186 5 0 0 0 - - - 0;
#X floatatom 862 186 5 0 0 0 - - - 0;
#X obj 809 78 ctlin 1;
#X obj 872 78 ctlin 2;
#X obj 944 77 ctlin 3;
#X floatatom 809 102 5 0 0 0 - - - 0;
#X floatatom 873 102 5 0 0 0 - - - 0;
#X floatatom 944 101 5 0 0 0 - - - 0;
#X obj 847 214 pack f f;
#X floatatom 847 263 5 0 0 0 - - - 0;
#X floatatom 887 264 5 0 0 0 - - - 0;
#X floatatom 928 265 5 0 0 0 - - - 0;
#X obj 100 60 midiin;
#X floatatom 100 84 5 0 0 0 - - - 0;
#X floatatom 140 110 5 0 0 0 - - - 0;
#X obj 47 201 print midiin:;
#X obj 501 68 notein;
#X floatatom 502 97 5 0 0 3 note - - 0;
#X floatatom 548 97 5 0 0 3 velocity - - 0;
#X floatatom 611 98 5 0 0 3 channel - - 0;
#X text 102 34 all MIDI messages;
#X text 506 42 MIDI note/velocity;
#X obj 847 239 route 1 2 3 4 5 6 7 8, f 47;
#X text 46 225 ^-prints raw MIDI data to console;
#X text 181 112 system exclusive - sysex messages;
#X floatatom 970 265 5 0 0 0 - - - 0;
#X floatatom 1010 266 5 0 0 0 - - - 0;
#X floatatom 1051 267 5 0 0 0 - - - 0;
#X floatatom 1091 266 5 0 0 0 - - - 0;
#X floatatom 1131 267 5 0 0 0 - - - 0;
#X text 845 296 using route unpack CC messages from CC 1 - 8;
#X obj 47 163 spigot;
#X obj 87 136 tgl 19 0 empty empty empty 0 -10 0 12 #fcfcfc #000000 #000000 0 1;
#X connect 0 0 1 0;
#X connect 0 1 2 0;
#X connect 1 0 9 1;
#X connect 2 0 9 0;
#X connect 3 0 6 0;
#X connect 4 0 7 0;
#X connect 5 0 8 0;
#X connect 9 0 23 0;
#X connect 13 0 14 0;
#X connect 13 0 32 0;
#X connect 13 1 15 0;
#X connect 17 0 18 0;
#X connect 17 1 19 0;
#X connect 17 2 20 0;
#X connect 23 0 10 0;
#X connect 23 1 11 0;
#X connect 23 2 12 0;
#X connect 23 3 26 0;
#X connect 23 4 27 0;
#X connect 23 5 28 0;
#X connect 23 6 29 0;
#X connect 23 7 30 0;
#X connect 32 0 16 0;
#X connect 33 0 32 1;
