#N canvas -192 38 1465 916 12;
#X obj 895 93 ctlin;
#X floatatom 892 121 5 0 0 0 - - - 0;
#X floatatom 933 121 5 0 0 0 - - - 0;
#X obj 657 370 ctlin 1;
#X obj 720 370 ctlin 2;
#X obj 786 370 ctlin 3;
#X floatatom 657 394 5 0 0 0 - - - 0;
#X floatatom 721 394 5 0 0 0 - - - 0;
#X floatatom 786 394 5 0 0 0 - - - 0;
#X obj 918 149 pack f f;
#X floatatom 918 198 5 0 0 0 - - - 0;
#X floatatom 958 199 5 0 0 0 - - - 0;
#X floatatom 999 200 5 0 0 0 - - - 0;
#X obj 100 60 midiin;
#X floatatom 100 84 5 0 0 0 - - - 0;
#X floatatom 140 110 5 0 0 0 - - - 0;
#X obj 47 201 print midiin:;
#X obj 97 348 notein;
#X floatatom 97 383 5 0 0 3 note - - 0;
#X floatatom 143 383 5 0 0 3 velocity - - 0;
#X floatatom 206 384 5 0 0 3 channel - - 0;
#X text 102 34 all MIDI messages;
#X text 96 327 MIDI note/velocity;
#X obj 918 174 route 1 2 3 4 5 6 7 8, f 47;
#X text 46 225 ^-prints raw MIDI data to console;
#X text 181 112 system exclusive - sysex messages;
#X floatatom 1041 200 5 0 0 0 - - - 0;
#X floatatom 1081 201 5 0 0 0 - - - 0;
#X floatatom 1122 202 5 0 0 0 - - - 0;
#X floatatom 1162 201 5 0 0 0 - - - 0;
#X floatatom 1202 202 5 0 0 0 - - - 0;
#X text 892 66 using route unpack CC messages from CC 1 - 8;
#X obj 47 163 spigot;
#X obj 87 136 tgl 19 0 empty empty empty 0 -10 0 12 #fcfcfc #000000 #000000 0 1;
#X obj 665 91 ctlin;
#X floatatom 665 131 5 0 0 3 value - - 0;
#X floatatom 706 131 5 0 0 3 CC - - 0;
#X floatatom 750 132 5 0 0 3 channel - - 0;
#X obj 656 435 ctlin 5;
#X floatatom 656 458 5 0 0 0 - - - 0;
#X floatatom 849 395 5 0 0 0 - - - 0;
#X obj 849 371 ctlin 4;
#X floatatom 722 457 5 0 0 0 - - - 0;
#X floatatom 787 457 5 0 0 0 - - - 0;
#X floatatom 850 458 5 0 0 0 - - - 0;
#X obj 721 433 ctlin 6;
#X obj 787 433 ctlin 7;
#X obj 850 434 ctlin 8;
#X text 654 313 You can use a creation argument to specify the CC number. The object now has 2 outlets \, the CC value between 0-127 and the channel between 1-16;
#X obj 659 566 ctlin 1;
#X floatatom 659 590 5 0 0 0 - - - 0;
#X obj 659 619 / 127;
#X floatatom 659 649 5 0 0 0 - - - 0;
#X text 709 619 <- this will map the CC range of 0-127 to 0-1.0;
#X text 714 678 <- multiple to put values into new range;
#X text 714 714 <- add to offset;
#X obj 659 679 * 1000;
#X obj 659 713 + 500;
#X floatatom 659 747 5 0 0 0 - - - 0;
#X text 713 748 <- scaled output;
#X text 659 539 Map the CC value to a new range:;
#X text 1251 173 <- the numbers listed in route correspond with the CC #;
#X obj 93 494 notein;
#X floatatom 93 523 5 0 0 3 note - - 0;
#X floatatom 139 523 5 0 0 3 velocity - - 0;
#X floatatom 202 524 5 0 0 3 channel - - 0;
#X text 93 471 MIDI note/velocity;
#X obj 73 577 mtof;
#X floatatom 73 610 5 0 0 0 - - - 0;
#X obj 73 643 osc~;
#X obj 139 578 / 127;
#X msg 139 627 \$1 10 \, 0 500 10;
#X floatatom 147 602 5 0 0 0 - - - 0;
#X text 194 580 <- here velocity is scaled between 0-1;
#X text 260 627 <- use that value in a volume envelope;
#X obj 102 705 *~;
#X obj 102 729 output~;
#X text 665 65 CC input;
#X obj 139 651 vline~;
#X connect 0 0 1 0;
#X connect 0 1 2 0;
#X connect 1 0 9 1;
#X connect 2 0 9 0;
#X connect 3 0 6 0;
#X connect 4 0 7 0;
#X connect 5 0 8 0;
#X connect 9 0 23 0;
#X connect 13 0 14 0;
#X connect 13 0 32 0;
#X connect 13 1 15 0;
#X connect 17 0 18 0;
#X connect 17 1 19 0;
#X connect 17 2 20 0;
#X connect 23 0 10 0;
#X connect 23 1 11 0;
#X connect 23 2 12 0;
#X connect 23 3 26 0;
#X connect 23 4 27 0;
#X connect 23 5 28 0;
#X connect 23 6 29 0;
#X connect 23 7 30 0;
#X connect 32 0 16 0;
#X connect 33 0 32 1;
#X connect 34 0 35 0;
#X connect 34 1 36 0;
#X connect 34 2 37 0;
#X connect 38 0 39 0;
#X connect 41 0 40 0;
#X connect 45 0 42 0;
#X connect 46 0 43 0;
#X connect 47 0 44 0;
#X connect 49 0 50 0;
#X connect 50 0 51 0;
#X connect 51 0 52 0;
#X connect 52 0 56 0;
#X connect 56 0 57 0;
#X connect 57 0 58 0;
#X connect 62 0 63 0;
#X connect 62 1 64 0;
#X connect 62 2 65 0;
#X connect 63 0 67 0;
#X connect 64 0 70 0;
#X connect 67 0 68 0;
#X connect 68 0 69 0;
#X connect 69 0 75 0;
#X connect 70 0 71 0;
#X connect 70 0 72 0;
#X connect 71 0 78 0;
#X connect 75 0 76 0;
#X connect 78 0 75 1;
