#N canvas 2037 265 846 536 12;
#N canvas 214 501 652 433 sawtooth~ 0;
#X obj 189 107 phasor~;
#X obj 189 130 *~ 2;
#X obj 189 153 -~ 1;
#X obj 189 60 inlet;
#X obj 189 188 outlet~;
#X connect 0 0 1 0;
#X connect 1 0 2 0;
#X connect 2 0 4 0;
#X connect 3 0 0 0;
#X restore 72 187 pd sawtooth~;
#X floatatom 72 164 5 0 0 0 - - - 0;
#X obj 183 12 notein;
#X floatatom 72 91 5 0 0 1 note - - 0;
#X obj 72 114 mtof;
#X floatatom 202 57 5 0 0 1 velocity - - 0;
#X obj 176 470 output~;
#X obj 333 181 vsl 25 128 0 1 0 0 empty empty empty 0 -9 0 10 #fcfcfc #000000 #000000 0 1;
#X floatatom 333 320 5 0 0 0 - - - 0;
#X obj 255 181 vsl 25 128 0 500 0 0 empty empty empty 0 -9 0 10 #fcfcfc #000000 #000000 0 1;
#X obj 294 180 vsl 25 128 0 500 0 0 empty empty empty 0 -9 0 10 #fcfcfc #000000 #000000 0 1;
#X obj 372 182 vsl 25 128 0 1000 0 0 empty empty empty 0 -9 0 10 #fcfcfc #000000 #000000 0 1;
#X floatatom 372 320 5 0 0 0 - - - 0;
#X floatatom 294 320 5 0 0 0 - - - 0;
#X floatatom 255 320 5 0 0 0 - - - 0;
#N canvas 1631 195 808 528 myADSR 0;
#X obj 282 141 inlet;
#X obj 332 141 inlet;
#X obj 385 130 inlet;
#X obj 439 141 inlet;
#X obj 219 343 vline~;
#X obj 219 246 pack f f f f;
#X obj 340 245 pack f f;
#X msg 341 277 0 \$2;
#X floatatom 282 165 5 0 0 0 - - - 0;
#X floatatom 332 165 5 0 0 0 - - - 0;
#X floatatom 385 154 5 0 0 0 - - - 0;
#X floatatom 439 165 5 0 0 0 - - - 0;
#X obj 219 390 outlet~;
#X msg 288 108 10;
#X msg 389 99 0.25;
#X msg 451 112 200;
#X obj 288 65 loadbang;
#X msg 335 108 100;
#X msg 219 276 \$1 \$2 \, \$4 \$3 \$2;
#X obj 187 141 sel 0;
#X obj 189 52 inlet;
#X obj 187 165 bng 19 250 50 0 empty empty empty 0 -10 0 12 #fcfcfc #000000 #000000;
#X text 10 139 anything not 0 is passed 0 triggers release;
#X text 384 277 Release;
#X obj 324 208 *;
#X obj 221 177 t f f;
#X connect 0 0 8 0;
#X connect 1 0 9 0;
#X connect 2 0 10 0;
#X connect 3 0 11 0;
#X connect 4 0 12 0;
#X connect 5 0 18 0;
#X connect 6 0 7 0;
#X connect 7 0 4 0;
#X connect 8 0 5 1;
#X connect 9 0 5 2;
#X connect 10 0 24 1;
#X connect 11 0 6 1;
#X connect 13 0 8 0;
#X connect 14 0 10 0;
#X connect 15 0 11 0;
#X connect 16 0 13 0;
#X connect 16 0 17 0;
#X connect 16 0 14 0;
#X connect 16 0 15 0;
#X connect 17 0 9 0;
#X connect 18 0 4 0;
#X connect 19 0 21 0;
#X connect 19 1 25 0;
#X connect 20 0 19 0;
#X connect 21 0 6 0;
#X connect 24 0 5 3;
#X connect 25 0 5 0;
#X connect 25 1 24 0;
#X restore 237 373 pd myADSR;
#X f 11;
#X text 267 152 A D S R;
#X obj 202 296 / 127;
#X floatatom 202 320 5 0 0 0 - - - 0;
#X obj 219 401 *~;
#X text 328 375 <- a non-zero value starts Attack \, 0 starts Release;
#X connect 0 0 19 0;
#X connect 1 0 0 0;
#X connect 2 0 3 0;
#X connect 2 1 5 0;
#X connect 3 0 4 0;
#X connect 4 0 1 0;
#X connect 5 0 17 0;
#X connect 7 0 8 0;
#X connect 8 0 15 3;
#X connect 9 0 14 0;
#X connect 10 0 13 0;
#X connect 11 0 12 0;
#X connect 12 0 15 4;
#X connect 13 0 15 2;
#X connect 14 0 15 1;
#X connect 15 0 19 1;
#X connect 17 0 18 0;
#X connect 18 0 15 0;
#X connect 19 0 6 1;
#X connect 19 0 6 0;
