#N canvas 222 167 1243 517 12;
#X obj 54 139 readsf~;
#X obj 54 190 dac~;
#X msg 68 83 1;
#X msg 71 108 0;
#X text 114 80 <- message to play;
#X text 114 108 <- message to stop;
#X text 225 51 <- specify file relative to current location.;
#X msg 54 51 open ../audio/fishy.wav;
#X obj 701 363 readsf~;
#X obj 701 414 dac~;
#X msg 678 295 1;
#X msg 726 331 0;
#X msg 709 269 open ../audio/fishy.wav;
#X text 762 333 stop;
#X obj 678 213 bng 19 250 50 0 empty empty empty 0 -10 0 12 #fcfcfc #000000 #000000;
#X obj 678 237 t b b;
#X text 726 233 automatically load file \, then trigger play;
#X text 701 212 <-- load and play;
#X obj 263 366 readsf~;
#X obj 263 417 dac~;
#X msg 240 298 1;
#X msg 288 334 0;
#X text 324 336 stop;
#X obj 240 216 bng 19 250 50 0 empty empty empty 0 -10 0 12 #fcfcfc #000000 #000000;
#X obj 240 240 t b b;
#X text 288 236 automatically load file \, then trigger play;
#X text 263 212 <-- load and play;
#X msg 271 272 open ./snare.wav;
#X text 398 274 file in same folder;
#X text 884 269 file up a folder \, then into another folder;
#X connect 0 0 1 0;
#X connect 0 0 1 1;
#X connect 2 0 0 0;
#X connect 3 0 0 0;
#X connect 7 0 0 0;
#X connect 8 0 9 0;
#X connect 8 0 9 1;
#X connect 10 0 8 0;
#X connect 11 0 8 0;
#X connect 12 0 8 0;
#X connect 14 0 15 0;
#X connect 15 0 10 0;
#X connect 15 1 12 0;
#X connect 18 0 19 0;
#X connect 18 0 19 1;
#X connect 20 0 18 0;
#X connect 21 0 18 0;
#X connect 23 0 24 0;
#X connect 24 0 20 0;
#X connect 24 1 27 0;
#X connect 27 0 18 0;
