#N canvas 309 54 950 863 12;
#X obj 187 191 tgl 25 0 empty empty empty 17 7 0 10 #fcfcfc #000000 #000000 0 1;
#X obj 381 100 vsl 25 128 0 1 0 0 empty empty empty 0 -9 0 10 #fcfcfc #000000 #000000 0 1;
#X floatatom 381 239 5 0 0 0 - - - 0;
#X obj 268 100 vsl 25 128 0 500 0 0 empty empty empty 0 -9 0 10 #fcfcfc #000000 #000000 0 1;
#X obj 325 99 vsl 25 128 0 500 0 0 empty empty empty 0 -9 0 10 #fcfcfc #000000 #000000 0 1;
#X obj 443 101 vsl 25 128 0 1000 0 0 empty empty empty 0 -9 0 10 #fcfcfc #000000 #000000 0 1;
#X floatatom 443 239 5 0 0 0 - - - 0;
#X floatatom 325 239 5 0 0 0 - - - 0;
#X floatatom 268 239 5 0 0 0 - - - 0;
#X obj 226 391 vline~;
#X obj 228 318 pack f f f f;
#X obj 187 236 sel 1 0;
#X obj 361 312 pack f f;
#X msg 362 344 0 \$2;
#X obj 153 575 *~;
#X obj 154 629 *~ 0.2;
#X obj 152 682 dac~;
#X floatatom 29 431 5 0 0 0 - - - 0;
#X text 250 71 attack;
#X text 310 71 decay;
#X text 356 72 sustain;
#X text 414 72 release;
#X msg 228 348 1 \$2 \, \$4 \$3 \$2;
#X obj 29 460 phasor~ 200;
#X obj 653 112 tgl 15 0 empty empty empty 17 7 0 10 #fcfcfc #000000 #000000 0 1;
#X obj 825 112 vsl 25 128 0 1 0 0 empty empty empty 0 -9 0 10 #fcfcfc #000000 #000000 0 1;
#X floatatom 825 251 5 0 0 0 - - - 0;
#X obj 712 112 vsl 25 128 0 500 0 0 empty empty empty 0 -9 0 10 #fcfcfc #000000 #000000 0 1;
#X obj 769 111 vsl 25 128 0 500 0 0 empty empty empty 0 -9 0 10 #fcfcfc #000000 #000000 0 1;
#X obj 887 113 vsl 25 128 0 1000 0 0 empty empty empty 0 -9 0 10 #fcfcfc #000000 #000000 0 1;
#X floatatom 887 251 5 0 0 0 - - - 0;
#X floatatom 769 251 5 0 0 0 - - - 0;
#X floatatom 712 251 5 0 0 0 - - - 0;
#X obj 677 386 *~;
#X obj 678 440 *~ 0.2;
#X obj 676 493 dac~;
#X floatatom 562 257 5 0 0 0 - - - 0;
#X text 694 83 attack;
#X text 754 83 decay;
#X text 800 84 sustain;
#X text 858 84 release;
#X obj 562 286 phasor~ 200;
#X text 549 86 note on/ note off;
#X text 735 304 ^ ADSR envelope sub-patch!;
#N canvas 1829 376 808 300 myADSR 0;
#X obj 203 141 inlet;
#X text 206 115 on/off;
#X obj 282 141 inlet;
#X obj 332 141 inlet;
#X obj 389 141 inlet;
#X obj 439 141 inlet;
#X obj 217 319 vline~;
#X obj 219 246 pack f f f f;
#X obj 219 211 sel 1 0;
#X obj 340 245 pack f f;
#X msg 341 277 0 \$2;
#X msg 219 276 1 \$2 \, \$4 \$3 \$2;
#X floatatom 282 165 5 0 0 0 - - - 0;
#X floatatom 332 165 5 0 0 0 - - - 0;
#X floatatom 389 165 5 0 0 0 - - - 0;
#X floatatom 439 165 5 0 0 0 - - - 0;
#X obj 217 366 outlet~;
#X msg 288 108 10;
#X msg 335 108 30;
#X msg 393 110 0.25;
#X msg 451 112 200;
#X obj 288 65 loadbang;
#X connect 0 0 8 0;
#X connect 2 0 12 0;
#X connect 3 0 13 0;
#X connect 4 0 14 0;
#X connect 5 0 15 0;
#X connect 6 0 16 0;
#X connect 7 0 11 0;
#X connect 8 0 7 0;
#X connect 8 1 9 0;
#X connect 9 0 10 0;
#X connect 10 0 6 0;
#X connect 11 0 6 0;
#X connect 12 0 7 1;
#X connect 13 0 7 2;
#X connect 14 0 7 3;
#X connect 15 0 9 1;
#X connect 17 0 12 0;
#X connect 18 0 13 0;
#X connect 19 0 14 0;
#X connect 20 0 15 0;
#X connect 21 0 17 0;
#X connect 21 0 18 0;
#X connect 21 0 19 0;
#X connect 21 0 20 0;
#X restore 694 282 pd myADSR;
#X f 11;
#X obj 187 267 bng 19 250 50 0 empty empty empty 0 -10 0 12 #fcfcfc #000000 #000000;
#X obj 215 268 bng 19 250 50 0 empty empty empty 0 -10 0 12 #fcfcfc #000000 #000000;
#X text 91 196 note on/off;
#X text 367 365 ^ this is sent when 0 / noteOff;
#X connect 0 0 11 0;
#X connect 1 0 2 0;
#X connect 2 0 10 3;
#X connect 3 0 8 0;
#X connect 4 0 7 0;
#X connect 5 0 6 0;
#X connect 6 0 12 1;
#X connect 7 0 10 2;
#X connect 8 0 10 1;
#X connect 9 0 14 1;
#X connect 10 0 22 0;
#X connect 11 0 45 0;
#X connect 11 1 46 0;
#X connect 12 0 13 0;
#X connect 13 0 9 0;
#X connect 14 0 15 0;
#X connect 15 0 16 0;
#X connect 15 0 16 1;
#X connect 17 0 23 0;
#X connect 22 0 9 0;
#X connect 23 0 14 0;
#X connect 24 0 44 0;
#X connect 25 0 26 0;
#X connect 26 0 44 3;
#X connect 27 0 32 0;
#X connect 28 0 31 0;
#X connect 29 0 30 0;
#X connect 30 0 44 4;
#X connect 31 0 44 2;
#X connect 32 0 44 1;
#X connect 33 0 34 0;
#X connect 34 0 35 0;
#X connect 34 0 35 1;
#X connect 36 0 41 0;
#X connect 41 0 33 0;
#X connect 44 0 33 1;
#X connect 45 0 10 0;
#X connect 46 0 12 0;
