#N canvas 1592 77 1407 853 12;
#X obj 488 641 *~;
#X obj 604 458 tgl 25 0 empty empty empty 17 7 0 10 #f8fc00 #000000 #000000 0 1;
#X text 634 455 on/off;
#X floatatom 500 281 10 0 0 0 - - - 0;
#X obj 503 239 hsl 128 15 0 127 0 0 empty empty empty -2 -8 0 10 #fcfcfc #000000 #000000 0 1;
#X obj 500 258 mtof;
#X obj 488 406 bob~;
#X floatatom 584 358 5 0 0 0 - - - 0;
#X obj 587 336 hsl 128 15 0 8 0 0 empty empty empty -2 -8 0 10 #fcfcfc #000000 #000000 0 1;
#X text 501 215 Filter Cutoff;
#X text 583 314 Filter Q;
#X obj 482 686 dac~;
#N canvas 134 130 706 490 sawSynth 1;
#X floatatom 110 173 5 0 0 0 - - - 0;
#X text 151 174 frequency;
#X obj 109 146 mtof;
#X obj 111 208 phasor~;
#X obj 111 231 *~ 2;
#X obj 111 254 -~ 1;
#X obj 109 64 loadbang;
#X msg 109 88 64;
#X floatatom 109 112 5 0 0 0 - - - 0;
#X obj 111 298 outlet~;
#X obj 58 57 inlet;
#X connect 0 0 3 0;
#X connect 2 0 0 0;
#X connect 3 0 4 0;
#X connect 4 0 5 0;
#X connect 5 0 9 0;
#X connect 6 0 7 0;
#X connect 7 0 8 0;
#X connect 8 0 2 0;
#X connect 10 0 3 0;
#X restore 444 163 pd sawSynth;
#X floatatom 444 132 5 0 0 0 - - - 0;
#X text 485 131 frequency;
#X text 536 162 sawtooth waveform;
#X floatatom 731 479 5 0 0 0 - - - 0;
#X floatatom 731 517 5 0 0 0 - - - 0;
#X text 775 479 attack time;
#X text 783 520 release time;
#N canvas 1751 193 524 475 AR-envelope 1;
#X obj 128 222 line~;
#X obj 131 93 sel 1 0;
#X msg 128 178 1 \$1;
#X msg 215 193 0 \$1;
#X obj 129 148 f;
#X obj 220 166 f;
#X obj 131 51 inlet;
#X obj 128 294 outlet~;
#X obj 206 17 inlet;
#X obj 278 69 inlet;
#X text 23 53 toggle on/off;
#X text 250 17 attack time;
#X text 324 68 decay time;
#X obj 331 100 loadbang;
#X msg 337 153 100;
#X msg 299 128 10;
#X text 376 135 initial values;
#X connect 0 0 7 0;
#X connect 1 0 4 0;
#X connect 1 1 5 0;
#X connect 2 0 0 0;
#X connect 3 0 0 0;
#X connect 4 0 2 0;
#X connect 5 0 3 0;
#X connect 6 0 1 0;
#X connect 8 0 4 1;
#X connect 9 0 5 1;
#X connect 13 0 14 0;
#X connect 13 0 15 0;
#X connect 14 0 5 1;
#X connect 15 0 4 1;
#X restore 608 544 pd AR-envelope;
#X connect 0 0 11 0;
#X connect 0 0 11 1;
#X connect 1 0 20 0;
#X connect 3 0 6 1;
#X connect 4 0 5 0;
#X connect 5 0 3 0;
#X connect 6 0 0 0;
#X connect 7 0 6 2;
#X connect 8 0 7 0;
#X connect 12 0 6 0;
#X connect 13 0 12 0;
#X connect 16 0 20 1;
#X connect 17 0 20 2;
#X connect 20 0 0 1;
