#N canvas 490 75 1022 826 12;
#N canvas 0 22 450 278 (subpatch) 0;
#X array stepCollection 20 float 3;
#A 0 0 0 0 1 1 1 2 2 3 4 4 5 7 7 7 9 10 10 11 0;
#X coords 0 12 20 0 200 140 1 0 0;
#X restore 657 60 graph;
#X msg 658 213 \; stepCollection 0 0 0 0 1 1 1 2 2 3 4 4 5 7 7 7 9 10 10 11;
#X floatatom 679 414 5 0 0 0 - - - 0;
#X floatatom 679 462 5 0 0 0 - - - 0;
#X obj 679 347 bng 15 250 50 0 empty empty empty 17 7 0 10 #fcfcfc #000000 #000000;
#X obj 679 485 + 60;
#X obj 680 529 mtof;
#X obj 680 552 osc~;
#X obj 747 604 line~;
#X msg 747 552 1 5;
#X msg 788 576 0 50;
#X obj 789 553 delay 25;
#X obj 729 627 *~;
#X obj 729 721 dac~;
#X obj 778 524 bng 15 250 50 0 empty empty empty 17 7 0 10 #fcfcfc #000000 #000000;
#X obj 677 305 tgl 15 0 empty empty empty 17 7 0 10 #fcfcfc #000000 #000000 0 1;
#X obj 677 325 metro 150;
#X obj 679 437 tabread stepCollection;
#X obj 679 387 random 20;
#X text 869 57 The steps relative to the "root" that can be selected By repeating some they are more likely to occur;
#N canvas 0 22 450 278 (subpatch) 0;
#X array myNotes 20 float 3;
#A 0 78.7428 77.1714 74.6571 72.4571 69.6285 68.3714 65.5428 64.2857 61.4571 58.6285 55.8 52.3428 49.8286 47.3143 44.4857 41.9714 38.5143 36.9429 34.4286 31.2857;
#X coords 0 36 20 80 200 140 1 0 0;
#X restore 33 61 graph;
#X floatatom 56 415 5 0 0 0 - - - 0;
#X floatatom 56 463 5 0 0 0 - - - 0;
#X obj 56 348 bng 15 250 50 0 empty empty empty 17 7 0 10 #fcfcfc #000000 #000000;
#X obj 56 486 + 60;
#X obj 57 530 mtof;
#X obj 57 553 osc~;
#X obj 124 605 line~;
#X msg 124 553 1 5;
#X msg 165 577 0 50;
#X obj 166 554 delay 25;
#X obj 106 628 *~;
#X obj 106 722 dac~;
#X obj 155 525 bng 15 250 50 0 empty empty empty 17 7 0 10 #fcfcfc #000000 #000000;
#X obj 54 306 tgl 15 0 empty empty empty 17 7 0 10 #fcfcfc #000000 #000000 0 1;
#X obj 54 326 metro 150;
#X obj 56 388 random 20;
#X text 246 58 The steps relative to the "root" that can be selected By repeating some they are more likely to occur;
#X msg 35 214 \; myNotes 39 41 43 45 46 48 51 53 55 57 58 60 63 65 67 69 70 72 75 77, f 80;
#X obj 56 438 tabread myNotes;
#X connect 2 0 17 0;
#X connect 3 0 5 0;
#X connect 4 0 18 0;
#X connect 5 0 6 0;
#X connect 5 0 14 0;
#X connect 6 0 7 0;
#X connect 7 0 12 0;
#X connect 8 0 12 1;
#X connect 9 0 8 0;
#X connect 10 0 8 0;
#X connect 11 0 10 0;
#X connect 12 0 13 0;
#X connect 12 0 13 1;
#X connect 14 0 9 0;
#X connect 14 0 11 0;
#X connect 15 0 16 0;
#X connect 16 0 4 0;
#X connect 17 0 3 0;
#X connect 18 0 2 0;
#X connect 21 0 39 0;
#X connect 22 0 24 0;
#X connect 23 0 36 0;
#X connect 24 0 25 0;
#X connect 24 0 33 0;
#X connect 25 0 26 0;
#X connect 26 0 31 0;
#X connect 27 0 31 1;
#X connect 28 0 27 0;
#X connect 29 0 27 0;
#X connect 30 0 29 0;
#X connect 31 0 32 0;
#X connect 31 0 32 1;
#X connect 33 0 28 0;
#X connect 33 0 30 0;
#X connect 34 0 35 0;
#X connect 35 0 23 0;
#X connect 36 0 21 0;
#X connect 39 0 22 0;
