#N canvas 105 38 828 671 12;
#X obj 220 9 notein;
#X floatatom 211 54 5 0 0 0 - - - 0;
#X floatatom 239 31 5 0 0 0 - - - 0;
#X floatatom 338 11 5 0 0 0 - - - 0;
#N canvas 0 23 790 543 square 0;
#X obj 128 98 phasor~;
#X obj 131 55 inlet~;
#X obj 128 298 outlet~;
#X obj 128 160 expr~ $v1 > 0.5;
#X obj 128 226 *~ 2;
#X obj 128 258 -~ 1;
#X text 262 165 It is above 0.5 half the time and below hte other half. This will alterrnate between 1 and 0 (true and false);
#X text 262 239 Change the square wave from going from 0 to 1 to going from -1 to 1;
#X text 254 108 Phasor counts from 0 to 1 at the specified frequency;
#X connect 0 0 3 0;
#X connect 1 0 0 0;
#X connect 3 0 4 0;
#X connect 4 0 5 0;
#X connect 5 0 2 0;
#X restore 217 229 pd square;
#X obj 218 205 mtof;
#X text 281 31 MIDI note velocity;
#X text 95 53 MIDI note number;
#X text 380 11 MIDI channel;
#X obj 389 305 line~;
#X obj 390 180 / 127;
#X obj 390 204 * 0.5;
#X floatatom 390 228 5 0 0 0 - - - 0;
#X obj 304 102 select 0;
#X floatatom 384 151 5 0 0 0 - - - 0;
#X obj 304 126 bng 19 250 50 0 empty empty empty 0 -10 0 12 #fcfcfc #000000 #000000;
#X msg 304 174 0 200;
#X obj 280 356 *~;
#X obj 280 380 output~;
#X msg 391 260 \$1 5;
#X msg 220 125 \$1 100;
#X obj 220 149 line;
#X text 383 100 <- when velocity is 0 - turn off otherwise use it to set volume of envelope;
#X text 442 179 max vel is 127 \, this makes it a number between 0-1.;
#X text 439 206 this cuts it in half;
#X connect 0 0 1 0;
#X connect 0 1 2 0;
#X connect 0 2 3 0;
#X connect 1 0 20 0;
#X connect 2 0 13 0;
#X connect 4 0 17 0;
#X connect 5 0 4 0;
#X connect 9 0 17 1;
#X connect 10 0 11 0;
#X connect 11 0 12 0;
#X connect 12 0 19 0;
#X connect 13 0 15 0;
#X connect 13 1 14 0;
#X connect 14 0 10 0;
#X connect 15 0 16 0;
#X connect 16 0 9 0;
#X connect 17 0 18 0;
#X connect 19 0 9 0;
#X connect 20 0 21 0;
#X connect 21 0 5 0;
