#N canvas 262 146 1269 814 12;
#X obj 166 64 noise~;
#X obj 167 185 *~;
#X obj 346 50 bng 19 250 50 0 empty empty empty 0 -10 0 12 #fcfcfc #000000 #000000;
#X obj 346 150 line~;
#X msg 415 122 0 5;
#X floatatom 190 327 5 0 0 0 - - - 0;
#X obj 244 400 hsl 162 19 0 127 0 0 empty empty empty -2 -10 0 12 #fcfcfc #000000 #000000 0 1;
#X obj 241 424 / 127;
#X floatatom 241 448 5 0 0 0 - - - 0;
#X obj 104 522 dac~;
#X obj 190 356 delread~ MYDELAY 100;
#X obj 168 274 delwrite~ MYDELAY 1000;
#X obj 190 237 receive~ del_fb;
#X obj 192 495 send~ del_fb;
#X obj 415 98 pipe 10;
#X msg 346 91 0.25 1;
#X text 232 326 delay time (ms);
#X text 412 400 feedback amount;
#X text 305 236 from the delay buffer below;
#X text 374 49 Trigger an AD envelope;
#X text 342 357 <- initial delay of 100 ms;
#X text 105 547 ^- we hear both the initial sound and the delayed version;
#X text 336 273 <- holds 1000 ms (1 sec) of audio;
#X obj 191 471 *~ 0.95;
#X obj 666 392 rev2~, f 16;
#X obj 667 330 rev1~;
#X obj 667 460 rev3~, f 22;
#X text 666 265 The built in reverbs use feedback in novel ways to model a simple digital reverb;
#X connect 0 0 1 0;
#X connect 1 0 11 0;
#X connect 1 0 9 0;
#X connect 1 0 9 1;
#X connect 2 0 15 0;
#X connect 2 0 14 0;
#X connect 3 0 1 1;
#X connect 4 0 3 0;
#X connect 5 0 10 0;
#X connect 6 0 7 0;
#X connect 7 0 8 0;
#X connect 8 0 23 1;
#X connect 10 0 9 0;
#X connect 10 0 9 1;
#X connect 10 0 23 0;
#X connect 12 0 11 0;
#X connect 14 0 4 0;
#X connect 15 0 3 0;
#X connect 23 0 13 0;
