#N canvas 47 38 1465 916 12;
#X obj 159 228 mod 8;
#N canvas 197 188 450 300 counter 0;
#X obj 160 116 i;
#X obj 199 117 + 1;
#X obj 160 52 bng 19 250 50 0 empty empty empty 0 -10 0 12 #fcfcfc #000000 #000000;
#X msg 191 82 0;
#X text 228 82 click to reset;
#X text 187 50 click to increment;
#X floatatom 160 140 5 0 0 0 - - - 0;
#X obj 155 17 inlet;
#X obj 225 18 inlet;
#X obj 160 186 outlet;
#X connect 0 0 1 0;
#X connect 0 0 6 0;
#X connect 1 0 0 1;
#X connect 2 0 0 0;
#X connect 3 0 0 0;
#X connect 6 0 9 0;
#X connect 7 0 2 0;
#X connect 8 0 3 0;
#X restore 159 197 pd counter;
#X obj 159 167 bng 19 250 50 0 empty empty empty 0 -10 0 12 #fcfcfc #000000 #000000;
#X obj 159 99 tgl 19 0 empty empty empty 0 -10 0 12 #fcfcfc #000000 #000000 0 1;
#X floatatom 159 256 5 0 0 0 - - - 0;
#X obj 159 285 select 0 1 2 3 4 5 6 7, f 51;
#X obj 159 326 bng 19 250 50 0 empty empty empty 0 -10 0 12 #fcfcfc #000000 #000000;
#X obj 201 326 bng 19 250 50 0 empty empty empty 0 -10 0 12 #fcfcfc #000000 #000000;
#X obj 247 326 bng 19 250 50 0 empty empty empty 0 -10 0 12 #fcfcfc #000000 #000000;
#X obj 291 327 bng 19 250 50 0 empty empty empty 0 -10 0 12 #fcfcfc #000000 #000000;
#X obj 336 328 bng 19 250 50 0 empty empty empty 0 -10 0 12 #fcfcfc #000000 #000000;
#X obj 380 326 bng 19 250 50 0 empty empty empty 0 -10 0 12 #fcfcfc #000000 #000000;
#X obj 424 326 bng 19 250 50 0 empty empty empty 0 -10 0 12 #fcfcfc #000000 #000000;
#X obj 468 326 bng 19 250 50 0 empty empty empty 0 -10 0 12 #fcfcfc #000000 #000000;
#X text 186 97 On/Off;
#X floatatom 256 125 5 0 0 0 - - - 0;
#X text 302 123 Rate;
#X text 242 196 Counter sub-patch;
#X text 244 230 Roll over at 8;
#X floatatom 171 461 5 0 0 0 - - - 0;
#X obj 171 484 mtof;
#X obj 169 907 output~;
#X msg 246 359 64;
#X msg 289 359 65;
#X msg 335 359 67;
#X msg 378 359 69;
#X msg 424 359 71;
#X msg 467 359 72;
#X floatatom 482 500 5 0 0 0 - - - 0;
#X floatatom 481 527 5 0 0 0 - - - 0;
#X text 526 500 attack time;
#X floatatom 481 552 5 0 0 0 - - - 0;
#X obj 343 535 bng 25 250 50 0 empty empty empty 17 7 0 10 #fcfcfc #000000 #000000;
#X text 340 510 trigger;
#N canvas 0 25 706 475 AR-envelope-auto 0;
#X obj 132 300 line~;
#X msg 199 263 0 \$1;
#X obj 133 226 f;
#X obj 204 236 f;
#X obj 128 35 inlet;
#X obj 132 372 outlet~;
#X obj 206 31 inlet;
#X obj 344 20 inlet;
#X text 206 12 attack time;
#X obj 331 114 loadbang;
#X msg 337 167 100;
#X msg 299 142 10;
#X text 376 149 initial values;
#X obj 201 122 delay 100;
#X text 115 13 trigger;
#X obj 475 36 inlet;
#X text 474 14 on/sustain time;
#X msg 132 256 0.1 \$1;
#X obj 290 49 t b f;
#X obj 259 91 +;
#X text 343 -1 release time;
#X connect 0 0 5 0;
#X connect 1 0 0 0;
#X connect 2 0 17 0;
#X connect 3 0 1 0;
#X connect 4 0 13 0;
#X connect 4 0 2 0;
#X connect 6 0 2 1;
#X connect 6 0 19 0;
#X connect 7 0 3 1;
#X connect 9 0 10 0;
#X connect 9 0 11 0;
#X connect 10 0 3 1;
#X connect 11 0 2 1;
#X connect 11 0 19 0;
#X connect 13 0 3 0;
#X connect 15 0 18 0;
#X connect 17 0 0 0;
#X connect 18 0 19 0;
#X connect 18 1 19 1;
#X connect 19 0 13 1;
#X restore 343 570 pd AR-envelope-auto;
#X text 533 530 release time;
#X text 533 555 release delay;
#X obj 169 630 *~;
#N canvas 134 130 706 490 sawSynth 0;
#X floatatom 110 173 5 0 0 0 - - - 0;
#X text 151 174 frequency;
#X obj 109 146 mtof;
#X obj 111 208 phasor~;
#X obj 111 231 *~ 2;
#X obj 111 254 -~ 1;
#X obj 109 64 loadbang;
#X msg 109 88 64;
#X floatatom 109 112 5 0 0 0 - - - 0;
#X obj 111 298 outlet~;
#X obj 58 57 inlet;
#X connect 0 0 3 0;
#X connect 2 0 0 0;
#X connect 3 0 4 0;
#X connect 4 0 5 0;
#X connect 5 0 9 0;
#X connect 6 0 7 0;
#X connect 7 0 8 0;
#X connect 8 0 2 0;
#X connect 10 0 3 0;
#X restore 171 514 pd sawSynth;
#X msg 159 359 48;
#X msg 201 359 50;
#X obj 178 811 bob~;
#X obj 350 691 *~ 0.5;
#X obj 350 714 +~ 0.5;
#X obj 350 744 *~;
#X obj 350 782 +~;
#X obj 415 725 hsl 128 15 0 5000 0 0 empty empty empty -2 -8 0 10 #fcfcc4 #000000 #000000 0 1;
#X obj 414 768 hsl 128 15 0 5000 0 0 empty empty empty -2 -8 0 10 #fcfcc4 #000000 #000000 0 1;
#X floatatom 412 745 5 0 0 0 - - - 0;
#X floatatom 411 788 5 0 0 0 - - - 0;
#X text 407 700 <- make osc output go between 0:1;
#X obj 350 668 osc~ 0.15;
#X text 348 637 LFO section for filter;
#X text 316 485 Auto-AR when new note;
#X floatatom 1151 403 5 0 0 0 - - - 0;
#X floatatom 1150 430 5 0 0 0 - - - 0;
#X text 1195 403 attack time;
#X floatatom 1150 455 5 0 0 0 - - - 0;
#X obj 1012 438 bng 25 250 50 0 empty empty empty 17 7 0 10 #fcfcfc #000000 #000000;
#X text 1009 413 trigger;
#N canvas 0 25 706 475 AR-envelope-auto 0;
#X obj 132 300 line~;
#X msg 199 263 0 \$1;
#X obj 133 226 f;
#X obj 204 236 f;
#X obj 128 35 inlet;
#X obj 132 372 outlet~;
#X obj 206 31 inlet;
#X obj 344 20 inlet;
#X text 206 12 attack time;
#X obj 331 114 loadbang;
#X msg 337 167 100;
#X msg 299 142 10;
#X text 376 149 initial values;
#X obj 201 122 delay 100;
#X text 115 13 trigger;
#X obj 475 36 inlet;
#X text 474 14 on/sustain time;
#X msg 132 256 0.1 \$1;
#X obj 290 49 t b f;
#X obj 259 91 +;
#X text 343 -1 release time;
#X connect 0 0 5 0;
#X connect 1 0 0 0;
#X connect 2 0 17 0;
#X connect 3 0 1 0;
#X connect 4 0 13 0;
#X connect 4 0 2 0;
#X connect 6 0 2 1;
#X connect 6 0 19 0;
#X connect 7 0 3 1;
#X connect 9 0 10 0;
#X connect 9 0 11 0;
#X connect 10 0 3 1;
#X connect 11 0 2 1;
#X connect 11 0 19 0;
#X connect 13 0 3 0;
#X connect 15 0 18 0;
#X connect 17 0 0 0;
#X connect 18 0 19 0;
#X connect 18 1 19 1;
#X connect 19 0 13 1;
#X restore 1012 473 pd AR-envelope-auto;
#X text 1202 433 release time;
#X text 1202 458 release delay;
#X obj 838 533 *~;
#X text 985 388 Auto-AR when new note;
#X obj 840 417 noise~;
#X obj 77 228 s counter;
#X floatatom 998 239 5 0 0 0 - - - 0;
#X obj 998 309 bng 19 250 50 0 empty empty empty 0 -10 0 12 #fcfcfc #000000 #000000;
#X obj 1117 312 bng 19 250 50 0 empty empty empty 0 -10 0 12 #fcfcfc #000000 #000000;
#X obj 1234 307 bng 19 250 50 0 empty empty empty 0 -10 0 12 #fcfcfc #000000 #000000;
#X obj 983 161 r counter;
#X obj 998 212 mod 3;
#X obj 838 557 output~;
#X obj 159 137 metro 500;
#X text 1083 213 Roll over at 3;
#X obj 999 268 select 0 1 2, f 51;
#X floatatom 925 775 5 0 0 0 - - - 0;
#X obj 925 845 bng 19 250 50 0 empty empty empty 0 -10 0 12 #fcfcfc #000000 #000000;
#X obj 1044 848 bng 19 250 50 0 empty empty empty 0 -10 0 12 #fcfcfc #000000 #000000;
#X obj 1161 843 bng 19 250 50 0 empty empty empty 0 -10 0 12 #fcfcfc #000000 #000000;
#X obj 910 697 r counter;
#X text 1010 749 Roll over at 3;
#X obj 926 804 select 0 1 2, f 51;
#X obj 925 748 mod 4;
#X connect 0 0 4 0;
#X connect 1 0 0 0;
#X connect 1 0 66 0;
#X connect 2 0 1 0;
#X connect 3 0 74 0;
#X connect 4 0 5 0;
#X connect 5 0 6 0;
#X connect 5 1 7 0;
#X connect 5 2 8 0;
#X connect 5 3 9 0;
#X connect 5 4 10 0;
#X connect 5 5 11 0;
#X connect 5 6 12 0;
#X connect 5 7 13 0;
#X connect 6 0 39 0;
#X connect 7 0 40 0;
#X connect 8 0 22 0;
#X connect 9 0 23 0;
#X connect 10 0 24 0;
#X connect 11 0 25 0;
#X connect 12 0 26 0;
#X connect 13 0 27 0;
#X connect 15 0 74 1;
#X connect 19 0 20 0;
#X connect 19 0 32 0;
#X connect 20 0 38 0;
#X connect 22 0 19 0;
#X connect 23 0 19 0;
#X connect 24 0 19 0;
#X connect 25 0 19 0;
#X connect 26 0 19 0;
#X connect 27 0 19 0;
#X connect 28 0 34 1;
#X connect 29 0 34 2;
#X connect 31 0 34 3;
#X connect 32 0 34 0;
#X connect 34 0 37 1;
#X connect 37 0 41 0;
#X connect 38 0 37 0;
#X connect 39 0 19 0;
#X connect 40 0 19 0;
#X connect 41 0 21 0;
#X connect 41 0 21 1;
#X connect 42 0 43 0;
#X connect 43 0 44 0;
#X connect 44 0 45 0;
#X connect 45 0 41 1;
#X connect 46 0 44 1;
#X connect 46 0 48 0;
#X connect 47 0 45 1;
#X connect 47 0 49 0;
#X connect 51 0 42 0;
#X connect 54 0 60 1;
#X connect 55 0 60 2;
#X connect 57 0 60 3;
#X connect 58 0 60 0;
#X connect 60 0 63 1;
#X connect 63 0 73 0;
#X connect 65 0 63 0;
#X connect 67 0 76 0;
#X connect 68 0 58 0;
#X connect 71 0 72 0;
#X connect 72 0 67 0;
#X connect 74 0 2 0;
#X connect 76 0 68 0;
#X connect 76 1 69 0;
#X connect 76 2 70 0;
#X connect 77 0 83 0;
#X connect 81 0 84 0;
#X connect 83 0 78 0;
#X connect 83 1 79 0;
#X connect 83 2 80 0;
#X connect 84 0 77 0;
