#N canvas 1844 299 907 672 12;
#X obj 166 84 noise~;
#X obj 167 185 *~;
#X obj 349 4 tgl 19 0 empty empty empty 0 -10 0 12 #fcfcfc #000000 #000000 0 1;
#X obj 349 28 metro 500;
#X obj 349 63 bng 19 250 50 0 empty empty empty 0 -10 0 12 #fcfcfc #000000 #000000;
#X obj 349 135 line~;
#X msg 418 109 0 5;
#X obj 250 417 delread~ KARPLUS 100;
#X obj 253 277 hsl 162 19 0 127 0 0 empty empty empty -2 -10 0 12 #fcfcfc #000000 #000000 0 1;
#X floatatom 250 301 5 0 0 0 - - - 0;
#X obj 250 324 mtof;
#X floatatom 250 348 5 0 0 0 - - - 0;
#X floatatom 250 393 5 0 0 0 - - - 0;
#X obj 242 223 delwrite~ KARPLUS 150;
#X obj 250 370 expr 1000/$f1;
#X obj 250 462 *~ 0.99;
#X obj 250 486 send~ fb;
#X obj 242 197 receive~ fb;
#X obj 424 387 hsl 162 19 0 127 0 0 empty empty empty -2 -10 0 12 #fcfcfc #000000 #000000 0 1;
#X obj 421 411 / 127;
#X floatatom 421 435 5 0 0 0 - - - 0;
#X obj 161 628 dac~;
#X obj 161 550 lop~ 2000;
#X obj 295 520 hsl 162 19 0 127 0 0 empty empty empty -2 -10 0 12 #fcfcfc #000000 #000000 0 1;
#X obj 292 543 mtof;
#X floatatom 292 567 8 0 0 0 - - - 0;
#X text 379 4 automatically trigger;
#X obj 418 85 pipe 10;
#X msg 349 87 0.25 1;
#X text 393 60 AD Envelope;
#X text 353 567 low pass filter cutoff;
#X text 298 342 calculate freq to del time;
#X text 468 434 feedback amount;
#X text 198 629 Out to the speakers;
#X text 23 11 based on tutorial here: https://www.youtube.com/watch?v=xEpbMWpz65E;
#X connect 0 0 1 0;
#X connect 1 0 13 0;
#X connect 1 0 22 0;
#X connect 2 0 3 0;
#X connect 3 0 4 0;
#X connect 4 0 28 0;
#X connect 4 0 27 0;
#X connect 5 0 1 1;
#X connect 6 0 5 0;
#X connect 7 0 15 0;
#X connect 7 0 22 0;
#X connect 8 0 9 0;
#X connect 9 0 10 0;
#X connect 10 0 11 0;
#X connect 11 0 14 0;
#X connect 12 0 7 0;
#X connect 14 0 12 0;
#X connect 15 0 16 0;
#X connect 17 0 13 0;
#X connect 18 0 19 0;
#X connect 19 0 20 0;
#X connect 20 0 15 1;
#X connect 22 0 21 0;
#X connect 22 0 21 1;
#X connect 23 0 24 0;
#X connect 24 0 25 0;
#X connect 25 0 22 1;
#X connect 27 0 6 0;
#X connect 28 0 5 0;
