#N canvas -100 38 1465 916 12;
#X obj 572 491 output~;
#X obj 503 147 bng 19 250 50 0 empty empty empty 0 -10 0 12 #fcfcfc #000000 #000000;
#X obj 655 150 bng 19 250 50 0 empty empty empty 0 -10 0 12 #fcfcfc #000000 #000000;
#X obj 526 48 key;
#X floatatom 526 72 5 0 0 0 - - - 0;
#X obj 572 71 select 32 10;
#X obj 787 145 bng 19 250 50 0 empty empty empty 0 -10 0 12 #fcfcfc #000000 #000000;
#X text 526 146 Kick (space bar);
#X text 678 148 Hat (return);
#X text 809 145 Snare (any other key);
#N canvas 255 233 901 792 kickSound 0;
#X obj 281 227 noise~;
#X obj 281 277 *~ 0.1;
#X obj 298 414 *~;
#X obj 322 373 vline~;
#X obj 429 413 *~;
#X obj 450 385 vline~;
#X obj 449 291 *~ 0.15;
#X obj 449 267 osc~ 125;
#X obj 428 220 osc~ 80;
#X obj 428 245 *~ 0.5;
#X obj 281 251 lop~ 500;
#X msg 322 349 1 1 \, 0 15 1;
#X msg 450 361 1 10 \, 0 400 10;
#X obj 325 165 inlet;
#X obj 321 503 outlet~;
#X connect 0 0 10 0;
#X connect 1 0 2 0;
#X connect 2 0 14 0;
#X connect 3 0 2 1;
#X connect 4 0 14 0;
#X connect 5 0 4 1;
#X connect 6 0 4 0;
#X connect 7 0 6 0;
#X connect 8 0 9 0;
#X connect 9 0 4 0;
#X connect 10 0 1 0;
#X connect 11 0 3 0;
#X connect 12 0 5 0;
#X connect 13 0 11 0;
#X connect 13 0 12 0;
#X restore 442 291 pd kickSound;
#N canvas 284 262 818 581 hatSound 0;
#X obj 174 130 noise~;
#X obj 174 180 *~ 0.1;
#X obj 210 320 *~;
#X obj 234 279 vline~;
#X msg 234 255 1 1 \, 0 15 1;
#X obj 255 91 inlet;
#X obj 203 378 outlet~;
#X connect 0 0 1 0;
#X connect 1 0 2 0;
#X connect 2 0 6 0;
#X connect 3 0 2 1;
#X connect 4 0 3 0;
#X connect 5 0 4 0;
#X restore 656 318 pd hatSound;
#N canvas 313 291 450 300 snare 0;
#X obj 154 -265 noise~;
#X obj 192 85 *~;
#X obj 216 44 vline~;
#X obj 156 -81 bob~;
#X obj 208 -206 loadbang;
#X msg 209 -107 3;
#X floatatom 168 -116 5 0 0 0 - - - 0;
#X obj 314 -39 tgl 19 0 empty empty empty 0 -10 0 12 #fcfcfc #000000 #000000 0 1;
#X obj 314 -15 metro 200;
#X obj 96 -82 bob~;
#X floatatom 108 -117 5 0 0 0 - - - 0;
#X obj 48 -81 bob~;
#X floatatom 60 -116 5 0 0 0 - - - 0;
#X obj 260 -90 bob~;
#X floatatom 272 -125 5 0 0 0 - - - 0;
#X obj 209 -24 *~ 0.05;
#X msg 216 21 1 1 \, 0 50 1;
#X obj 95 14 osc~ 200;
#X obj 93 38 *~ 0.025;
#X obj 64 -9 osc~ 815;
#X msg 60 -154 400;
#X msg 261 -154 5000;
#X msg 171 -157 1250;
#X msg 111 -155 1000;
#X obj 154 -22 *~ 0.2;
#X obj 74 -290 inlet;
#X obj 168 156 outlet~;
#X connect 0 0 3 0;
#X connect 0 0 9 0;
#X connect 0 0 11 0;
#X connect 0 0 13 0;
#X connect 1 0 26 0;
#X connect 2 0 1 1;
#X connect 3 0 24 0;
#X connect 4 0 5 0;
#X connect 4 0 21 0;
#X connect 4 0 22 0;
#X connect 4 0 23 0;
#X connect 4 0 20 0;
#X connect 5 0 3 2;
#X connect 5 0 9 2;
#X connect 5 0 11 2;
#X connect 5 0 13 2;
#X connect 6 0 3 1;
#X connect 7 0 8 0;
#X connect 8 0 16 0;
#X connect 9 0 24 0;
#X connect 10 0 9 1;
#X connect 11 0 24 0;
#X connect 12 0 11 1;
#X connect 13 0 15 0;
#X connect 14 0 13 1;
#X connect 15 0 1 0;
#X connect 16 0 2 0;
#X connect 17 0 18 0;
#X connect 18 0 1 0;
#X connect 19 0 18 0;
#X connect 20 0 12 0;
#X connect 21 0 14 0;
#X connect 22 0 6 0;
#X connect 23 0 10 0;
#X connect 24 0 1 0;
#X connect 25 0 16 0;
#X restore 788 309 pd snare;
#X connect 1 0 10 0;
#X connect 2 0 11 0;
#X connect 3 0 4 0;
#X connect 3 0 5 0;
#X connect 5 0 1 0;
#X connect 5 1 2 0;
#X connect 5 2 6 0;
#X connect 6 0 12 0;
#X connect 10 0 0 0;
#X connect 11 0 0 0;
#X connect 12 0 0 0;
