#N canvas 159 95 1341 762 12;
#N canvas 221 110 538 475 overdrive~ 0;
#X obj 176 198 *~;
#X obj 197 227 *~;
#X obj 156 249 -~;
#X obj 181 137 clip~ -0.57735 0.57735;
#X obj 173 68 inlet~;
#X obj 149 285 outlet~;
#X text 154 360 thanks Miller!;
#X connect 0 0 1 0;
#X connect 1 0 2 1;
#X connect 2 0 5 0;
#X connect 3 0 0 0;
#X connect 3 0 0 1;
#X connect 3 0 1 1;
#X connect 3 0 2 0;
#X connect 4 0 3 0;
#X restore 752 275 pd overdrive~;
#X obj 754 112 osc~ 300;
#X obj 754 231 *~;
#X obj 868 74 vsl 19 162 0 10 0 0 empty empty empty 0 -9 0 12 #fcfcfc #000000 #000000 0 1;
#X floatatom 868 244 5 0 0 0 - - - 0;
#X obj 712 432 output~;
#X obj 963 409 scope~;
#X obj 967 195 scope~;
#X obj 130 152 osc~ 300;
#X obj 130 239 *~;
#X obj 244 82 vsl 19 162 0 10 0 0 empty empty empty 0 -9 0 12 #fcfcfc #000000 #000000 0 1;
#X floatatom 244 252 5 0 0 0 - - - 0;
#X obj 88 440 output~;
#X obj 339 417 scope~;
#X obj 343 203 scope~;
#X obj 128 283 clip~ -0.5 0.5;
#X text 746 73 softer clipping;
#X connect 0 0 5 0;
#X connect 0 0 5 1;
#X connect 0 0 6 0;
#X connect 1 0 2 0;
#X connect 1 0 7 0;
#X connect 2 0 0 0;
#X connect 3 0 4 0;
#X connect 4 0 2 1;
#X connect 8 0 9 0;
#X connect 8 0 14 0;
#X connect 9 0 15 0;
#X connect 10 0 11 0;
#X connect 11 0 9 1;
#X connect 15 0 12 0;
#X connect 15 0 12 1;
#X connect 15 0 13 0;
