#N canvas 1520 89 1251 783 12;
#X obj 456 823 dac~;
#X floatatom 242 248 5 0 0 0 - - - 0;
#X obj 457 742 *~;
#X obj 853 483 tgl 15 0 empty empty empty 17 7 0 10 #fcfcfc #000000 #000000 0 1;
#X obj 742 644 line~;
#X floatatom 850 529 5 0 0 0 - - - 0;
#X obj 744 541 sel 1 0;
#X msg 803 616 0 \$1;
#X floatatom 850 567 5 0 0 0 - - - 0;
#X text 894 529 attack time;
#X text 902 570 decay time;
#X obj 743 570 f;
#X obj 808 589 f;
#X text 883 480 on/off;
#X text 174 249 frequency;
#X obj 246 144 hsl 128 15 36 84 0 0 empty empty empty -2 -8 0 10 #fcfcfc #000000 #000000 0 1;
#X obj 241 221 mtof;
#X floatatom 242 195 5 0 0 0 - - - 0;
#X obj 242 170 i;
#X text 294 193 MIDI note number (60 = middle C);
#X obj 243 283 phasor~;
#X obj 243 306 *~ 2;
#X obj 243 329 -~ 1;
#X obj 457 765 *~;
#X obj 538 633 vsl 15 128 0 0.2 0 0 empty empty empty 0 -9 0 10 #fcfcfc #000000 #000000 0 1;
#X floatatom 702 379 10 0 0 0 - - - 0;
#X obj 705 357 hsl 128 15 0 10000 0 0 empty empty empty -2 -8 0 10 #fcfcfc #000000 #000000 0 1;
#X obj 430 508 bob~;
#X floatatom 534 488 5 0 0 0 - - - 0;
#X obj 537 466 hsl 128 15 0 8 0 0 empty empty empty -2 -8 0 10 #fcfcfc #000000 #000000 0 1;
#X text 837 354 Filter Cutoff;
#X text 533 444 Filter Q;
#X obj 637 141 osc~;
#X obj 637 164 *~ 0.5;
#X obj 637 187 +~ 0.5;
#X obj 637 236 *~;
#X obj 637 274 +~;
#X obj 702 217 hsl 128 15 0 5000 0 0 empty empty empty -2 -8 0 10 #fcfcc4 #000000 #000000 0 1;
#X obj 701 260 hsl 128 15 0 5000 0 0 empty empty empty -2 -8 0 10 #fcfcc4 #000000 #000000 0 1;
#X floatatom 639 116 5 0 0 0 - - - 0;
#X obj 644 89 hsl 128 15 0 15 0 0 empty empty empty -2 -8 0 10 #fcfcc4 #000000 #000000 0 1;
#X text 841 214 Range;
#X text 843 260 Offset;
#X floatatom 699 237 5 0 0 0 - - - 0;
#X floatatom 698 280 5 0 0 0 - - - 0;
#N canvas 0 25 450 300 signalScope 0;
#X obj 125 75 loadbang;
#X obj 125 98 metro 20;
#X obj 125 121 snapshot~;
#X obj 125 144 outlet;
#X obj 62 2 inlet~;
#X obj 139 52 tgl 15 0 empty empty empty 17 7 0 10 #fcfcfc #000000 #000000 0 1;
#X connect 0 0 1 0;
#X connect 1 0 2 0;
#X connect 2 0 3 0;
#X connect 4 0 2 0;
#X connect 5 0 1 0;
#X restore 702 335 pd signalScope;
#X text 687 116 LFO Rate;
#X text 694 173 <- make osc output go between 0:1;
#X msg 742 600 0.1 \$1;
#X text 247 99 Synth voice;
#X text 640 55 LFO;
#X connect 1 0 20 0;
#X connect 2 0 23 0;
#X connect 3 0 6 0;
#X connect 4 0 2 1;
#X connect 5 0 11 1;
#X connect 6 0 11 0;
#X connect 6 1 12 0;
#X connect 7 0 4 0;
#X connect 8 0 12 1;
#X connect 11 0 48 0;
#X connect 12 0 7 0;
#X connect 15 0 18 0;
#X connect 16 0 1 0;
#X connect 17 0 16 0;
#X connect 18 0 17 0;
#X connect 20 0 21 0;
#X connect 21 0 22 0;
#X connect 22 0 27 0;
#X connect 23 0 0 0;
#X connect 23 0 0 1;
#X connect 24 0 23 1;
#X connect 26 0 25 0;
#X connect 27 0 2 0;
#X connect 28 0 27 2;
#X connect 29 0 28 0;
#X connect 32 0 33 0;
#X connect 33 0 34 0;
#X connect 34 0 35 0;
#X connect 35 0 36 0;
#X connect 36 0 27 1;
#X connect 36 0 45 0;
#X connect 37 0 35 1;
#X connect 37 0 43 0;
#X connect 38 0 36 1;
#X connect 38 0 44 0;
#X connect 39 0 32 0;
#X connect 40 0 39 0;
#X connect 45 0 26 0;
#X connect 48 0 4 0;
#X coords 0 0 1 1 85 60 0;
