#N canvas 105 77 1407 853 12;
#X obj 488 641 *~;
#X obj 488 406 bob~;
#X floatatom 645 379 5 0 0 0 - - - 0;
#X obj 648 357 hsl 128 15 0 8 0 0 empty empty empty -2 -8 0 10 #fcfcfc #000000 #000000 0 1;
#X text 692 378 Filter Q;
#X obj 482 686 dac~;
#N canvas 134 130 706 490 sawSynth 1;
#X floatatom 110 173 5 0 0 0 - - - 0;
#X text 151 174 frequency;
#X obj 109 146 mtof;
#X obj 111 208 phasor~;
#X obj 111 231 *~ 2;
#X obj 111 254 -~ 1;
#X obj 109 64 loadbang;
#X msg 109 88 64;
#X floatatom 109 112 5 0 0 0 - - - 0;
#X obj 111 298 outlet~;
#X obj 58 57 inlet;
#X connect 0 0 3 0;
#X connect 2 0 0 0;
#X connect 3 0 4 0;
#X connect 4 0 5 0;
#X connect 5 0 9 0;
#X connect 6 0 7 0;
#X connect 7 0 8 0;
#X connect 8 0 2 0;
#X connect 10 0 3 0;
#X restore 403 196 pd sawSynth;
#X floatatom 403 165 5 0 0 0 - - - 0;
#X text 444 164 frequency;
#X text 495 195 sawtooth waveform;
#X obj 545 596 hsl 162 19 0 0.5 0 0 empty empty empty -2 -10 0 12 #fcfcfc #000000 #000000 0 1;
#X obj 756 103 bng 19 250 50 0 empty empty empty 0 -10 0 12 #fcfcfc #000000 #000000;
#X obj 705 239 line~;
#X obj 753 182 delay 100;
#X msg 753 207 10 100;
#X msg 707 150 1000 100;
#X floatatom 718 309 10 0 0 0 - - - 0;
#X obj 721 287 hsl 128 15 0 10000 0 0 empty empty empty -2 -8 0 10 #fcfcfc #000000 #000000 0 1;
#X text 853 284 Filter Cutoff;
#N canvas 0 25 450 300 signalScope 0;
#X obj 125 75 loadbang;
#X obj 125 98 metro 20;
#X obj 125 121 snapshot~;
#X obj 125 144 outlet;
#X obj 62 2 inlet~;
#X obj 139 52 tgl 15 0 empty empty empty 17 7 0 10 #fcfcfc #000000 #000000 0 1;
#X connect 0 0 1 0;
#X connect 1 0 2 0;
#X connect 2 0 3 0;
#X connect 4 0 2 0;
#X connect 5 0 1 0;
#X restore 718 265 pd signalScope;
#X text 798 147 <- go to 1000 in 100 ms;
#X text 814 209 <- go to 10 in 100 ms;
#X text 826 181 <- delay for 100 ms;
#X text 785 104 trigger frequency Envelope;
#X text 401 97 synth voice;
#X text 405 22 Envelopes are not just for volume! Use them on any paramter to vary over time.;
#X connect 0 0 5 0;
#X connect 0 0 5 1;
#X connect 1 0 0 0;
#X connect 2 0 1 2;
#X connect 3 0 2 0;
#X connect 6 0 1 0;
#X connect 7 0 6 0;
#X connect 10 0 0 1;
#X connect 11 0 15 0;
#X connect 11 0 13 0;
#X connect 12 0 1 1;
#X connect 12 0 19 0;
#X connect 13 0 14 0;
#X connect 14 0 12 0;
#X connect 15 0 12 0;
#X connect 17 0 16 0;
#X connect 19 0 17 0;
