#N canvas 1676 171 1199 881 12;
#X obj 60 712 dac~;
#X floatatom 68 464 5 0 0 0 - - - 0;
#X obj 67 650 *~;
#X obj 127 537 tgl 25 0 empty empty empty 17 7 0 10 #fcfcfc #000000 #000000 0 1;
#X obj 68 491 osc~;
#X text 160 536 on/off;
#X msg 127 601 0.1;
#X obj 127 569 sel 1 0, f 9;
#X msg 158 625 0;
#X text 204 570 <- select will output a bang to the outlets that match the input;
#X obj 739 714 dac~;
#X floatatom 747 466 5 0 0 0 - - - 0;
#X obj 746 652 *~;
#X obj 806 539 tgl 25 0 empty empty empty 17 7 0 10 #fcfcfc #000000 #000000 0 1;
#X obj 747 493 osc~;
#X text 805 516 on/off;
#X text 841 542 <- Be very careful with your volume here! Take your headphones off before engaging Check your system volume \, etc.;
#X text 876 515 !!!;
#X text 788 652 <- multiplies by 1 (full volume) or 0 (mute);
#X floatatom 806 613 5 0 0 0 - - - 0;
#X text 63 420 Toggle on/off by multiplying the sine wave by 0.1 or 0;
#X text 64 440 set frequency;
#X text 745 440 set frequency;
#X obj 763 345 dac~;
#X obj 854 127 vsl 19 162 0 0.1 0 0 empty empty empty 0 -9 0 12 #fcfcfc #000000 #000000 0 1;
#X floatatom 854 297 5 0 0 0 - - - 0;
#X obj 763 239 osc~ 301;
#X obj 88 325 dac~;
#X obj 179 107 vsl 19 162 0 0.1 0 0 empty empty empty 0 -9 0 12 #fcfcfc #000000 #000000 0 1;
#X floatatom 179 277 5 0 0 0 - - - 0;
#X obj 88 219 osc~ 300;
#X obj 88 279 *~;
#X obj 763 299 *~;
#X text 62 59 Multiply [*~] by a number between 0-1 to directly set the amplitude (volume) of an audio signal;
#X text 734 63 Multiple [dac~] objects can be used. All the signals to any dac object are summed (added/mixed) together.;
#X connect 1 0 4 0;
#X connect 2 0 0 0;
#X connect 2 0 0 1;
#X connect 3 0 7 0;
#X connect 4 0 2 0;
#X connect 6 0 2 1;
#X connect 7 0 6 0;
#X connect 7 1 8 0;
#X connect 8 0 2 1;
#X connect 11 0 14 0;
#X connect 12 0 10 0;
#X connect 12 0 10 1;
#X connect 13 0 12 1;
#X connect 13 0 19 0;
#X connect 14 0 12 0;
#X connect 24 0 25 0;
#X connect 24 0 32 1;
#X connect 26 0 32 0;
#X connect 28 0 29 0;
#X connect 28 0 31 1;
#X connect 30 0 31 0;
#X connect 31 0 27 0;
#X connect 31 0 27 1;
#X connect 32 0 23 0;
#X connect 32 0 23 1;
