#N canvas 149 71 1336 832 12;
#X msg 106 66 100;
#X msg 145 66 200;
#X msg 185 65 300;
#X msg 227 65 400;
#X msg 266 65 500;
#X msg 306 64 600;
#X msg 345 64 700;
#X msg 384 64 800;
#X msg 424 63 900;
#X obj 106 121 osc~;
#X obj 194 154 hsl 162 19 0 0.5 0 0 empty empty empty -2 -10 0 12 #fcfcfc #000000 #000000 0 1;
#X obj 106 208 dac~;
#X msg 111 400 100;
#X msg 150 400 200;
#X msg 190 399 300;
#X msg 232 399 400;
#X msg 271 399 500;
#X msg 311 398 600;
#X msg 350 398 700;
#X msg 389 398 800;
#X msg 429 397 900;
#X obj 111 455 osc~;
#X obj 199 460 hsl 162 19 0 0.5 0 0 empty empty empty -2 -10 0 12 #fcfcfc #000000 #000000 0 1;
#X obj 111 514 dac~;
#X floatatom 107 325 5 0 0 0 - - - 0;
#X obj 110 372 bng 19 250 50 0 empty empty empty 0 -10 0 12 #fcfcfc #000000 #000000;
#X obj 150 372 bng 19 250 50 0 empty empty empty 0 -10 0 12 #fcfcfc #000000 #000000;
#X obj 189 371 bng 19 250 50 0 empty empty empty 0 -10 0 12 #fcfcfc #000000 #000000;
#X obj 229 371 bng 19 250 50 0 empty empty empty 0 -10 0 12 #fcfcfc #000000 #000000;
#X obj 270 372 bng 19 250 50 0 empty empty empty 0 -10 0 12 #fcfcfc #000000 #000000;
#X obj 310 372 bng 19 250 50 0 empty empty empty 0 -10 0 12 #fcfcfc #000000 #000000;
#X obj 349 371 bng 19 250 50 0 empty empty empty 0 -10 0 12 #fcfcfc #000000 #000000;
#X obj 389 371 bng 19 250 50 0 empty empty empty 0 -10 0 12 #fcfcfc #000000 #000000;
#X obj 428 372 bng 19 250 50 0 empty empty empty 0 -10 0 12 #fcfcfc #000000 #000000;
#X msg 460 63 1000;
#X obj 110 280 hsl 162 19 0 12 0 0 empty empty empty -2 -10 0 12 #fcfcfc #000000 #000000 0 1;
#X obj 107 304 i;
#X obj 466 371 bng 19 250 50 0 empty empty empty 0 -10 0 12 #fcfcfc #000000 #000000;
#X obj 505 372 bng 19 250 50 0 empty empty empty 0 -10 0 12 #fcfcfc #000000 #000000;
#X msg 465 398 1000;
#X msg 505 397 1100;
#X obj 110 346 sel 0 1 2 3 4 5 6 7 8 9 10 11 12, f 75;
#X obj 547 369 bng 19 250 50 0 empty empty empty 0 -10 0 12 #fcfcfc #000000 #000000;
#X obj 586 370 bng 19 250 50 0 empty empty empty 0 -10 0 12 #fcfcfc #000000 #000000;
#X msg 546 396 1200;
#X msg 586 395 1300;
#X text 105 15 Harmonic Series starting at 100 Hz;
#X text 102 249 Use 2 at a time and they add together;
#X obj 101 854 osc~;
#X obj 147 770 vsl 15 100 0 0.5 0 0 empty empty empty 0 -9 0 12 #606060 #dfdfdf #dfdfdf 0 1;
#X floatatom 101 769 5 0 0 0 - - - 0;
#X obj 180 854 osc~;
#X obj 226 770 vsl 15 100 0 0.5 0 0 empty empty empty 0 -9 0 12 #606060 #dfdfdf #dfdfdf 0 1;
#X floatatom 180 769 5 0 0 0 - - - 0;
#X obj 111 479 *~;
#X obj 106 173 *~;
#X obj 101 878 *~;
#X obj 180 878 *~;
#X obj 180 742 * 2;
#X obj 251 854 osc~;
#X obj 297 770 vsl 15 100 0 0.5 0 0 empty empty empty 0 -9 0 12 #606060 #dfdfdf #dfdfdf 0 1;
#X floatatom 251 769 5 0 0 0 - - - 0;
#X obj 251 878 *~;
#X obj 319 852 osc~;
#X obj 365 768 vsl 15 100 0 0.5 0 0 empty empty empty 0 -9 0 12 #606060 #dfdfdf #dfdfdf 0 1;
#X floatatom 319 767 5 0 0 0 - - - 0;
#X obj 319 876 *~;
#X obj 390 852 osc~;
#X obj 436 768 vsl 15 100 0 0.5 0 0 empty empty empty 0 -9 0 12 #606060 #dfdfdf #dfdfdf 0 1;
#X floatatom 390 767 5 0 0 0 - - - 0;
#X obj 390 876 *~;
#X obj 460 850 osc~;
#X obj 506 766 vsl 15 100 0 0.5 0 0 empty empty empty 0 -9 0 12 #606060 #dfdfdf #dfdfdf 0 1;
#X floatatom 460 765 5 0 0 0 - - - 0;
#X obj 460 874 *~;
#X obj 531 850 osc~;
#X obj 577 766 vsl 15 100 0 0.5 0 0 empty empty empty 0 -9 0 12 #606060 #dfdfdf #dfdfdf 0 1;
#X floatatom 531 765 5 0 0 0 - - - 0;
#X obj 531 874 *~;
#X obj 599 848 osc~;
#X obj 645 764 vsl 15 100 0 0.5 0 0 empty empty empty 0 -9 0 12 #606060 #dfdfdf #dfdfdf 0 1;
#X floatatom 599 763 5 0 0 0 - - - 0;
#X obj 599 872 *~;
#X obj 670 848 osc~;
#X obj 716 764 vsl 15 100 0 0.5 0 0 empty empty empty 0 -9 0 12 #606060 #dfdfdf #dfdfdf 0 1;
#X floatatom 670 763 5 0 0 0 - - - 0;
#X obj 670 872 *~;
#X obj 742 849 osc~;
#X obj 788 765 vsl 15 100 0 0.5 0 0 empty empty empty 0 -9 0 12 #606060 #dfdfdf #dfdfdf 0 1;
#X floatatom 742 764 5 0 0 0 - - - 0;
#X obj 742 873 *~;
#X obj 813 849 osc~;
#X obj 859 765 vsl 15 100 0 0.5 0 0 empty empty empty 0 -9 0 12 #606060 #dfdfdf #dfdfdf 0 1;
#X floatatom 813 764 5 0 0 0 - - - 0;
#X obj 813 873 *~;
#X obj 881 847 osc~;
#X obj 927 763 vsl 15 100 0 0.5 0 0 empty empty empty 0 -9 0 12 #606060 #dfdfdf #dfdfdf 0 1;
#X floatatom 881 762 5 0 0 0 - - - 0;
#X obj 881 871 *~;
#X obj 952 847 osc~;
#X obj 998 763 vsl 15 100 0 0.5 0 0 empty empty empty 0 -9 0 12 #606060 #dfdfdf #dfdfdf 0 1;
#X floatatom 952 762 5 0 0 0 - - - 0;
#X obj 952 871 *~;
#X floatatom 101 699 5 0 0 0 - - - 0;
#X obj 251 742 * 3;
#X obj 319 740 * 4;
#X obj 390 740 * 5;
#X obj 460 738 * 6;
#X obj 531 738 * 7;
#X obj 599 736 * 8;
#X obj 670 736 * 9;
#X obj 742 737 * 10;
#X obj 812 737 * 11;
#X obj 881 735 * 12;
#X obj 952 735 * 13;
#X text 1018 854 <- individual harmonic volume;
#X obj 648 1074 hsl 162 19 0 0.5 0 0 empty empty empty -2 -10 0 12 #fcfcfc #000000 #000000 0 1;
#X obj 564 1101 dac~;
#X obj 566 1058 *~;
#X text 1251 1104 .;
#X text 639 1038 <- when audio (~) signals are combined at an inlet they sum together (add / mix);
#X floatatom 645 1098 5 0 0 0 - - - 0;
#X text 689 1099 Volume;
#X obj 101 652 loadbang;
#X msg 101 676 100;
#X msg 194 123 0.5;
#X msg 230 122 0;
#X text 175 618 Here we have a basic Additive Synth: There are 13 oscillators The frequencies are set to be the harmonic series The volume of each harmonic can be set individually;
#X obj 125 1442 osc~;
#X obj 171 1358 vsl 15 100 0 0.5 0 0 empty empty empty 0 -9 0 12 #606060 #dfdfdf #dfdfdf 0 1;
#X floatatom 125 1357 5 0 0 0 - - - 0;
#X obj 204 1442 osc~;
#X obj 250 1358 vsl 15 100 0 0.5 0 0 empty empty empty 0 -9 0 12 #606060 #dfdfdf #dfdfdf 0 1;
#X floatatom 204 1357 5 0 0 0 - - - 0;
#X obj 125 1466 *~;
#X obj 204 1466 *~;
#X obj 275 1442 osc~;
#X obj 321 1358 vsl 15 100 0 0.5 0 0 empty empty empty 0 -9 0 12 #606060 #dfdfdf #dfdfdf 0 1;
#X floatatom 275 1357 5 0 0 0 - - - 0;
#X obj 275 1466 *~;
#X obj 343 1440 osc~;
#X obj 389 1356 vsl 15 100 0 0.5 0 0 empty empty empty 0 -9 0 12 #606060 #dfdfdf #dfdfdf 0 1;
#X floatatom 343 1355 5 0 0 0 - - - 0;
#X obj 343 1464 *~;
#X obj 414 1440 osc~;
#X obj 460 1356 vsl 15 100 0 0.5 0 0 empty empty empty 0 -9 0 12 #606060 #dfdfdf #dfdfdf 0 1;
#X floatatom 414 1355 5 0 0 0 - - - 0;
#X obj 414 1464 *~;
#X obj 484 1438 osc~;
#X obj 530 1354 vsl 15 100 0 0.5 0 0 empty empty empty 0 -9 0 12 #606060 #dfdfdf #dfdfdf 0 1;
#X floatatom 484 1353 5 0 0 0 - - - 0;
#X obj 484 1462 *~;
#X obj 555 1438 osc~;
#X obj 601 1354 vsl 15 100 0 0.5 0 0 empty empty empty 0 -9 0 12 #606060 #dfdfdf #dfdfdf 0 1;
#X floatatom 555 1353 5 0 0 0 - - - 0;
#X obj 555 1462 *~;
#X obj 623 1436 osc~;
#X obj 669 1352 vsl 15 100 0 0.5 0 0 empty empty empty 0 -9 0 12 #606060 #dfdfdf #dfdfdf 0 1;
#X floatatom 623 1351 5 0 0 0 - - - 0;
#X obj 623 1460 *~;
#X obj 694 1436 osc~;
#X obj 740 1352 vsl 15 100 0 0.5 0 0 empty empty empty 0 -9 0 12 #606060 #dfdfdf #dfdfdf 0 1;
#X floatatom 694 1351 5 0 0 0 - - - 0;
#X obj 694 1460 *~;
#X obj 766 1437 osc~;
#X obj 812 1353 vsl 15 100 0 0.5 0 0 empty empty empty 0 -9 0 12 #606060 #dfdfdf #dfdfdf 0 1;
#X floatatom 766 1352 5 0 0 0 - - - 0;
#X obj 766 1461 *~;
#X obj 837 1437 osc~;
#X obj 883 1353 vsl 15 100 0 0.5 0 0 empty empty empty 0 -9 0 12 #606060 #dfdfdf #dfdfdf 0 1;
#X floatatom 837 1352 5 0 0 0 - - - 0;
#X obj 837 1461 *~;
#X obj 905 1435 osc~;
#X obj 951 1351 vsl 15 100 0 0.5 0 0 empty empty empty 0 -9 0 12 #606060 #dfdfdf #dfdfdf 0 1;
#X floatatom 905 1350 5 0 0 0 - - - 0;
#X obj 905 1459 *~;
#X obj 976 1435 osc~;
#X obj 1022 1351 vsl 15 100 0 0.5 0 0 empty empty empty 0 -9 0 12 #606060 #dfdfdf #dfdfdf 0 1;
#X floatatom 976 1350 5 0 0 0 - - - 0;
#X obj 976 1459 *~;
#X floatatom 125 1287 5 0 0 0 - - - 0;
#X text 1042 1442 <- individual harmonic volume;
#X obj 672 1662 hsl 162 19 0 0.5 0 0 empty empty empty -2 -10 0 12 #fcfcfc #000000 #000000 0 1;
#X obj 588 1689 dac~;
#X obj 590 1646 *~;
#X text 663 1626 <- when audio (~) signals are combined at an inlet they sum together (add / mix);
#X floatatom 669 1686 5 0 0 0 - - - 0;
#X text 713 1687 Volume;
#X obj 125 1240 loadbang;
#X msg 125 1264 100;
#X text 132 1208 Here it is with arbitrary inharmonic frequencies;
#X obj 275 1330 * 2.3;
#X obj 343 1328 * 3.1;
#X obj 414 1328 * 4.4;
#X obj 484 1326 * 5.13;
#X obj 555 1326 * 5.95;
#X obj 623 1324 * 7.2;
#X obj 694 1324 * 8.33;
#X obj 766 1325 * 9.5;
#X obj 836 1325 * 10.03;
#X obj 905 1323 * 11.11;
#X obj 976 1323 * 12.65;
#X obj 204 1330 * 1.55;
#X connect 0 0 9 0;
#X connect 1 0 9 0;
#X connect 2 0 9 0;
#X connect 3 0 9 0;
#X connect 4 0 9 0;
#X connect 5 0 9 0;
#X connect 6 0 9 0;
#X connect 7 0 9 0;
#X connect 8 0 9 0;
#X connect 9 0 55 0;
#X connect 10 0 55 1;
#X connect 12 0 21 0;
#X connect 13 0 21 0;
#X connect 14 0 21 0;
#X connect 15 0 21 0;
#X connect 16 0 21 0;
#X connect 17 0 21 0;
#X connect 18 0 21 0;
#X connect 19 0 21 0;
#X connect 20 0 21 0;
#X connect 21 0 54 0;
#X connect 22 0 54 1;
#X connect 24 0 41 0;
#X connect 25 0 12 0;
#X connect 26 0 13 0;
#X connect 27 0 14 0;
#X connect 28 0 15 0;
#X connect 29 0 16 0;
#X connect 30 0 17 0;
#X connect 31 0 18 0;
#X connect 32 0 19 0;
#X connect 33 0 20 0;
#X connect 34 0 9 0;
#X connect 35 0 36 0;
#X connect 36 0 24 0;
#X connect 37 0 39 0;
#X connect 38 0 40 0;
#X connect 39 0 21 0;
#X connect 40 0 21 0;
#X connect 41 0 25 0;
#X connect 41 1 26 0;
#X connect 41 2 27 0;
#X connect 41 3 28 0;
#X connect 41 4 29 0;
#X connect 41 5 30 0;
#X connect 41 6 31 0;
#X connect 41 7 32 0;
#X connect 41 8 33 0;
#X connect 41 9 37 0;
#X connect 41 10 38 0;
#X connect 41 11 42 0;
#X connect 41 12 43 0;
#X connect 42 0 44 0;
#X connect 43 0 45 0;
#X connect 44 0 21 0;
#X connect 45 0 21 0;
#X connect 48 0 56 0;
#X connect 49 0 56 1;
#X connect 50 0 48 0;
#X connect 51 0 57 0;
#X connect 52 0 57 1;
#X connect 53 0 51 0;
#X connect 54 0 23 0;
#X connect 54 0 23 1;
#X connect 55 0 11 0;
#X connect 55 0 11 1;
#X connect 56 0 118 0;
#X connect 57 0 118 0;
#X connect 58 0 53 0;
#X connect 59 0 62 0;
#X connect 60 0 62 1;
#X connect 61 0 59 0;
#X connect 62 0 118 0;
#X connect 63 0 66 0;
#X connect 64 0 66 1;
#X connect 65 0 63 0;
#X connect 66 0 118 0;
#X connect 67 0 70 0;
#X connect 68 0 70 1;
#X connect 69 0 67 0;
#X connect 70 0 118 0;
#X connect 71 0 74 0;
#X connect 72 0 74 1;
#X connect 73 0 71 0;
#X connect 74 0 118 0;
#X connect 75 0 78 0;
#X connect 76 0 78 1;
#X connect 77 0 75 0;
#X connect 78 0 118 0;
#X connect 79 0 82 0;
#X connect 80 0 82 1;
#X connect 81 0 79 0;
#X connect 82 0 118 0;
#X connect 83 0 86 0;
#X connect 84 0 86 1;
#X connect 85 0 83 0;
#X connect 86 0 118 0;
#X connect 87 0 90 0;
#X connect 88 0 90 1;
#X connect 89 0 87 0;
#X connect 90 0 118 0;
#X connect 91 0 94 0;
#X connect 92 0 94 1;
#X connect 93 0 91 0;
#X connect 94 0 118 0;
#X connect 95 0 98 0;
#X connect 96 0 98 1;
#X connect 97 0 95 0;
#X connect 98 0 118 0;
#X connect 99 0 102 0;
#X connect 100 0 102 1;
#X connect 101 0 99 0;
#X connect 102 0 118 0;
#X connect 103 0 50 0;
#X connect 103 0 58 0;
#X connect 103 0 104 0;
#X connect 103 0 105 0;
#X connect 103 0 106 0;
#X connect 103 0 107 0;
#X connect 103 0 108 0;
#X connect 103 0 109 0;
#X connect 103 0 110 0;
#X connect 103 0 111 0;
#X connect 103 0 112 0;
#X connect 103 0 113 0;
#X connect 103 0 114 0;
#X connect 104 0 61 0;
#X connect 105 0 65 0;
#X connect 106 0 69 0;
#X connect 107 0 73 0;
#X connect 108 0 77 0;
#X connect 109 0 81 0;
#X connect 110 0 85 0;
#X connect 111 0 89 0;
#X connect 112 0 93 0;
#X connect 113 0 97 0;
#X connect 114 0 101 0;
#X connect 116 0 118 1;
#X connect 116 0 121 0;
#X connect 118 0 117 0;
#X connect 118 0 117 1;
#X connect 123 0 124 0;
#X connect 124 0 103 0;
#X connect 125 0 10 0;
#X connect 126 0 10 0;
#X connect 128 0 134 0;
#X connect 129 0 134 1;
#X connect 130 0 128 0;
#X connect 131 0 135 0;
#X connect 132 0 135 1;
#X connect 133 0 131 0;
#X connect 134 0 184 0;
#X connect 135 0 184 0;
#X connect 136 0 139 0;
#X connect 137 0 139 1;
#X connect 138 0 136 0;
#X connect 139 0 184 0;
#X connect 140 0 143 0;
#X connect 141 0 143 1;
#X connect 142 0 140 0;
#X connect 143 0 184 0;
#X connect 144 0 147 0;
#X connect 145 0 147 1;
#X connect 146 0 144 0;
#X connect 147 0 184 0;
#X connect 148 0 151 0;
#X connect 149 0 151 1;
#X connect 150 0 148 0;
#X connect 151 0 184 0;
#X connect 152 0 155 0;
#X connect 153 0 155 1;
#X connect 154 0 152 0;
#X connect 155 0 184 0;
#X connect 156 0 159 0;
#X connect 157 0 159 1;
#X connect 158 0 156 0;
#X connect 159 0 184 0;
#X connect 160 0 163 0;
#X connect 161 0 163 1;
#X connect 162 0 160 0;
#X connect 163 0 184 0;
#X connect 164 0 167 0;
#X connect 165 0 167 1;
#X connect 166 0 164 0;
#X connect 167 0 184 0;
#X connect 168 0 171 0;
#X connect 169 0 171 1;
#X connect 170 0 168 0;
#X connect 171 0 184 0;
#X connect 172 0 175 0;
#X connect 173 0 175 1;
#X connect 174 0 172 0;
#X connect 175 0 184 0;
#X connect 176 0 179 0;
#X connect 177 0 179 1;
#X connect 178 0 176 0;
#X connect 179 0 184 0;
#X connect 180 0 130 0;
#X connect 180 0 191 0;
#X connect 180 0 192 0;
#X connect 180 0 193 0;
#X connect 180 0 194 0;
#X connect 180 0 195 0;
#X connect 180 0 196 0;
#X connect 180 0 197 0;
#X connect 180 0 198 0;
#X connect 180 0 199 0;
#X connect 180 0 200 0;
#X connect 180 0 201 0;
#X connect 180 0 202 0;
#X connect 182 0 184 1;
#X connect 182 0 186 0;
#X connect 184 0 183 0;
#X connect 184 0 183 1;
#X connect 188 0 189 0;
#X connect 189 0 180 0;
#X connect 191 0 138 0;
#X connect 192 0 142 0;
#X connect 193 0 146 0;
#X connect 194 0 150 0;
#X connect 195 0 154 0;
#X connect 196 0 158 0;
#X connect 197 0 162 0;
#X connect 198 0 166 0;
#X connect 199 0 170 0;
#X connect 200 0 174 0;
#X connect 201 0 178 0;
#X connect 202 0 133 0;
