#N canvas 1927 154 1336 832 12;
#X msg 106 66 100;
#X msg 145 66 200;
#X msg 185 65 300;
#X msg 227 65 400;
#X msg 266 65 500;
#X msg 306 64 600;
#X msg 345 64 700;
#X msg 384 64 800;
#X msg 424 63 900;
#X obj 106 121 osc~;
#X obj 194 154 hsl 162 19 0 0.5 0 0 empty empty empty -2 -10 0 12 #fcfcfc #000000 #000000 0 1;
#X obj 106 208 dac~;
#X msg 111 400 100;
#X msg 150 400 200;
#X msg 190 399 300;
#X msg 232 399 400;
#X msg 271 399 500;
#X msg 311 398 600;
#X msg 350 398 700;
#X msg 389 398 800;
#X msg 429 397 900;
#X obj 111 455 osc~;
#X obj 199 460 hsl 162 19 0 0.5 0 0 empty empty empty -2 -10 0 12 #fcfcfc #000000 #000000 0 1;
#X obj 111 514 dac~;
#X floatatom 107 325 5 0 0 0 - - - 0;
#X obj 110 372 bng 19 250 50 0 empty empty empty 0 -10 0 12 #fcfcfc #000000 #000000;
#X obj 150 372 bng 19 250 50 0 empty empty empty 0 -10 0 12 #fcfcfc #000000 #000000;
#X obj 189 371 bng 19 250 50 0 empty empty empty 0 -10 0 12 #fcfcfc #000000 #000000;
#X obj 229 371 bng 19 250 50 0 empty empty empty 0 -10 0 12 #fcfcfc #000000 #000000;
#X obj 270 372 bng 19 250 50 0 empty empty empty 0 -10 0 12 #fcfcfc #000000 #000000;
#X obj 310 372 bng 19 250 50 0 empty empty empty 0 -10 0 12 #fcfcfc #000000 #000000;
#X obj 349 371 bng 19 250 50 0 empty empty empty 0 -10 0 12 #fcfcfc #000000 #000000;
#X obj 389 371 bng 19 250 50 0 empty empty empty 0 -10 0 12 #fcfcfc #000000 #000000;
#X obj 428 372 bng 19 250 50 0 empty empty empty 0 -10 0 12 #fcfcfc #000000 #000000;
#X msg 460 63 1000;
#X obj 110 280 hsl 162 19 0 12 0 0 empty empty empty -2 -10 0 12 #fcfcfc #000000 #000000 0 1;
#X obj 107 304 i;
#X obj 466 371 bng 19 250 50 0 empty empty empty 0 -10 0 12 #fcfcfc #000000 #000000;
#X obj 505 372 bng 19 250 50 0 empty empty empty 0 -10 0 12 #fcfcfc #000000 #000000;
#X msg 465 398 1000;
#X msg 505 397 1100;
#X obj 110 346 sel 0 1 2 3 4 5 6 7 8 9 10 11 12, f 75;
#X obj 547 369 bng 19 250 50 0 empty empty empty 0 -10 0 12 #fcfcfc #000000 #000000;
#X obj 586 370 bng 19 250 50 0 empty empty empty 0 -10 0 12 #fcfcfc #000000 #000000;
#X msg 546 396 1200;
#X msg 586 395 1300;
#X text 105 15 Harmonic Series starting at 100 Hz;
#X text 102 249 Use 2 at a time and they add together;
#X obj 141 764 osc~;
#X obj 187 680 vsl 15 100 0 0.5 0 0 empty empty empty 0 -9 0 12 #606060 #dfdfdf #dfdfdf 0 1;
#X floatatom 141 679 5 0 0 0 - - - 0;
#X obj 220 764 osc~;
#X obj 266 680 vsl 15 100 0 0.5 0 0 empty empty empty 0 -9 0 12 #606060 #dfdfdf #dfdfdf 0 1;
#X floatatom 220 679 5 0 0 0 - - - 0;
#X obj 111 479 *~;
#X obj 106 173 *~;
#X obj 141 788 *~;
#X obj 220 788 *~;
#X obj 220 652 * 2;
#X obj 291 764 osc~;
#X obj 337 680 vsl 15 100 0 0.5 0 0 empty empty empty 0 -9 0 12 #606060 #dfdfdf #dfdfdf 0 1;
#X floatatom 291 679 5 0 0 0 - - - 0;
#X obj 291 788 *~;
#X obj 359 762 osc~;
#X obj 405 678 vsl 15 100 0 0.5 0 0 empty empty empty 0 -9 0 12 #606060 #dfdfdf #dfdfdf 0 1;
#X floatatom 359 677 5 0 0 0 - - - 0;
#X obj 359 786 *~;
#X obj 430 762 osc~;
#X obj 476 678 vsl 15 100 0 0.5 0 0 empty empty empty 0 -9 0 12 #606060 #dfdfdf #dfdfdf 0 1;
#X floatatom 430 677 5 0 0 0 - - - 0;
#X obj 430 786 *~;
#X obj 500 760 osc~;
#X obj 546 676 vsl 15 100 0 0.5 0 0 empty empty empty 0 -9 0 12 #606060 #dfdfdf #dfdfdf 0 1;
#X floatatom 500 675 5 0 0 0 - - - 0;
#X obj 500 784 *~;
#X obj 571 760 osc~;
#X obj 617 676 vsl 15 100 0 0.5 0 0 empty empty empty 0 -9 0 12 #606060 #dfdfdf #dfdfdf 0 1;
#X floatatom 571 675 5 0 0 0 - - - 0;
#X obj 571 784 *~;
#X obj 639 758 osc~;
#X obj 685 674 vsl 15 100 0 0.5 0 0 empty empty empty 0 -9 0 12 #606060 #dfdfdf #dfdfdf 0 1;
#X floatatom 639 673 5 0 0 0 - - - 0;
#X obj 639 782 *~;
#X obj 710 758 osc~;
#X obj 756 674 vsl 15 100 0 0.5 0 0 empty empty empty 0 -9 0 12 #606060 #dfdfdf #dfdfdf 0 1;
#X floatatom 710 673 5 0 0 0 - - - 0;
#X obj 710 782 *~;
#X obj 782 759 osc~;
#X obj 828 675 vsl 15 100 0 0.5 0 0 empty empty empty 0 -9 0 12 #606060 #dfdfdf #dfdfdf 0 1;
#X floatatom 782 674 5 0 0 0 - - - 0;
#X obj 782 783 *~;
#X obj 853 759 osc~;
#X obj 899 675 vsl 15 100 0 0.5 0 0 empty empty empty 0 -9 0 12 #606060 #dfdfdf #dfdfdf 0 1;
#X floatatom 853 674 5 0 0 0 - - - 0;
#X obj 853 783 *~;
#X obj 921 757 osc~;
#X obj 967 673 vsl 15 100 0 0.5 0 0 empty empty empty 0 -9 0 12 #606060 #dfdfdf #dfdfdf 0 1;
#X floatatom 921 672 5 0 0 0 - - - 0;
#X obj 921 781 *~;
#X obj 992 757 osc~;
#X obj 1038 673 vsl 15 100 0 0.5 0 0 empty empty empty 0 -9 0 12 #606060 #dfdfdf #dfdfdf 0 1;
#X floatatom 992 672 5 0 0 0 - - - 0;
#X obj 992 781 *~;
#X floatatom 141 609 5 0 0 0 - - - 0;
#X obj 291 652 * 3;
#X obj 359 650 * 4;
#X obj 430 650 * 5;
#X obj 500 648 * 6;
#X obj 571 648 * 7;
#X obj 639 646 * 8;
#X obj 710 646 * 9;
#X obj 782 647 * 10;
#X obj 852 647 * 11;
#X obj 921 645 * 12;
#X obj 992 645 * 13;
#X text 1058 764 <- individual harmonic volume;
#X obj 688 984 hsl 162 19 0 0.5 0 0 empty empty empty -2 -10 0 12 #fcfcfc #000000 #000000 0 1;
#X obj 604 1011 dac~;
#X obj 606 968 *~;
#X text 1251 1104 .;
#X text 679 948 <- when audio (~) signals are combined at an inlet they sum together (add / mix);
#X floatatom 685 1008 5 0 0 0 - - - 0;
#X text 729 1009 Volume;
#X obj 141 562 loadbang;
#X msg 141 586 100;
#X msg 194 123 0.5;
#X msg 230 122 0;
#X connect 0 0 9 0;
#X connect 1 0 9 0;
#X connect 2 0 9 0;
#X connect 3 0 9 0;
#X connect 4 0 9 0;
#X connect 5 0 9 0;
#X connect 6 0 9 0;
#X connect 7 0 9 0;
#X connect 8 0 9 0;
#X connect 9 0 55 0;
#X connect 10 0 55 1;
#X connect 12 0 21 0;
#X connect 13 0 21 0;
#X connect 14 0 21 0;
#X connect 15 0 21 0;
#X connect 16 0 21 0;
#X connect 17 0 21 0;
#X connect 18 0 21 0;
#X connect 19 0 21 0;
#X connect 20 0 21 0;
#X connect 21 0 54 0;
#X connect 22 0 54 1;
#X connect 24 0 41 0;
#X connect 25 0 12 0;
#X connect 26 0 13 0;
#X connect 27 0 14 0;
#X connect 28 0 15 0;
#X connect 29 0 16 0;
#X connect 30 0 17 0;
#X connect 31 0 18 0;
#X connect 32 0 19 0;
#X connect 33 0 20 0;
#X connect 34 0 9 0;
#X connect 35 0 36 0;
#X connect 36 0 24 0;
#X connect 37 0 39 0;
#X connect 38 0 40 0;
#X connect 39 0 21 0;
#X connect 40 0 21 0;
#X connect 41 0 25 0;
#X connect 41 1 26 0;
#X connect 41 2 27 0;
#X connect 41 3 28 0;
#X connect 41 4 29 0;
#X connect 41 5 30 0;
#X connect 41 6 31 0;
#X connect 41 7 32 0;
#X connect 41 8 33 0;
#X connect 41 9 37 0;
#X connect 41 10 38 0;
#X connect 41 11 42 0;
#X connect 41 12 43 0;
#X connect 42 0 44 0;
#X connect 43 0 45 0;
#X connect 44 0 21 0;
#X connect 45 0 21 0;
#X connect 48 0 56 0;
#X connect 49 0 56 1;
#X connect 50 0 48 0;
#X connect 51 0 57 0;
#X connect 52 0 57 1;
#X connect 53 0 51 0;
#X connect 54 0 23 0;
#X connect 54 0 23 1;
#X connect 55 0 11 0;
#X connect 55 0 11 1;
#X connect 56 0 118 0;
#X connect 57 0 118 0;
#X connect 58 0 53 0;
#X connect 59 0 62 0;
#X connect 60 0 62 1;
#X connect 61 0 59 0;
#X connect 62 0 118 0;
#X connect 63 0 66 0;
#X connect 64 0 66 1;
#X connect 65 0 63 0;
#X connect 66 0 118 0;
#X connect 67 0 70 0;
#X connect 68 0 70 1;
#X connect 69 0 67 0;
#X connect 70 0 118 0;
#X connect 71 0 74 0;
#X connect 72 0 74 1;
#X connect 73 0 71 0;
#X connect 74 0 118 0;
#X connect 75 0 78 0;
#X connect 76 0 78 1;
#X connect 77 0 75 0;
#X connect 78 0 118 0;
#X connect 79 0 82 0;
#X connect 80 0 82 1;
#X connect 81 0 79 0;
#X connect 82 0 118 0;
#X connect 83 0 86 0;
#X connect 84 0 86 1;
#X connect 85 0 83 0;
#X connect 86 0 118 0;
#X connect 87 0 90 0;
#X connect 88 0 90 1;
#X connect 89 0 87 0;
#X connect 90 0 118 0;
#X connect 91 0 94 0;
#X connect 92 0 94 1;
#X connect 93 0 91 0;
#X connect 94 0 118 0;
#X connect 95 0 98 0;
#X connect 96 0 98 1;
#X connect 97 0 95 0;
#X connect 98 0 118 0;
#X connect 99 0 102 0;
#X connect 100 0 102 1;
#X connect 101 0 99 0;
#X connect 102 0 118 0;
#X connect 103 0 50 0;
#X connect 103 0 58 0;
#X connect 103 0 104 0;
#X connect 103 0 105 0;
#X connect 103 0 106 0;
#X connect 103 0 107 0;
#X connect 103 0 108 0;
#X connect 103 0 109 0;
#X connect 103 0 110 0;
#X connect 103 0 111 0;
#X connect 103 0 112 0;
#X connect 103 0 113 0;
#X connect 103 0 114 0;
#X connect 104 0 61 0;
#X connect 105 0 65 0;
#X connect 106 0 69 0;
#X connect 107 0 73 0;
#X connect 108 0 77 0;
#X connect 109 0 81 0;
#X connect 110 0 85 0;
#X connect 111 0 89 0;
#X connect 112 0 93 0;
#X connect 113 0 97 0;
#X connect 114 0 101 0;
#X connect 116 0 118 1;
#X connect 116 0 121 0;
#X connect 118 0 117 0;
#X connect 118 0 117 1;
#X connect 123 0 124 0;
#X connect 124 0 103 0;
#X connect 125 0 10 0;
#X connect 126 0 10 0;
