#N canvas 1624 131 1670 794 12;
#X obj 1070 760 dac~;
#X floatatom 1071 398 5 0 0 0 - - - 0;
#X obj 1069 729 *~;
#X obj 1071 480 osc~;
#X obj 1123 696 line~;
#X floatatom 1353 467 5 0 0 0 - - - 0;
#X msg 1179 669 0 \$1;
#X floatatom 1347 575 5 0 0 0 - - - 0;
#X text 1402 468 attack time;
#X obj 1122 536 f;
#X obj 1179 645 f;
#X text 1120 398 frequency;
#X obj 1070 371 mtof;
#X floatatom 1071 345 5 0 0 0 - - - 0;
#X text 1123 343 MIDI note number (60 = middle C);
#X text 1153 468 trigger;
#X obj 1125 467 bng 25 250 50 0 empty empty empty 17 7 0 10 #fce0c4 #000000 #000000;
#X obj 1179 615 delay 100;
#X floatatom 1347 520 5 0 0 0 - - - 0;
#X text 1398 520 sustain time;
#X msg 1123 560 0.1 \$1;
#X text 1221 669 < go to 0 in \$1 ms;
#X obj 1248 544 t b f;
#X obj 1239 583 +;
#X text 1254 614 <- delay decay;
#X text 1398 575 release time;
#X msg 1352 407 5;
#X msg 1358 433 100;
#X obj 203 897 tgl 15 0 empty empty empty 17 7 0 10 #fcfcfc #000000 #000000 0 1;
#X floatatom 327 943 5 0 0 0 - - - 0;
#X floatatom 327 981 5 0 0 0 - - - 0;
#X text 371 943 attack time;
#X text 255 896 on/off;
#X floatatom 770 936 5 0 0 0 - - - 0;
#X floatatom 769 984 5 0 0 0 - - - 0;
#X floatatom 769 962 5 0 0 0 - - - 0;
#X obj 639 904 bng 25 250 50 0 empty empty empty 17 7 0 10 #fcfcfc #000000 #000000;
#X text 674 907 trigger;
#X text 379 984 release time;
#X obj 249 1098 tgl 15 0 empty empty empty 17 7 0 10 #fcfcfc #000000 #000000 0 1;
#X obj 249 1077 loadbang;
#X obj 249 1115 metro 20;
#X obj 249 1137 snapshot~;
#X floatatom 249 1162 5 0 0 0 - - - 0;
#X obj 689 1086 tgl 15 0 empty empty empty 17 7 0 10 #fcfcfc #000000 #000000 0 1;
#X obj 689 1065 loadbang;
#X obj 689 1103 metro 20;
#X obj 689 1125 snapshot~;
#X floatatom 689 1150 5 0 0 0 - - - 0;
#X text 146 823 This subpatch will sustain the envelope until it is turned off by sending 0;
#X text 605 827 This subpatch automatically releases after the release time;
#X obj 144 567 dac~;
#X obj 143 536 *~;
#X obj 206 493 line~;
#X text 234 350 trigger;
#X obj 206 349 bng 25 250 50 0 empty empty empty 17 7 0 10 #fce0c4 #000000 #000000;
#X obj 679 684 dac~;
#X floatatom 626 418 5 0 0 0 - - - 0;
#X obj 678 653 *~;
#X obj 626 500 osc~;
#X obj 707 620 line~;
#X text 675 418 frequency;
#X obj 625 391 mtof;
#X floatatom 626 365 5 0 0 0 - - - 0;
#X text 678 363 MIDI note number (60 = middle C);
#X text 735 477 trigger;
#X obj 707 476 bng 25 250 50 0 empty empty empty 17 7 0 10 #fce0c4 #000000 #000000;
#X msg 653 334 62;
#X msg 610 335 48;
#X obj 788 559 delay 100;
#X msg 788 583 0 1000;
#X msg 707 533 0.1 50;
#X msg 206 394 0.1 10;
#X obj 243 436 delay 10;
#X msg 243 460 0 50;
#X obj 143 398 noise~;
#X text 256 395 <- go to 0.1 in 10 ms;
#X text 305 436 <- delay bang by 10 ms;
#X text 285 461 <- go to 0 in 50 ms;
#X text 609 289 Here it is with a tone;
#X text 820 936 attack time (ms);
#X text 814 960 sustain time (ms);
#X text 814 986 release time (ms);
#N canvas 47 38 706 475 AR-auto-envelope 0;
#X obj 132 300 line~;
#X msg 199 263 0 \$1;
#X obj 133 226 f;
#X obj 204 236 f;
#X obj 128 35 inlet;
#X obj 132 372 outlet~;
#X obj 206 31 inlet;
#X obj 458 33 inlet;
#X text 206 12 attack time;
#X obj 331 114 loadbang;
#X msg 337 167 100;
#X msg 299 142 10;
#X obj 201 122 delay 100;
#X text 115 13 trigger;
#X obj 311 20 inlet;
#X text 310 -2 on/sustain time;
#X msg 132 256 0.1 \$1;
#X obj 290 49 t b f;
#X obj 259 91 +;
#X text 457 12 release time;
#X text 397 114 initialize start values;
#X connect 0 0 5 0;
#X connect 1 0 0 0;
#X connect 2 0 16 0;
#X connect 3 0 1 0;
#X connect 4 0 12 0;
#X connect 4 0 2 0;
#X connect 6 0 2 1;
#X connect 6 0 18 0;
#X connect 7 0 3 1;
#X connect 9 0 10 0;
#X connect 9 0 11 0;
#X connect 10 0 3 1;
#X connect 11 0 2 1;
#X connect 11 0 18 0;
#X connect 12 0 3 0;
#X connect 14 0 17 0;
#X connect 16 0 0 0;
#X connect 17 0 18 0;
#X connect 17 1 18 1;
#X connect 18 0 12 1;
#X restore 639 1015 pd AR-auto-envelope;
#X text 125 292 Here [line~] is used to create an automatic Attack Release (AR) envelope \, the decay immediately follows the attack and sustain time (all in ms).;
#N canvas 0 23 524 475 AR-envelope 0;
#X obj 128 222 line~;
#X obj 131 93 sel 1 0;
#X msg 128 178 1 \$1;
#X msg 215 193 0 \$1;
#X obj 129 148 f;
#X obj 220 166 f;
#X obj 131 51 inlet;
#X obj 128 294 outlet~;
#X obj 206 17 inlet;
#X obj 278 69 inlet;
#X text 23 53 toggle on/off;
#X text 250 17 attack time;
#X text 324 68 decay time;
#X obj 331 100 loadbang;
#X msg 337 153 100;
#X msg 299 128 10;
#X text 376 135 initial values;
#X connect 0 0 7 0;
#X connect 1 0 4 0;
#X connect 1 1 5 0;
#X connect 2 0 0 0;
#X connect 3 0 0 0;
#X connect 4 0 2 0;
#X connect 5 0 3 0;
#X connect 6 0 1 0;
#X connect 8 0 4 1;
#X connect 9 0 5 1;
#X connect 13 0 14 0;
#X connect 13 0 15 0;
#X connect 14 0 5 1;
#X connect 15 0 4 1;
#X restore 203 1008 pd AR-envelope;
#X obj 365 150 tgl 15 0 empty empty empty 17 7 0 10 #fcfcfc #000000 #000000 0 1;
#X obj 365 129 loadbang;
#X obj 365 167 metro 20;
#X obj 365 189 snapshot~;
#X floatatom 206 206 5 0 0 0 - - - 0;
#X obj 205 123 line~;
#X text 441 171 <- this shows one way to view the value of an audio rate (~) signal by taking "snapshots" \, in this case every 20 ms.;
#X msg 207 85 10 5000;
#X msg 275 87 0 500;
#X msg 143 54 -10;
#X msg 179 54 0;
#X text 221 53 <- messages with a single value set the output immediately;
#X text 324 87 <- with 2 values the first is the target \, the seconds is the ramp time in ms.;
#X text 146 11 [line~] creates audio rate ramps to avoid clicks/pops;
#X connect 1 0 3 0;
#X connect 2 0 0 0;
#X connect 2 0 0 1;
#X connect 3 0 2 0;
#X connect 4 0 2 1;
#X connect 5 0 9 1;
#X connect 5 0 23 0;
#X connect 6 0 4 0;
#X connect 7 0 10 1;
#X connect 9 0 20 0;
#X connect 10 0 6 0;
#X connect 12 0 1 0;
#X connect 13 0 12 0;
#X connect 16 0 9 0;
#X connect 16 0 17 0;
#X connect 17 0 10 0;
#X connect 18 0 22 0;
#X connect 20 0 4 0;
#X connect 22 0 23 0;
#X connect 22 1 23 1;
#X connect 23 0 17 1;
#X connect 26 0 5 0;
#X connect 27 0 5 0;
#X connect 28 0 85 0;
#X connect 29 0 85 1;
#X connect 30 0 85 2;
#X connect 33 0 83 1;
#X connect 34 0 83 3;
#X connect 35 0 83 2;
#X connect 36 0 83 0;
#X connect 39 0 41 0;
#X connect 40 0 39 0;
#X connect 41 0 42 0;
#X connect 42 0 43 0;
#X connect 44 0 46 0;
#X connect 45 0 44 0;
#X connect 46 0 47 0;
#X connect 47 0 48 0;
#X connect 52 0 51 0;
#X connect 52 0 51 1;
#X connect 53 0 52 1;
#X connect 55 0 72 0;
#X connect 55 0 73 0;
#X connect 57 0 59 0;
#X connect 58 0 56 0;
#X connect 58 0 56 1;
#X connect 59 0 58 0;
#X connect 60 0 58 1;
#X connect 62 0 57 0;
#X connect 63 0 62 0;
#X connect 66 0 71 0;
#X connect 66 0 69 0;
#X connect 67 0 63 0;
#X connect 68 0 63 0;
#X connect 69 0 70 0;
#X connect 70 0 60 0;
#X connect 71 0 60 0;
#X connect 72 0 53 0;
#X connect 73 0 74 0;
#X connect 74 0 53 0;
#X connect 75 0 52 0;
#X connect 83 0 47 0;
#X connect 85 0 42 0;
#X connect 86 0 88 0;
#X connect 87 0 86 0;
#X connect 88 0 89 0;
#X connect 89 0 90 0;
#X connect 91 0 89 0;
#X connect 93 0 91 0;
#X connect 94 0 91 0;
#X connect 95 0 91 0;
#X connect 96 0 91 0;
