#N canvas 388 143 641 608 12;
#X obj 149 1047 dac~;
#X floatatom 145 720 5 0 0 0 - - - 0;
#X obj 147 975 *~;
#X obj 204 775 tgl 25 0 empty empty empty 17 7 0 10 #fcfcfc #000000 #000000 0 1;
#X obj 145 753 osc~;
#X obj 200 937 line~;
#X floatatom 308 822 5 0 0 0 - - - 0;
#X obj 202 834 sel 1 0;
#X msg 261 909 0 \$1;
#X floatatom 308 860 5 0 0 0 - - - 0;
#X text 366 823 attack time;
#X obj 199 869 f;
#X obj 261 885 f;
#X text 234 782 on/off;
#X text 194 720 frequency;
#X obj 144 693 mtof;
#X floatatom 145 667 5 0 0 0 - - - 0;
#X text 197 665 MIDI note number (60 = middle C);
#X msg 200 893 0.1 \$1;
#X text 360 863 release time;
#X text 143 22 Here [line~] is used to create a simple Attack Release (AR) envelope. The messages tell it to ramp to a value in the specified time (in milliseconds). In the messages sent to [line~]: the first number is the target value - second number is the time to get there;
#X obj 149 527 dac~;
#X floatatom 145 200 5 0 0 0 - - - 0;
#X obj 147 455 *~;
#X obj 145 233 osc~;
#X obj 200 417 line~;
#X text 194 200 frequency;
#X obj 144 173 mtof;
#X floatatom 145 147 5 0 0 0 - - - 0;
#X text 197 145 MIDI note number (60 = middle C);
#X msg 197 306 0.25 10;
#X text 288 349 Go to volume of 0 (off) in 1000 ms;
#X text 259 304 Go to volume of 0.25 in 10 ms;
#X msg 228 350 0 1000;
#X msg 145 118 60;
#X text 140 608 This version does the same thing but uses a toggle box to control on/off and a number box to set the attack and release times;
#X connect 1 0 4 0;
#X connect 2 0 0 0;
#X connect 2 0 0 1;
#X connect 3 0 7 0;
#X connect 4 0 2 0;
#X connect 5 0 2 1;
#X connect 6 0 11 1;
#X connect 7 0 11 0;
#X connect 7 1 12 0;
#X connect 8 0 5 0;
#X connect 9 0 12 1;
#X connect 11 0 18 0;
#X connect 12 0 8 0;
#X connect 15 0 1 0;
#X connect 16 0 15 0;
#X connect 18 0 5 0;
#X connect 22 0 24 0;
#X connect 23 0 21 0;
#X connect 23 0 21 1;
#X connect 24 0 23 0;
#X connect 25 0 23 1;
#X connect 27 0 22 0;
#X connect 28 0 27 0;
#X connect 30 0 25 0;
#X connect 33 0 25 0;
#X connect 34 0 28 0;
