#N canvas 70 79 1465 794 12;
#X obj 131 1046 dac~;
#X floatatom 84 691 5 0 0 0 - - - 0;
#X obj 130 1015 *~;
#X obj 132 766 osc~;
#X obj 184 982 line~;
#X floatatom 414 753 5 0 0 0 - - - 0;
#X msg 240 955 0 \$1;
#X floatatom 408 861 5 0 0 0 - - - 0;
#X text 463 754 attack time;
#X obj 183 822 f;
#X obj 240 931 f;
#X text 123 692 frequency;
#X obj 83 664 mtof;
#X floatatom 84 638 5 0 0 0 - - - 0;
#X text 310 632 trigger;
#X obj 282 631 bng 25 250 50 0 empty empty empty 17 7 0 10 #fce0c4 #000000 #000000;
#X obj 240 901 delay 100;
#X floatatom 408 806 5 0 0 0 - - - 0;
#X text 459 806 sustain time;
#X msg 184 846 0.1 \$1;
#X text 282 955 < go to 0 in \$1 ms;
#X obj 309 830 t b f;
#X obj 300 869 +;
#X text 315 900 <- delay decay;
#X text 459 861 release time;
#X msg 413 693 5;
#X msg 419 719 100;
#X obj 708 641 tgl 15 0 empty empty empty 17 7 0 10 #fcfcfc #000000 #000000 0 1;
#X floatatom 832 687 5 0 0 0 - - - 0;
#X floatatom 832 725 5 0 0 0 - - - 0;
#X text 876 687 attack time;
#X text 760 640 on/off;
#X floatatom 1295 671 5 0 0 0 - - - 0;
#X floatatom 1294 698 5 0 0 0 - - - 0;
#X text 1339 671 attack time;
#X floatatom 1294 723 5 0 0 0 - - - 0;
#X obj 1145 684 bng 25 250 50 0 empty empty empty 17 7 0 10 #fcfcfc #000000 #000000;
#X text 1180 687 trigger;
#N canvas 0 25 706 475 AR-envelope-auto 0;
#X obj 132 300 line~;
#X msg 199 263 0 \$1;
#X obj 133 226 f;
#X obj 204 236 f;
#X obj 128 35 inlet;
#X obj 132 372 outlet~;
#X obj 206 31 inlet;
#X obj 344 20 inlet;
#X text 206 12 attack time;
#X obj 331 114 loadbang;
#X msg 337 167 100;
#X msg 299 142 10;
#X text 376 149 initial values;
#X obj 201 122 delay 100;
#X text 115 13 trigger;
#X obj 475 36 inlet;
#X text 474 14 on/sustain time;
#X msg 132 256 0.1 \$1;
#X obj 290 49 t b f;
#X obj 259 91 +;
#X text 343 -1 release time;
#X connect 0 0 5 0;
#X connect 1 0 0 0;
#X connect 2 0 17 0;
#X connect 3 0 1 0;
#X connect 4 0 13 0;
#X connect 4 0 2 0;
#X connect 6 0 2 1;
#X connect 6 0 19 0;
#X connect 7 0 3 1;
#X connect 9 0 10 0;
#X connect 9 0 11 0;
#X connect 10 0 3 1;
#X connect 11 0 2 1;
#X connect 11 0 19 0;
#X connect 13 0 3 0;
#X connect 15 0 18 0;
#X connect 17 0 0 0;
#X connect 18 0 19 0;
#X connect 18 1 19 1;
#X connect 19 0 13 1;
#X restore 1144 759 pd AR-envelope-auto;
#X text 1346 701 release time;
#X text 1346 726 release delay;
#X text 884 728 release time;
#X obj 754 842 tgl 15 0 empty empty empty 17 7 0 10 #fcfcfc #000000 #000000 0 1;
#X obj 754 821 loadbang;
#X obj 754 859 metro 20;
#X obj 754 881 snapshot~;
#X floatatom 754 906 5 0 0 0 - - - 0;
#X obj 1194 830 tgl 15 0 empty empty empty 17 7 0 10 #fcfcfc #000000 #000000 0 1;
#X obj 1194 809 loadbang;
#X obj 1194 847 metro 20;
#X obj 1194 869 snapshot~;
#X floatatom 1194 894 5 0 0 0 - - - 0;
#X text 651 567 This subpatch will sustain the envelope until it is turned off by sending 0;
#X text 1110 571 This subpatch automatically releases after the release time;
#X text 82 620 MIDI note number;
#N canvas 0 23 524 475 AR-envelope 0;
#X obj 128 222 line~;
#X obj 131 93 sel 1 0;
#X msg 128 178 1 \$1;
#X msg 215 193 0 \$1;
#X obj 129 148 f;
#X obj 220 166 f;
#X obj 131 51 inlet;
#X obj 128 294 outlet~;
#X obj 206 17 inlet;
#X obj 278 69 inlet;
#X text 23 53 toggle on/off;
#X text 250 17 attack time;
#X text 324 68 decay time;
#X obj 331 100 loadbang;
#X msg 337 153 100;
#X msg 299 128 10;
#X text 376 135 initial values;
#X connect 0 0 7 0;
#X connect 1 0 4 0;
#X connect 1 1 5 0;
#X connect 2 0 0 0;
#X connect 3 0 0 0;
#X connect 4 0 2 0;
#X connect 5 0 3 0;
#X connect 6 0 1 0;
#X connect 8 0 4 1;
#X connect 9 0 5 1;
#X connect 13 0 14 0;
#X connect 13 0 15 0;
#X connect 14 0 5 1;
#X connect 15 0 4 1;
#X restore 709 752 pd AR-envelope;
#X text 82 559 Here [line~] is used to create an automatic AR envelope with controls for the attack and release times. The release immediately follows the attack and sustain times (ms).;
#X obj 144 358 dac~;
#X obj 143 327 *~;
#X obj 206 284 line~;
#X text 234 141 trigger;
#X obj 206 140 bng 25 250 50 0 empty empty empty 17 7 0 10 #fce0c4 #000000 #000000;
#X obj 781 454 dac~;
#X floatatom 727 207 5 0 0 0 - - - 0;
#X obj 780 423 *~;
#X obj 728 270 osc~;
#X obj 809 390 line~;
#X text 776 207 frequency;
#X obj 726 180 mtof;
#X floatatom 727 154 5 0 0 0 - - - 0;
#X text 779 152 MIDI note number (60 = middle C);
#X text 900 103 trigger;
#X obj 872 102 bng 25 250 50 0 empty empty empty 17 7 0 10 #fce0c4 #000000 #000000;
#X msg 727 133 48;
#X obj 890 329 delay 100;
#X msg 890 353 0 1000;
#X msg 809 286 0.1 50;
#X msg 206 185 0.1 10;
#X obj 243 227 delay 10;
#X msg 243 251 0 50;
#X obj 143 189 noise~;
#X text 256 186 <- go to 0.1 in 10 ms;
#X text 305 227 <- delay bang by 10 ms;
#X text 285 252 <- go to 0 in 50 ms;
#X text 706 47 Here it is with a tone;
#X text 119 53 Here [line~] is used to create an automatic Attack Release (AR) envelope \, the decay immediately follows the attack and sustain time.;
#X obj 727 103 loadbang;
#X text 948 355 <- go to 0 in 1000 ms;
#X text 958 329 <- delay bang by 100 ms;
#X text 875 284 <- go to 0.1 in 50 ms;
#X connect 1 0 3 0;
#X connect 2 0 0 0;
#X connect 2 0 0 1;
#X connect 3 0 2 0;
#X connect 4 0 2 1;
#X connect 5 0 9 1;
#X connect 5 0 22 0;
#X connect 6 0 4 0;
#X connect 7 0 10 1;
#X connect 9 0 19 0;
#X connect 10 0 6 0;
#X connect 12 0 1 0;
#X connect 13 0 12 0;
#X connect 15 0 9 0;
#X connect 15 0 16 0;
#X connect 16 0 10 0;
#X connect 17 0 21 0;
#X connect 19 0 4 0;
#X connect 21 0 22 0;
#X connect 21 1 22 1;
#X connect 22 0 16 1;
#X connect 25 0 5 0;
#X connect 26 0 5 0;
#X connect 27 0 55 0;
#X connect 28 0 55 1;
#X connect 29 0 55 2;
#X connect 32 0 38 1;
#X connect 33 0 38 2;
#X connect 35 0 38 3;
#X connect 36 0 38 0;
#X connect 38 0 50 0;
#X connect 42 0 44 0;
#X connect 43 0 42 0;
#X connect 44 0 45 0;
#X connect 45 0 46 0;
#X connect 47 0 49 0;
#X connect 48 0 47 0;
#X connect 49 0 50 0;
#X connect 50 0 51 0;
#X connect 55 0 45 0;
#X connect 58 0 57 0;
#X connect 58 0 57 1;
#X connect 59 0 58 1;
#X connect 61 0 77 0;
#X connect 61 0 78 0;
#X connect 63 0 65 0;
#X connect 64 0 62 0;
#X connect 64 0 62 1;
#X connect 65 0 64 0;
#X connect 66 0 64 1;
#X connect 68 0 63 0;
#X connect 69 0 68 0;
#X connect 72 0 76 0;
#X connect 72 0 74 0;
#X connect 73 0 69 0;
#X connect 74 0 75 0;
#X connect 75 0 66 0;
#X connect 76 0 66 0;
#X connect 77 0 59 0;
#X connect 78 0 79 0;
#X connect 79 0 59 0;
#X connect 80 0 58 0;
#X connect 86 0 73 0;
